M48
; DRILL file {KiCad 8.0.3-8.0.3-0~ubuntu22.04.1} date 2024-06-20T14:09:37-0400
; FORMAT={-:-/ absolute / inch / decimal}
; #@! TF.CreationDate,2024-06-20T14:09:37-04:00
; #@! TF.GenerationSoftware,Kicad,Pcbnew,8.0.3-8.0.3-0~ubuntu22.04.1
; #@! TF.FileFunction,Plated,1,2,PTH
FMAT,2
INCH
; #@! TA.AperFunction,Plated,PTH,ViaDrill
T1C0.0118
; #@! TA.AperFunction,Plated,PTH,ComponentDrill
T2C0.0300
; #@! TA.AperFunction,Plated,PTH,ComponentDrill
T3C0.1264
%
G90
G05
T1
X4.3504Y-4.626
X4.4882Y-4.2323
X5.4331Y-3.1299
X5.8071Y-3.3661
X6.3583Y-3.0118
X7.815Y-3.0118
X7.8346Y-4.8425
T2
X4.0945Y-3.6969
X4.0945Y-4.1378
X4.2504Y-4.8622
X4.3504Y-4.8622
X4.4862Y-3.8189
X4.4862Y-4.0157
X5.0079Y-3.6866
X5.0079Y-3.7866
X5.0079Y-3.8866
X5.0079Y-3.9866
X5.0079Y-4.0866
X5.0079Y-4.1866
X5.2756Y-3.0512
X5.3543Y-3.0512
X5.4331Y-3.0512
X5.5125Y-3.5031
X5.5125Y-4.3843
X5.6125Y-3.5031
X5.6125Y-4.3843
X5.689Y-4.8819
X5.7125Y-3.5031
X5.7125Y-4.3843
X5.7677Y-4.8819
X5.8125Y-3.5031
X5.8125Y-4.3843
X5.8465Y-4.8819
X5.9125Y-3.5031
X5.9125Y-4.3843
X5.9252Y-4.8819
X6.0039Y-4.8819
X6.0125Y-3.5031
X6.0125Y-4.3843
X6.0827Y-4.8819
X6.1125Y-3.5031
X6.1125Y-4.3843
X6.1583Y-2.815
X6.1614Y-4.8819
X6.2402Y-4.8819
X6.2583Y-2.815
X6.3583Y-2.815
X7.0669Y-3.8583
X7.0669Y-4.0197
X7.1669Y-3.8583
X7.1669Y-4.0197
X7.2669Y-3.8583
X7.2669Y-4.0197
X7.3669Y-3.8583
X7.3669Y-4.0197
X7.4669Y-3.8583
X7.4669Y-4.0197
X7.5669Y-3.8583
X7.5669Y-4.0197
X7.615Y-2.815
X7.615Y-5.0591
X7.6669Y-3.8583
X7.6669Y-4.0197
X7.6953Y-3.1496
X7.7059Y-4.7244
X7.715Y-2.815
X7.715Y-5.0591
X7.7669Y-3.8583
X7.7669Y-4.0197
X7.7953Y-3.1496
X7.8059Y-4.7244
X7.815Y-2.815
X7.815Y-5.0591
X7.8669Y-3.8583
X7.8669Y-4.0197
X7.9669Y-3.8583
X7.9669Y-4.0197
X8.0669Y-3.8583
X8.0669Y-4.0197
X8.1669Y-3.8583
X8.1669Y-4.0197
X8.2669Y-3.8583
X8.2669Y-4.0197
T3
X4.5472Y-2.8346
X4.5472Y-5.0394
X4.9016Y-3.3268
X4.9016Y-4.5472
X6.122Y-3.3268
X6.122Y-4.5472
X8.248Y-2.8346
X8.248Y-5.0394
M30
