%TF.GenerationSoftware,KiCad,Pcbnew,8.0.3-8.0.3-0~ubuntu22.04.1*%
%TF.CreationDate,2024-06-20T14:09:52-04:00*%
%TF.ProjectId,Blimp_PCB_V1,426c696d-705f-4504-9342-5f56312e6b69,rev?*%
%TF.SameCoordinates,Original*%
%TF.FileFunction,Legend,Top*%
%TF.FilePolarity,Positive*%
%FSLAX46Y46*%
G04 Gerber Fmt 4.6, Leading zero omitted, Abs format (unit mm)*
G04 Created by KiCad (PCBNEW 8.0.3-8.0.3-0~ubuntu22.04.1) date 2024-06-20 14:09:52*
%MOMM*%
%LPD*%
G01*
G04 APERTURE LIST*
%ADD10C,0.100000*%
%ADD11C,0.150000*%
%ADD12C,0.120000*%
G04 APERTURE END LIST*
D10*
X103875312Y-81277180D02*
X103827693Y-81324800D01*
X103827693Y-81324800D02*
X103684836Y-81372419D01*
X103684836Y-81372419D02*
X103589598Y-81372419D01*
X103589598Y-81372419D02*
X103446741Y-81324800D01*
X103446741Y-81324800D02*
X103351503Y-81229561D01*
X103351503Y-81229561D02*
X103303884Y-81134323D01*
X103303884Y-81134323D02*
X103256265Y-80943847D01*
X103256265Y-80943847D02*
X103256265Y-80800990D01*
X103256265Y-80800990D02*
X103303884Y-80610514D01*
X103303884Y-80610514D02*
X103351503Y-80515276D01*
X103351503Y-80515276D02*
X103446741Y-80420038D01*
X103446741Y-80420038D02*
X103589598Y-80372419D01*
X103589598Y-80372419D02*
X103684836Y-80372419D01*
X103684836Y-80372419D02*
X103827693Y-80420038D01*
X103827693Y-80420038D02*
X103875312Y-80467657D01*
X104732455Y-81372419D02*
X104732455Y-80848609D01*
X104732455Y-80848609D02*
X104684836Y-80753371D01*
X104684836Y-80753371D02*
X104589598Y-80705752D01*
X104589598Y-80705752D02*
X104399122Y-80705752D01*
X104399122Y-80705752D02*
X104303884Y-80753371D01*
X104732455Y-81324800D02*
X104637217Y-81372419D01*
X104637217Y-81372419D02*
X104399122Y-81372419D01*
X104399122Y-81372419D02*
X104303884Y-81324800D01*
X104303884Y-81324800D02*
X104256265Y-81229561D01*
X104256265Y-81229561D02*
X104256265Y-81134323D01*
X104256265Y-81134323D02*
X104303884Y-81039085D01*
X104303884Y-81039085D02*
X104399122Y-80991466D01*
X104399122Y-80991466D02*
X104637217Y-80991466D01*
X104637217Y-80991466D02*
X104732455Y-80943847D01*
X105065789Y-80705752D02*
X105446741Y-80705752D01*
X105208646Y-80372419D02*
X105208646Y-81229561D01*
X105208646Y-81229561D02*
X105256265Y-81324800D01*
X105256265Y-81324800D02*
X105351503Y-81372419D01*
X105351503Y-81372419D02*
X105446741Y-81372419D01*
X106208646Y-81324800D02*
X106113408Y-81372419D01*
X106113408Y-81372419D02*
X105922932Y-81372419D01*
X105922932Y-81372419D02*
X105827694Y-81324800D01*
X105827694Y-81324800D02*
X105780075Y-81277180D01*
X105780075Y-81277180D02*
X105732456Y-81181942D01*
X105732456Y-81181942D02*
X105732456Y-80896228D01*
X105732456Y-80896228D02*
X105780075Y-80800990D01*
X105780075Y-80800990D02*
X105827694Y-80753371D01*
X105827694Y-80753371D02*
X105922932Y-80705752D01*
X105922932Y-80705752D02*
X106113408Y-80705752D01*
X106113408Y-80705752D02*
X106208646Y-80753371D01*
X106637218Y-81372419D02*
X106637218Y-80372419D01*
X107065789Y-81372419D02*
X107065789Y-80848609D01*
X107065789Y-80848609D02*
X107018170Y-80753371D01*
X107018170Y-80753371D02*
X106922932Y-80705752D01*
X106922932Y-80705752D02*
X106780075Y-80705752D01*
X106780075Y-80705752D02*
X106684837Y-80753371D01*
X106684837Y-80753371D02*
X106637218Y-80800990D01*
X107541980Y-81372419D02*
X107541980Y-80705752D01*
X107541980Y-80372419D02*
X107494361Y-80420038D01*
X107494361Y-80420038D02*
X107541980Y-80467657D01*
X107541980Y-80467657D02*
X107589599Y-80420038D01*
X107589599Y-80420038D02*
X107541980Y-80372419D01*
X107541980Y-80372419D02*
X107541980Y-80467657D01*
X108018170Y-80705752D02*
X108018170Y-81372419D01*
X108018170Y-80800990D02*
X108065789Y-80753371D01*
X108065789Y-80753371D02*
X108161027Y-80705752D01*
X108161027Y-80705752D02*
X108303884Y-80705752D01*
X108303884Y-80705752D02*
X108399122Y-80753371D01*
X108399122Y-80753371D02*
X108446741Y-80848609D01*
X108446741Y-80848609D02*
X108446741Y-81372419D01*
X109351503Y-80705752D02*
X109351503Y-81515276D01*
X109351503Y-81515276D02*
X109303884Y-81610514D01*
X109303884Y-81610514D02*
X109256265Y-81658133D01*
X109256265Y-81658133D02*
X109161027Y-81705752D01*
X109161027Y-81705752D02*
X109018170Y-81705752D01*
X109018170Y-81705752D02*
X108922932Y-81658133D01*
X109351503Y-81324800D02*
X109256265Y-81372419D01*
X109256265Y-81372419D02*
X109065789Y-81372419D01*
X109065789Y-81372419D02*
X108970551Y-81324800D01*
X108970551Y-81324800D02*
X108922932Y-81277180D01*
X108922932Y-81277180D02*
X108875313Y-81181942D01*
X108875313Y-81181942D02*
X108875313Y-80896228D01*
X108875313Y-80896228D02*
X108922932Y-80800990D01*
X108922932Y-80800990D02*
X108970551Y-80753371D01*
X108970551Y-80753371D02*
X109065789Y-80705752D01*
X109065789Y-80705752D02*
X109256265Y-80705752D01*
X109256265Y-80705752D02*
X109351503Y-80753371D01*
X110922932Y-80848609D02*
X111065789Y-80896228D01*
X111065789Y-80896228D02*
X111113408Y-80943847D01*
X111113408Y-80943847D02*
X111161027Y-81039085D01*
X111161027Y-81039085D02*
X111161027Y-81181942D01*
X111161027Y-81181942D02*
X111113408Y-81277180D01*
X111113408Y-81277180D02*
X111065789Y-81324800D01*
X111065789Y-81324800D02*
X110970551Y-81372419D01*
X110970551Y-81372419D02*
X110589599Y-81372419D01*
X110589599Y-81372419D02*
X110589599Y-80372419D01*
X110589599Y-80372419D02*
X110922932Y-80372419D01*
X110922932Y-80372419D02*
X111018170Y-80420038D01*
X111018170Y-80420038D02*
X111065789Y-80467657D01*
X111065789Y-80467657D02*
X111113408Y-80562895D01*
X111113408Y-80562895D02*
X111113408Y-80658133D01*
X111113408Y-80658133D02*
X111065789Y-80753371D01*
X111065789Y-80753371D02*
X111018170Y-80800990D01*
X111018170Y-80800990D02*
X110922932Y-80848609D01*
X110922932Y-80848609D02*
X110589599Y-80848609D01*
X111732456Y-81372419D02*
X111637218Y-81324800D01*
X111637218Y-81324800D02*
X111589599Y-81229561D01*
X111589599Y-81229561D02*
X111589599Y-80372419D01*
X112113409Y-81372419D02*
X112113409Y-80705752D01*
X112113409Y-80372419D02*
X112065790Y-80420038D01*
X112065790Y-80420038D02*
X112113409Y-80467657D01*
X112113409Y-80467657D02*
X112161028Y-80420038D01*
X112161028Y-80420038D02*
X112113409Y-80372419D01*
X112113409Y-80372419D02*
X112113409Y-80467657D01*
X112589599Y-81372419D02*
X112589599Y-80705752D01*
X112589599Y-80800990D02*
X112637218Y-80753371D01*
X112637218Y-80753371D02*
X112732456Y-80705752D01*
X112732456Y-80705752D02*
X112875313Y-80705752D01*
X112875313Y-80705752D02*
X112970551Y-80753371D01*
X112970551Y-80753371D02*
X113018170Y-80848609D01*
X113018170Y-80848609D02*
X113018170Y-81372419D01*
X113018170Y-80848609D02*
X113065789Y-80753371D01*
X113065789Y-80753371D02*
X113161027Y-80705752D01*
X113161027Y-80705752D02*
X113303884Y-80705752D01*
X113303884Y-80705752D02*
X113399123Y-80753371D01*
X113399123Y-80753371D02*
X113446742Y-80848609D01*
X113446742Y-80848609D02*
X113446742Y-81372419D01*
X113922932Y-80705752D02*
X113922932Y-81705752D01*
X113922932Y-80753371D02*
X114018170Y-80705752D01*
X114018170Y-80705752D02*
X114208646Y-80705752D01*
X114208646Y-80705752D02*
X114303884Y-80753371D01*
X114303884Y-80753371D02*
X114351503Y-80800990D01*
X114351503Y-80800990D02*
X114399122Y-80896228D01*
X114399122Y-80896228D02*
X114399122Y-81181942D01*
X114399122Y-81181942D02*
X114351503Y-81277180D01*
X114351503Y-81277180D02*
X114303884Y-81324800D01*
X114303884Y-81324800D02*
X114208646Y-81372419D01*
X114208646Y-81372419D02*
X114018170Y-81372419D01*
X114018170Y-81372419D02*
X113922932Y-81324800D01*
X115589599Y-81372419D02*
X115589599Y-80372419D01*
X115589599Y-80372419D02*
X115970551Y-80372419D01*
X115970551Y-80372419D02*
X116065789Y-80420038D01*
X116065789Y-80420038D02*
X116113408Y-80467657D01*
X116113408Y-80467657D02*
X116161027Y-80562895D01*
X116161027Y-80562895D02*
X116161027Y-80705752D01*
X116161027Y-80705752D02*
X116113408Y-80800990D01*
X116113408Y-80800990D02*
X116065789Y-80848609D01*
X116065789Y-80848609D02*
X115970551Y-80896228D01*
X115970551Y-80896228D02*
X115589599Y-80896228D01*
X117161027Y-81277180D02*
X117113408Y-81324800D01*
X117113408Y-81324800D02*
X116970551Y-81372419D01*
X116970551Y-81372419D02*
X116875313Y-81372419D01*
X116875313Y-81372419D02*
X116732456Y-81324800D01*
X116732456Y-81324800D02*
X116637218Y-81229561D01*
X116637218Y-81229561D02*
X116589599Y-81134323D01*
X116589599Y-81134323D02*
X116541980Y-80943847D01*
X116541980Y-80943847D02*
X116541980Y-80800990D01*
X116541980Y-80800990D02*
X116589599Y-80610514D01*
X116589599Y-80610514D02*
X116637218Y-80515276D01*
X116637218Y-80515276D02*
X116732456Y-80420038D01*
X116732456Y-80420038D02*
X116875313Y-80372419D01*
X116875313Y-80372419D02*
X116970551Y-80372419D01*
X116970551Y-80372419D02*
X117113408Y-80420038D01*
X117113408Y-80420038D02*
X117161027Y-80467657D01*
X117922932Y-80848609D02*
X118065789Y-80896228D01*
X118065789Y-80896228D02*
X118113408Y-80943847D01*
X118113408Y-80943847D02*
X118161027Y-81039085D01*
X118161027Y-81039085D02*
X118161027Y-81181942D01*
X118161027Y-81181942D02*
X118113408Y-81277180D01*
X118113408Y-81277180D02*
X118065789Y-81324800D01*
X118065789Y-81324800D02*
X117970551Y-81372419D01*
X117970551Y-81372419D02*
X117589599Y-81372419D01*
X117589599Y-81372419D02*
X117589599Y-80372419D01*
X117589599Y-80372419D02*
X117922932Y-80372419D01*
X117922932Y-80372419D02*
X118018170Y-80420038D01*
X118018170Y-80420038D02*
X118065789Y-80467657D01*
X118065789Y-80467657D02*
X118113408Y-80562895D01*
X118113408Y-80562895D02*
X118113408Y-80658133D01*
X118113408Y-80658133D02*
X118065789Y-80753371D01*
X118065789Y-80753371D02*
X118018170Y-80800990D01*
X118018170Y-80800990D02*
X117922932Y-80848609D01*
X117922932Y-80848609D02*
X117589599Y-80848609D01*
X106494360Y-82872419D02*
X106494360Y-81872419D01*
X106494360Y-81872419D02*
X107065788Y-82872419D01*
X107065788Y-82872419D02*
X107065788Y-81872419D01*
X107970550Y-82872419D02*
X107970550Y-82348609D01*
X107970550Y-82348609D02*
X107922931Y-82253371D01*
X107922931Y-82253371D02*
X107827693Y-82205752D01*
X107827693Y-82205752D02*
X107637217Y-82205752D01*
X107637217Y-82205752D02*
X107541979Y-82253371D01*
X107970550Y-82824800D02*
X107875312Y-82872419D01*
X107875312Y-82872419D02*
X107637217Y-82872419D01*
X107637217Y-82872419D02*
X107541979Y-82824800D01*
X107541979Y-82824800D02*
X107494360Y-82729561D01*
X107494360Y-82729561D02*
X107494360Y-82634323D01*
X107494360Y-82634323D02*
X107541979Y-82539085D01*
X107541979Y-82539085D02*
X107637217Y-82491466D01*
X107637217Y-82491466D02*
X107875312Y-82491466D01*
X107875312Y-82491466D02*
X107970550Y-82443847D01*
X108303884Y-82205752D02*
X108684836Y-82205752D01*
X108446741Y-81872419D02*
X108446741Y-82729561D01*
X108446741Y-82729561D02*
X108494360Y-82824800D01*
X108494360Y-82824800D02*
X108589598Y-82872419D01*
X108589598Y-82872419D02*
X108684836Y-82872419D01*
X109399122Y-82824800D02*
X109303884Y-82872419D01*
X109303884Y-82872419D02*
X109113408Y-82872419D01*
X109113408Y-82872419D02*
X109018170Y-82824800D01*
X109018170Y-82824800D02*
X108970551Y-82729561D01*
X108970551Y-82729561D02*
X108970551Y-82348609D01*
X108970551Y-82348609D02*
X109018170Y-82253371D01*
X109018170Y-82253371D02*
X109113408Y-82205752D01*
X109113408Y-82205752D02*
X109303884Y-82205752D01*
X109303884Y-82205752D02*
X109399122Y-82253371D01*
X109399122Y-82253371D02*
X109446741Y-82348609D01*
X109446741Y-82348609D02*
X109446741Y-82443847D01*
X109446741Y-82443847D02*
X108970551Y-82539085D01*
X110637218Y-82872419D02*
X110637218Y-81872419D01*
X110637218Y-81872419D02*
X110875313Y-81872419D01*
X110875313Y-81872419D02*
X111018170Y-81920038D01*
X111018170Y-81920038D02*
X111113408Y-82015276D01*
X111113408Y-82015276D02*
X111161027Y-82110514D01*
X111161027Y-82110514D02*
X111208646Y-82300990D01*
X111208646Y-82300990D02*
X111208646Y-82443847D01*
X111208646Y-82443847D02*
X111161027Y-82634323D01*
X111161027Y-82634323D02*
X111113408Y-82729561D01*
X111113408Y-82729561D02*
X111018170Y-82824800D01*
X111018170Y-82824800D02*
X110875313Y-82872419D01*
X110875313Y-82872419D02*
X110637218Y-82872419D01*
X111637218Y-82872419D02*
X111637218Y-82205752D01*
X111637218Y-81872419D02*
X111589599Y-81920038D01*
X111589599Y-81920038D02*
X111637218Y-81967657D01*
X111637218Y-81967657D02*
X111684837Y-81920038D01*
X111684837Y-81920038D02*
X111637218Y-81872419D01*
X111637218Y-81872419D02*
X111637218Y-81967657D01*
X112541979Y-82824800D02*
X112446741Y-82872419D01*
X112446741Y-82872419D02*
X112256265Y-82872419D01*
X112256265Y-82872419D02*
X112161027Y-82824800D01*
X112161027Y-82824800D02*
X112113408Y-82777180D01*
X112113408Y-82777180D02*
X112065789Y-82681942D01*
X112065789Y-82681942D02*
X112065789Y-82396228D01*
X112065789Y-82396228D02*
X112113408Y-82300990D01*
X112113408Y-82300990D02*
X112161027Y-82253371D01*
X112161027Y-82253371D02*
X112256265Y-82205752D01*
X112256265Y-82205752D02*
X112446741Y-82205752D01*
X112446741Y-82205752D02*
X112541979Y-82253371D01*
X112970551Y-82872419D02*
X112970551Y-81872419D01*
X113065789Y-82491466D02*
X113351503Y-82872419D01*
X113351503Y-82205752D02*
X112970551Y-82586704D01*
X114161027Y-82824800D02*
X114065789Y-82872419D01*
X114065789Y-82872419D02*
X113875313Y-82872419D01*
X113875313Y-82872419D02*
X113780075Y-82824800D01*
X113780075Y-82824800D02*
X113732456Y-82729561D01*
X113732456Y-82729561D02*
X113732456Y-82348609D01*
X113732456Y-82348609D02*
X113780075Y-82253371D01*
X113780075Y-82253371D02*
X113875313Y-82205752D01*
X113875313Y-82205752D02*
X114065789Y-82205752D01*
X114065789Y-82205752D02*
X114161027Y-82253371D01*
X114161027Y-82253371D02*
X114208646Y-82348609D01*
X114208646Y-82348609D02*
X114208646Y-82443847D01*
X114208646Y-82443847D02*
X113732456Y-82539085D01*
X114541980Y-82205752D02*
X114780075Y-82872419D01*
X115018170Y-82205752D02*
X114780075Y-82872419D01*
X114780075Y-82872419D02*
X114684837Y-83110514D01*
X114684837Y-83110514D02*
X114637218Y-83158133D01*
X114637218Y-83158133D02*
X114541980Y-83205752D01*
D11*
X112333333Y-120359580D02*
X112285714Y-120407200D01*
X112285714Y-120407200D02*
X112142857Y-120454819D01*
X112142857Y-120454819D02*
X112047619Y-120454819D01*
X112047619Y-120454819D02*
X111904762Y-120407200D01*
X111904762Y-120407200D02*
X111809524Y-120311961D01*
X111809524Y-120311961D02*
X111761905Y-120216723D01*
X111761905Y-120216723D02*
X111714286Y-120026247D01*
X111714286Y-120026247D02*
X111714286Y-119883390D01*
X111714286Y-119883390D02*
X111761905Y-119692914D01*
X111761905Y-119692914D02*
X111809524Y-119597676D01*
X111809524Y-119597676D02*
X111904762Y-119502438D01*
X111904762Y-119502438D02*
X112047619Y-119454819D01*
X112047619Y-119454819D02*
X112142857Y-119454819D01*
X112142857Y-119454819D02*
X112285714Y-119502438D01*
X112285714Y-119502438D02*
X112333333Y-119550057D01*
X113190476Y-119788152D02*
X113190476Y-120454819D01*
X112952381Y-119407200D02*
X112714286Y-120121485D01*
X112714286Y-120121485D02*
X113333333Y-120121485D01*
D10*
X113261905Y-123957419D02*
X113261905Y-122957419D01*
X113261905Y-122957419D02*
X113642857Y-122957419D01*
X113642857Y-122957419D02*
X113738095Y-123005038D01*
X113738095Y-123005038D02*
X113785714Y-123052657D01*
X113785714Y-123052657D02*
X113833333Y-123147895D01*
X113833333Y-123147895D02*
X113833333Y-123290752D01*
X113833333Y-123290752D02*
X113785714Y-123385990D01*
X113785714Y-123385990D02*
X113738095Y-123433609D01*
X113738095Y-123433609D02*
X113642857Y-123481228D01*
X113642857Y-123481228D02*
X113261905Y-123481228D01*
X114404762Y-123385990D02*
X114309524Y-123338371D01*
X114309524Y-123338371D02*
X114261905Y-123290752D01*
X114261905Y-123290752D02*
X114214286Y-123195514D01*
X114214286Y-123195514D02*
X114214286Y-123147895D01*
X114214286Y-123147895D02*
X114261905Y-123052657D01*
X114261905Y-123052657D02*
X114309524Y-123005038D01*
X114309524Y-123005038D02*
X114404762Y-122957419D01*
X114404762Y-122957419D02*
X114595238Y-122957419D01*
X114595238Y-122957419D02*
X114690476Y-123005038D01*
X114690476Y-123005038D02*
X114738095Y-123052657D01*
X114738095Y-123052657D02*
X114785714Y-123147895D01*
X114785714Y-123147895D02*
X114785714Y-123195514D01*
X114785714Y-123195514D02*
X114738095Y-123290752D01*
X114738095Y-123290752D02*
X114690476Y-123338371D01*
X114690476Y-123338371D02*
X114595238Y-123385990D01*
X114595238Y-123385990D02*
X114404762Y-123385990D01*
X114404762Y-123385990D02*
X114309524Y-123433609D01*
X114309524Y-123433609D02*
X114261905Y-123481228D01*
X114261905Y-123481228D02*
X114214286Y-123576466D01*
X114214286Y-123576466D02*
X114214286Y-123766942D01*
X114214286Y-123766942D02*
X114261905Y-123862180D01*
X114261905Y-123862180D02*
X114309524Y-123909800D01*
X114309524Y-123909800D02*
X114404762Y-123957419D01*
X114404762Y-123957419D02*
X114595238Y-123957419D01*
X114595238Y-123957419D02*
X114690476Y-123909800D01*
X114690476Y-123909800D02*
X114738095Y-123862180D01*
X114738095Y-123862180D02*
X114785714Y-123766942D01*
X114785714Y-123766942D02*
X114785714Y-123576466D01*
X114785714Y-123576466D02*
X114738095Y-123481228D01*
X114738095Y-123481228D02*
X114690476Y-123433609D01*
X114690476Y-123433609D02*
X114595238Y-123385990D01*
X200761905Y-71957419D02*
X200761905Y-70957419D01*
X200761905Y-70957419D02*
X201142857Y-70957419D01*
X201142857Y-70957419D02*
X201238095Y-71005038D01*
X201238095Y-71005038D02*
X201285714Y-71052657D01*
X201285714Y-71052657D02*
X201333333Y-71147895D01*
X201333333Y-71147895D02*
X201333333Y-71290752D01*
X201333333Y-71290752D02*
X201285714Y-71385990D01*
X201285714Y-71385990D02*
X201238095Y-71433609D01*
X201238095Y-71433609D02*
X201142857Y-71481228D01*
X201142857Y-71481228D02*
X200761905Y-71481228D01*
X201714286Y-71052657D02*
X201761905Y-71005038D01*
X201761905Y-71005038D02*
X201857143Y-70957419D01*
X201857143Y-70957419D02*
X202095238Y-70957419D01*
X202095238Y-70957419D02*
X202190476Y-71005038D01*
X202190476Y-71005038D02*
X202238095Y-71052657D01*
X202238095Y-71052657D02*
X202285714Y-71147895D01*
X202285714Y-71147895D02*
X202285714Y-71243133D01*
X202285714Y-71243133D02*
X202238095Y-71385990D01*
X202238095Y-71385990D02*
X201666667Y-71957419D01*
X201666667Y-71957419D02*
X202285714Y-71957419D01*
X200761905Y-128957419D02*
X200761905Y-127957419D01*
X200761905Y-127957419D02*
X201142857Y-127957419D01*
X201142857Y-127957419D02*
X201238095Y-128005038D01*
X201238095Y-128005038D02*
X201285714Y-128052657D01*
X201285714Y-128052657D02*
X201333333Y-128147895D01*
X201333333Y-128147895D02*
X201333333Y-128290752D01*
X201333333Y-128290752D02*
X201285714Y-128385990D01*
X201285714Y-128385990D02*
X201238095Y-128433609D01*
X201238095Y-128433609D02*
X201142857Y-128481228D01*
X201142857Y-128481228D02*
X200761905Y-128481228D01*
X202238095Y-127957419D02*
X201761905Y-127957419D01*
X201761905Y-127957419D02*
X201714286Y-128433609D01*
X201714286Y-128433609D02*
X201761905Y-128385990D01*
X201761905Y-128385990D02*
X201857143Y-128338371D01*
X201857143Y-128338371D02*
X202095238Y-128338371D01*
X202095238Y-128338371D02*
X202190476Y-128385990D01*
X202190476Y-128385990D02*
X202238095Y-128433609D01*
X202238095Y-128433609D02*
X202285714Y-128528847D01*
X202285714Y-128528847D02*
X202285714Y-128766942D01*
X202285714Y-128766942D02*
X202238095Y-128862180D01*
X202238095Y-128862180D02*
X202190476Y-128909800D01*
X202190476Y-128909800D02*
X202095238Y-128957419D01*
X202095238Y-128957419D02*
X201857143Y-128957419D01*
X201857143Y-128957419D02*
X201761905Y-128909800D01*
X201761905Y-128909800D02*
X201714286Y-128862180D01*
D11*
X201333333Y-125359580D02*
X201285714Y-125407200D01*
X201285714Y-125407200D02*
X201142857Y-125454819D01*
X201142857Y-125454819D02*
X201047619Y-125454819D01*
X201047619Y-125454819D02*
X200904762Y-125407200D01*
X200904762Y-125407200D02*
X200809524Y-125311961D01*
X200809524Y-125311961D02*
X200761905Y-125216723D01*
X200761905Y-125216723D02*
X200714286Y-125026247D01*
X200714286Y-125026247D02*
X200714286Y-124883390D01*
X200714286Y-124883390D02*
X200761905Y-124692914D01*
X200761905Y-124692914D02*
X200809524Y-124597676D01*
X200809524Y-124597676D02*
X200904762Y-124502438D01*
X200904762Y-124502438D02*
X201047619Y-124454819D01*
X201047619Y-124454819D02*
X201142857Y-124454819D01*
X201142857Y-124454819D02*
X201285714Y-124502438D01*
X201285714Y-124502438D02*
X201333333Y-124550057D01*
X201666667Y-124454819D02*
X202285714Y-124454819D01*
X202285714Y-124454819D02*
X201952381Y-124835771D01*
X201952381Y-124835771D02*
X202095238Y-124835771D01*
X202095238Y-124835771D02*
X202190476Y-124883390D01*
X202190476Y-124883390D02*
X202238095Y-124931009D01*
X202238095Y-124931009D02*
X202285714Y-125026247D01*
X202285714Y-125026247D02*
X202285714Y-125264342D01*
X202285714Y-125264342D02*
X202238095Y-125359580D01*
X202238095Y-125359580D02*
X202190476Y-125407200D01*
X202190476Y-125407200D02*
X202095238Y-125454819D01*
X202095238Y-125454819D02*
X201809524Y-125454819D01*
X201809524Y-125454819D02*
X201714286Y-125407200D01*
X201714286Y-125407200D02*
X201666667Y-125359580D01*
D10*
X151166666Y-121457419D02*
X151166666Y-122171704D01*
X151166666Y-122171704D02*
X151119047Y-122314561D01*
X151119047Y-122314561D02*
X151023809Y-122409800D01*
X151023809Y-122409800D02*
X150880952Y-122457419D01*
X150880952Y-122457419D02*
X150785714Y-122457419D01*
X152166666Y-122457419D02*
X151595238Y-122457419D01*
X151880952Y-122457419D02*
X151880952Y-121457419D01*
X151880952Y-121457419D02*
X151785714Y-121600276D01*
X151785714Y-121600276D02*
X151690476Y-121695514D01*
X151690476Y-121695514D02*
X151595238Y-121743133D01*
X143432195Y-99627619D02*
X143432195Y-100437142D01*
X143432195Y-100437142D02*
X143479814Y-100532380D01*
X143479814Y-100532380D02*
X143527433Y-100580000D01*
X143527433Y-100580000D02*
X143622671Y-100627619D01*
X143622671Y-100627619D02*
X143813147Y-100627619D01*
X143813147Y-100627619D02*
X143908385Y-100580000D01*
X143908385Y-100580000D02*
X143956004Y-100532380D01*
X143956004Y-100532380D02*
X144003623Y-100437142D01*
X144003623Y-100437142D02*
X144003623Y-99627619D01*
X144432195Y-99722857D02*
X144479814Y-99675238D01*
X144479814Y-99675238D02*
X144575052Y-99627619D01*
X144575052Y-99627619D02*
X144813147Y-99627619D01*
X144813147Y-99627619D02*
X144908385Y-99675238D01*
X144908385Y-99675238D02*
X144956004Y-99722857D01*
X144956004Y-99722857D02*
X145003623Y-99818095D01*
X145003623Y-99818095D02*
X145003623Y-99913333D01*
X145003623Y-99913333D02*
X144956004Y-100056190D01*
X144956004Y-100056190D02*
X144384576Y-100627619D01*
X144384576Y-100627619D02*
X145003623Y-100627619D01*
X140166666Y-76957419D02*
X140166666Y-77671704D01*
X140166666Y-77671704D02*
X140119047Y-77814561D01*
X140119047Y-77814561D02*
X140023809Y-77909800D01*
X140023809Y-77909800D02*
X139880952Y-77957419D01*
X139880952Y-77957419D02*
X139785714Y-77957419D01*
X140595238Y-77052657D02*
X140642857Y-77005038D01*
X140642857Y-77005038D02*
X140738095Y-76957419D01*
X140738095Y-76957419D02*
X140976190Y-76957419D01*
X140976190Y-76957419D02*
X141071428Y-77005038D01*
X141071428Y-77005038D02*
X141119047Y-77052657D01*
X141119047Y-77052657D02*
X141166666Y-77147895D01*
X141166666Y-77147895D02*
X141166666Y-77243133D01*
X141166666Y-77243133D02*
X141119047Y-77385990D01*
X141119047Y-77385990D02*
X140547619Y-77957419D01*
X140547619Y-77957419D02*
X141166666Y-77957419D01*
X194001905Y-93457419D02*
X194001905Y-92457419D01*
X194001905Y-92457419D02*
X194382857Y-92457419D01*
X194382857Y-92457419D02*
X194478095Y-92505038D01*
X194478095Y-92505038D02*
X194525714Y-92552657D01*
X194525714Y-92552657D02*
X194573333Y-92647895D01*
X194573333Y-92647895D02*
X194573333Y-92790752D01*
X194573333Y-92790752D02*
X194525714Y-92885990D01*
X194525714Y-92885990D02*
X194478095Y-92933609D01*
X194478095Y-92933609D02*
X194382857Y-92981228D01*
X194382857Y-92981228D02*
X194001905Y-92981228D01*
X195525714Y-93457419D02*
X194954286Y-93457419D01*
X195240000Y-93457419D02*
X195240000Y-92457419D01*
X195240000Y-92457419D02*
X195144762Y-92600276D01*
X195144762Y-92600276D02*
X195049524Y-92695514D01*
X195049524Y-92695514D02*
X194954286Y-92743133D01*
X194261905Y-107457419D02*
X194261905Y-106457419D01*
X194261905Y-106457419D02*
X194642857Y-106457419D01*
X194642857Y-106457419D02*
X194738095Y-106505038D01*
X194738095Y-106505038D02*
X194785714Y-106552657D01*
X194785714Y-106552657D02*
X194833333Y-106647895D01*
X194833333Y-106647895D02*
X194833333Y-106790752D01*
X194833333Y-106790752D02*
X194785714Y-106885990D01*
X194785714Y-106885990D02*
X194738095Y-106933609D01*
X194738095Y-106933609D02*
X194642857Y-106981228D01*
X194642857Y-106981228D02*
X194261905Y-106981228D01*
X195166667Y-106457419D02*
X195785714Y-106457419D01*
X195785714Y-106457419D02*
X195452381Y-106838371D01*
X195452381Y-106838371D02*
X195595238Y-106838371D01*
X195595238Y-106838371D02*
X195690476Y-106885990D01*
X195690476Y-106885990D02*
X195738095Y-106933609D01*
X195738095Y-106933609D02*
X195785714Y-107028847D01*
X195785714Y-107028847D02*
X195785714Y-107266942D01*
X195785714Y-107266942D02*
X195738095Y-107362180D01*
X195738095Y-107362180D02*
X195690476Y-107409800D01*
X195690476Y-107409800D02*
X195595238Y-107457419D01*
X195595238Y-107457419D02*
X195309524Y-107457419D01*
X195309524Y-107457419D02*
X195214286Y-107409800D01*
X195214286Y-107409800D02*
X195166667Y-107362180D01*
X200761905Y-80457419D02*
X200761905Y-79457419D01*
X200761905Y-79457419D02*
X201142857Y-79457419D01*
X201142857Y-79457419D02*
X201238095Y-79505038D01*
X201238095Y-79505038D02*
X201285714Y-79552657D01*
X201285714Y-79552657D02*
X201333333Y-79647895D01*
X201333333Y-79647895D02*
X201333333Y-79790752D01*
X201333333Y-79790752D02*
X201285714Y-79885990D01*
X201285714Y-79885990D02*
X201238095Y-79933609D01*
X201238095Y-79933609D02*
X201142857Y-79981228D01*
X201142857Y-79981228D02*
X200761905Y-79981228D01*
X201666667Y-79457419D02*
X202333333Y-79457419D01*
X202333333Y-79457419D02*
X201904762Y-80457419D01*
X163761905Y-71957419D02*
X163761905Y-70957419D01*
X163761905Y-70957419D02*
X164142857Y-70957419D01*
X164142857Y-70957419D02*
X164238095Y-71005038D01*
X164238095Y-71005038D02*
X164285714Y-71052657D01*
X164285714Y-71052657D02*
X164333333Y-71147895D01*
X164333333Y-71147895D02*
X164333333Y-71290752D01*
X164333333Y-71290752D02*
X164285714Y-71385990D01*
X164285714Y-71385990D02*
X164238095Y-71433609D01*
X164238095Y-71433609D02*
X164142857Y-71481228D01*
X164142857Y-71481228D02*
X163761905Y-71481228D01*
X165190476Y-71290752D02*
X165190476Y-71957419D01*
X164952381Y-70909800D02*
X164714286Y-71624085D01*
X164714286Y-71624085D02*
X165333333Y-71624085D01*
X200761905Y-120457419D02*
X200761905Y-119457419D01*
X200761905Y-119457419D02*
X201142857Y-119457419D01*
X201142857Y-119457419D02*
X201238095Y-119505038D01*
X201238095Y-119505038D02*
X201285714Y-119552657D01*
X201285714Y-119552657D02*
X201333333Y-119647895D01*
X201333333Y-119647895D02*
X201333333Y-119790752D01*
X201333333Y-119790752D02*
X201285714Y-119885990D01*
X201285714Y-119885990D02*
X201238095Y-119933609D01*
X201238095Y-119933609D02*
X201142857Y-119981228D01*
X201142857Y-119981228D02*
X200761905Y-119981228D01*
X202190476Y-119457419D02*
X202000000Y-119457419D01*
X202000000Y-119457419D02*
X201904762Y-119505038D01*
X201904762Y-119505038D02*
X201857143Y-119552657D01*
X201857143Y-119552657D02*
X201761905Y-119695514D01*
X201761905Y-119695514D02*
X201714286Y-119885990D01*
X201714286Y-119885990D02*
X201714286Y-120266942D01*
X201714286Y-120266942D02*
X201761905Y-120362180D01*
X201761905Y-120362180D02*
X201809524Y-120409800D01*
X201809524Y-120409800D02*
X201904762Y-120457419D01*
X201904762Y-120457419D02*
X202095238Y-120457419D01*
X202095238Y-120457419D02*
X202190476Y-120409800D01*
X202190476Y-120409800D02*
X202238095Y-120362180D01*
X202238095Y-120362180D02*
X202285714Y-120266942D01*
X202285714Y-120266942D02*
X202285714Y-120028847D01*
X202285714Y-120028847D02*
X202238095Y-119933609D01*
X202238095Y-119933609D02*
X202190476Y-119885990D01*
X202190476Y-119885990D02*
X202095238Y-119838371D01*
X202095238Y-119838371D02*
X201904762Y-119838371D01*
X201904762Y-119838371D02*
X201809524Y-119885990D01*
X201809524Y-119885990D02*
X201761905Y-119933609D01*
X201761905Y-119933609D02*
X201714286Y-120028847D01*
D11*
X164333333Y-75359580D02*
X164285714Y-75407200D01*
X164285714Y-75407200D02*
X164142857Y-75454819D01*
X164142857Y-75454819D02*
X164047619Y-75454819D01*
X164047619Y-75454819D02*
X163904762Y-75407200D01*
X163904762Y-75407200D02*
X163809524Y-75311961D01*
X163809524Y-75311961D02*
X163761905Y-75216723D01*
X163761905Y-75216723D02*
X163714286Y-75026247D01*
X163714286Y-75026247D02*
X163714286Y-74883390D01*
X163714286Y-74883390D02*
X163761905Y-74692914D01*
X163761905Y-74692914D02*
X163809524Y-74597676D01*
X163809524Y-74597676D02*
X163904762Y-74502438D01*
X163904762Y-74502438D02*
X164047619Y-74454819D01*
X164047619Y-74454819D02*
X164142857Y-74454819D01*
X164142857Y-74454819D02*
X164285714Y-74502438D01*
X164285714Y-74502438D02*
X164333333Y-74550057D01*
X164714286Y-74550057D02*
X164761905Y-74502438D01*
X164761905Y-74502438D02*
X164857143Y-74454819D01*
X164857143Y-74454819D02*
X165095238Y-74454819D01*
X165095238Y-74454819D02*
X165190476Y-74502438D01*
X165190476Y-74502438D02*
X165238095Y-74550057D01*
X165238095Y-74550057D02*
X165285714Y-74645295D01*
X165285714Y-74645295D02*
X165285714Y-74740533D01*
X165285714Y-74740533D02*
X165238095Y-74883390D01*
X165238095Y-74883390D02*
X164666667Y-75454819D01*
X164666667Y-75454819D02*
X165285714Y-75454819D01*
X201333333Y-75359580D02*
X201285714Y-75407200D01*
X201285714Y-75407200D02*
X201142857Y-75454819D01*
X201142857Y-75454819D02*
X201047619Y-75454819D01*
X201047619Y-75454819D02*
X200904762Y-75407200D01*
X200904762Y-75407200D02*
X200809524Y-75311961D01*
X200809524Y-75311961D02*
X200761905Y-75216723D01*
X200761905Y-75216723D02*
X200714286Y-75026247D01*
X200714286Y-75026247D02*
X200714286Y-74883390D01*
X200714286Y-74883390D02*
X200761905Y-74692914D01*
X200761905Y-74692914D02*
X200809524Y-74597676D01*
X200809524Y-74597676D02*
X200904762Y-74502438D01*
X200904762Y-74502438D02*
X201047619Y-74454819D01*
X201047619Y-74454819D02*
X201142857Y-74454819D01*
X201142857Y-74454819D02*
X201285714Y-74502438D01*
X201285714Y-74502438D02*
X201333333Y-74550057D01*
X202285714Y-75454819D02*
X201714286Y-75454819D01*
X202000000Y-75454819D02*
X202000000Y-74454819D01*
X202000000Y-74454819D02*
X201904762Y-74597676D01*
X201904762Y-74597676D02*
X201809524Y-74692914D01*
X201809524Y-74692914D02*
X201714286Y-74740533D01*
D12*
%TO.C,C4*%
X108991233Y-119490000D02*
X109283767Y-119490000D01*
X108991233Y-120510000D02*
X109283767Y-120510000D01*
%TO.C,P8*%
D10*
X106230000Y-122000000D02*
X112230000Y-122000000D01*
X112230000Y-125000000D01*
X106230000Y-125000000D01*
X106230000Y-122000000D01*
%TO.C,P2*%
X191960000Y-70000000D02*
X199960000Y-70000000D01*
X199960000Y-73000000D01*
X191960000Y-73000000D01*
X191960000Y-70000000D01*
%TO.C,P5*%
X191960000Y-127000000D02*
X199960000Y-127000000D01*
X199960000Y-130000000D01*
X191960000Y-130000000D01*
X191960000Y-127000000D01*
D12*
%TO.C,C3*%
X197491233Y-124490000D02*
X197783767Y-124490000D01*
X197491233Y-125510000D02*
X197783767Y-125510000D01*
%TO.C,J1*%
D10*
X143500000Y-123000000D02*
X159500000Y-123000000D01*
X159500000Y-125000000D01*
X143500000Y-125000000D01*
X143500000Y-123000000D01*
%TO.C,U2*%
X125360000Y-87140000D02*
X125360000Y-113200400D01*
X125360000Y-87140000D02*
X163028200Y-87140000D01*
X125360000Y-113200400D02*
X163028200Y-113200400D01*
X163028200Y-87140000D02*
X163028200Y-113140000D01*
%TO.C,J2*%
X133000000Y-76500000D02*
X139000000Y-76500000D01*
X139000000Y-78500000D01*
X133000000Y-78500000D01*
X133000000Y-76500000D01*
%TO.C,P1*%
X178240000Y-96500000D02*
X211240000Y-96500000D01*
X211240000Y-99500000D01*
X178240000Y-99500000D01*
X178240000Y-96500000D01*
%TO.C,P3*%
X178240000Y-100600000D02*
X211240000Y-100600000D01*
X211240000Y-103600000D01*
X178240000Y-103600000D01*
X178240000Y-100600000D01*
%TO.C,P7*%
X193730000Y-78500000D02*
X199730000Y-78500000D01*
X199730000Y-81500000D01*
X193730000Y-81500000D01*
X193730000Y-78500000D01*
%TO.C,P4*%
X154960000Y-70000000D02*
X162960000Y-70000000D01*
X162960000Y-73000000D01*
X154960000Y-73000000D01*
X154960000Y-70000000D01*
%TO.C,P6*%
X194000000Y-118500000D02*
X200000000Y-118500000D01*
X200000000Y-121500000D01*
X194000000Y-121500000D01*
X194000000Y-118500000D01*
D12*
%TO.C,C2*%
X160353733Y-74490000D02*
X160646267Y-74490000D01*
X160353733Y-75510000D02*
X160646267Y-75510000D01*
%TO.C,C1*%
X197353733Y-74490000D02*
X197646267Y-74490000D01*
X197353733Y-75510000D02*
X197646267Y-75510000D01*
%TD*%
M02*
