%TF.GenerationSoftware,KiCad,Pcbnew,8.0.3-8.0.3-0~ubuntu22.04.1*%
%TF.CreationDate,2024-06-20T14:09:42-04:00*%
%TF.ProjectId,Blimp_PCB_V1,426c696d-705f-4504-9342-5f56312e6b69,rev?*%
%TF.SameCoordinates,Original*%
%TF.FileFunction,Copper,L1,Top*%
%TF.FilePolarity,Positive*%
%FSLAX46Y46*%
G04 Gerber Fmt 4.6, Leading zero omitted, Abs format (unit mm)*
G04 Created by KiCad (PCBNEW 8.0.3-8.0.3-0~ubuntu22.04.1) date 2024-06-20 14:09:42*
%MOMM*%
%LPD*%
G01*
G04 APERTURE LIST*
G04 Aperture macros list*
%AMRoundRect*
0 Rectangle with rounded corners*
0 $1 Rounding radius*
0 $2 $3 $4 $5 $6 $7 $8 $9 X,Y pos of 4 corners*
0 Add a 4 corners polygon primitive as box body*
4,1,4,$2,$3,$4,$5,$6,$7,$8,$9,$2,$3,0*
0 Add four circle primitives for the rounded corners*
1,1,$1+$1,$2,$3*
1,1,$1+$1,$4,$5*
1,1,$1+$1,$6,$7*
1,1,$1+$1,$8,$9*
0 Add four rect primitives between the rounded corners*
20,1,$1+$1,$2,$3,$4,$5,0*
20,1,$1+$1,$4,$5,$6,$7,0*
20,1,$1+$1,$6,$7,$8,$9,0*
20,1,$1+$1,$8,$9,$2,$3,0*%
G04 Aperture macros list end*
%TA.AperFunction,ComponentPad*%
%ADD10C,3.210000*%
%TD*%
%TA.AperFunction,SMDPad,CuDef*%
%ADD11RoundRect,0.237500X-0.300000X-0.237500X0.300000X-0.237500X0.300000X0.237500X-0.300000X0.237500X0*%
%TD*%
%TA.AperFunction,ComponentPad*%
%ADD12C,1.830000*%
%TD*%
%TA.AperFunction,ComponentPad*%
%ADD13R,1.830000X1.830000*%
%TD*%
%TA.AperFunction,ComponentPad*%
%ADD14C,1.524000*%
%TD*%
%TA.AperFunction,ComponentPad*%
%ADD15C,1.810000*%
%TD*%
%TA.AperFunction,ComponentPad*%
%ADD16R,1.810000X1.810000*%
%TD*%
%TA.AperFunction,ComponentPad*%
%ADD17C,2.740000*%
%TD*%
%TA.AperFunction,ComponentPad*%
%ADD18R,2.740000X2.740000*%
%TD*%
%TA.AperFunction,ViaPad*%
%ADD19C,0.600000*%
%TD*%
%TA.AperFunction,Conductor*%
%ADD20C,0.200000*%
%TD*%
G04 APERTURE END LIST*
D10*
%TO.P,,1*%
%TO.N,N/C*%
X155500000Y-84500000D03*
%TD*%
%TO.P,,1*%
%TO.N,N/C*%
X155500000Y-115500000D03*
%TD*%
%TO.P,,1*%
%TO.N,N/C*%
X124500000Y-115500000D03*
%TD*%
%TO.P,,1*%
%TO.N,N/C*%
X124500000Y-84500000D03*
%TD*%
%TO.P,,1*%
%TO.N,N/C*%
X209500000Y-72000000D03*
%TD*%
%TO.P,,1*%
%TO.N,N/C*%
X209500000Y-128000000D03*
%TD*%
%TO.P,,1*%
%TO.N,N/C*%
X115500000Y-128000000D03*
%TD*%
%TO.P,REF\u002A\u002A,1*%
%TO.N,N/C*%
X115500000Y-72000000D03*
%TD*%
D11*
%TO.P,C4,1*%
%TO.N,+5V*%
X108275000Y-120000000D03*
%TO.P,C4,2*%
%TO.N,GND*%
X110000000Y-120000000D03*
%TD*%
D12*
%TO.P,P8,1,1*%
%TO.N,+5V*%
X107960000Y-123500000D03*
%TO.P,P8,2,2*%
%TO.N,GND*%
X110500000Y-123500000D03*
%TD*%
D13*
%TO.P,P2,1,PWM*%
%TO.N,Net-(P2-PWM)*%
X193420000Y-71500000D03*
D12*
%TO.P,P2,2,5V*%
%TO.N,+5V*%
X195960000Y-71500000D03*
%TO.P,P2,3,GND*%
%TO.N,GND*%
X198500000Y-71500000D03*
%TD*%
D13*
%TO.P,P5,1,PWM*%
%TO.N,Net-(P5-PWM)*%
X193420000Y-128500000D03*
D12*
%TO.P,P5,2,5V*%
%TO.N,+5V*%
X195960000Y-128500000D03*
%TO.P,P5,3,GND*%
%TO.N,GND*%
X198500000Y-128500000D03*
%TD*%
D11*
%TO.P,C3,1*%
%TO.N,+5V*%
X196775000Y-125000000D03*
%TO.P,C3,2*%
%TO.N,GND*%
X198500000Y-125000000D03*
%TD*%
D14*
%TO.P,J1,1,1*%
%TO.N,unconnected-(J1-Pad1)*%
X144500000Y-124000000D03*
%TO.P,J1,2,2*%
%TO.N,GND*%
X146500000Y-124000000D03*
%TO.P,J1,3,3*%
X148500000Y-124000000D03*
%TO.P,J1,4,4*%
%TO.N,unconnected-(J1-Pad4)*%
X150500000Y-124000000D03*
%TO.P,J1,5,5*%
%TO.N,Net-(J1-Pad5)*%
X152500000Y-124000000D03*
%TO.P,J1,6,6*%
%TO.N,Net-(J1-Pad6)*%
X154500000Y-124000000D03*
%TO.P,J1,7,7*%
%TO.N,Net-(J1-Pad7)*%
X156500000Y-124000000D03*
%TO.P,J1,8,8*%
%TO.N,Net-(J1-Pad8)*%
X158500000Y-124000000D03*
%TD*%
D15*
%TO.P,U2,1,5V*%
%TO.N,unconnected-(U2-5V-Pad1)*%
X155258200Y-88980000D03*
%TO.P,U2,2,SCL*%
%TO.N,unconnected-(U2-SCL-Pad2)*%
X152718200Y-88980000D03*
%TO.P,U2,3,SDA*%
%TO.N,unconnected-(U2-SDA-Pad3)*%
X150178200Y-88980000D03*
%TO.P,U2,4,GND*%
%TO.N,GND*%
X147638200Y-88980000D03*
%TO.P,U2,5,SCL*%
%TO.N,Net-(P1-Pad10)*%
X145098200Y-88980000D03*
%TO.P,U2,6,SDA*%
%TO.N,Net-(P1-Pad11)*%
X142558200Y-88980000D03*
D16*
%TO.P,U2,7,3.3V*%
%TO.N,+3.3V*%
X140018200Y-88980000D03*
D15*
%TO.P,U2,8,CS*%
%TO.N,unconnected-(U2-CS-Pad8)*%
X127200000Y-93640000D03*
%TO.P,U2,9,INT2*%
%TO.N,unconnected-(U2-INT2-Pad9)*%
X127200000Y-96180000D03*
%TO.P,U2,10,SPC*%
%TO.N,unconnected-(U2-SPC-Pad10)*%
X127200000Y-98720000D03*
%TO.P,U2,11,SDI*%
%TO.N,unconnected-(U2-SDI-Pad11)*%
X127200000Y-101260000D03*
%TO.P,U2,12,SD0*%
%TO.N,unconnected-(U2-SD0-Pad12)*%
X127200000Y-103800000D03*
D16*
%TO.P,U2,13,INT1*%
%TO.N,unconnected-(U2-INT1-Pad13)*%
X127200000Y-106340000D03*
%TO.P,U2,14,GND*%
%TO.N,unconnected-(U2-GND-Pad14)*%
X140018200Y-111360400D03*
D15*
%TO.P,U2,15,SD0*%
%TO.N,unconnected-(U2-SD0-Pad15)*%
X142558200Y-111360400D03*
%TO.P,U2,16,SPC*%
%TO.N,unconnected-(U2-SPC-Pad16)*%
X145098200Y-111360400D03*
%TO.P,U2,17,SDI*%
%TO.N,unconnected-(U2-SDI-Pad17)*%
X147638200Y-111360400D03*
%TO.P,U2,18,CS*%
%TO.N,unconnected-(U2-CS-Pad18)*%
X150178200Y-111360400D03*
%TO.P,U2,19,5V*%
%TO.N,unconnected-(U2-5V-Pad19)*%
X152718200Y-111360400D03*
%TO.P,U2,20*%
%TO.N,N/C*%
X155258200Y-111360400D03*
%TD*%
D14*
%TO.P,J2,1,1*%
%TO.N,+5V*%
X134000000Y-77500000D03*
%TO.P,J2,2,2*%
%TO.N,Net-(P6-Pad1)*%
X136000000Y-77500000D03*
%TO.P,J2,3,3*%
%TO.N,GND*%
X138000000Y-77500000D03*
%TD*%
D13*
%TO.P,P1,1,1*%
%TO.N,unconnected-(P1-Pad1)*%
X179500000Y-98000000D03*
%TO.P,P1,2,2*%
%TO.N,Net-(P5-PWM)*%
X182040000Y-98000000D03*
%TO.P,P1,3,3*%
%TO.N,unconnected-(P1-Pad3)*%
X184580000Y-98000000D03*
%TO.P,P1,4,4*%
%TO.N,Net-(P2-PWM)*%
X187120000Y-98000000D03*
%TO.P,P1,5,5*%
%TO.N,unconnected-(P1-Pad5)*%
X189660000Y-98000000D03*
%TO.P,P1,6,6*%
%TO.N,Net-(P4-PWM)*%
X192200000Y-98000000D03*
%TO.P,P1,7,7*%
%TO.N,unconnected-(P1-Pad7)*%
X194740000Y-98000000D03*
%TO.P,P1,8,8*%
%TO.N,Net-(J1-Pad5)*%
X197280000Y-98000000D03*
%TO.P,P1,9,9*%
%TO.N,unconnected-(P1-Pad9)*%
X199820000Y-98000000D03*
%TO.P,P1,10,10*%
%TO.N,Net-(P1-Pad10)*%
X202360000Y-98000000D03*
%TO.P,P1,11,11*%
%TO.N,Net-(P1-Pad11)*%
X204900000Y-98000000D03*
%TO.P,P1,12,12*%
%TO.N,unconnected-(P1-Pad12)*%
X207440000Y-98000000D03*
%TO.P,P1,13,13*%
%TO.N,unconnected-(P1-Pad13)*%
X209980000Y-98000000D03*
%TD*%
%TO.P,P3,1,1*%
%TO.N,unconnected-(P3-Pad1)*%
X179500000Y-102100000D03*
%TO.P,P3,2,2*%
%TO.N,unconnected-(P3-Pad2)*%
X182040000Y-102100000D03*
%TO.P,P3,3,3*%
%TO.N,unconnected-(P3-Pad3)*%
X184580000Y-102100000D03*
%TO.P,P3,4,4*%
%TO.N,unconnected-(P3-Pad4)*%
X187120000Y-102100000D03*
%TO.P,P3,5,5*%
%TO.N,unconnected-(P3-Pad5)*%
X189660000Y-102100000D03*
%TO.P,P3,6,6*%
%TO.N,unconnected-(P3-Pad6)*%
X192200000Y-102100000D03*
%TO.P,P3,7,7*%
%TO.N,unconnected-(P3-Pad7)*%
X194740000Y-102100000D03*
%TO.P,P3,8,8*%
%TO.N,unconnected-(P3-Pad8)*%
X197280000Y-102100000D03*
%TO.P,P3,9,9*%
%TO.N,Net-(J1-Pad6)*%
X199820000Y-102100000D03*
%TO.P,P3,10,10*%
%TO.N,unconnected-(P3-Pad10)*%
X202360000Y-102100000D03*
%TO.P,P3,11,11*%
%TO.N,unconnected-(P3-Pad11)*%
X204900000Y-102100000D03*
%TO.P,P3,12,12*%
%TO.N,unconnected-(P3-Pad12)*%
X207440000Y-102100000D03*
%TO.P,P3,13,13*%
%TO.N,Net-(J1-Pad7)*%
X209980000Y-102100000D03*
%TD*%
D12*
%TO.P,P7,2,2*%
%TO.N,Net-(P2-PWM)*%
X198000000Y-80000000D03*
%TO.P,P7,1,1*%
%TO.N,Net-(J1-Pad8)*%
X195460000Y-80000000D03*
%TD*%
D13*
%TO.P,P4,1,PWM*%
%TO.N,Net-(P4-PWM)*%
X156420000Y-71500000D03*
D12*
%TO.P,P4,2,5V*%
%TO.N,+5V*%
X158960000Y-71500000D03*
%TO.P,P4,3,GND*%
%TO.N,GND*%
X161500000Y-71500000D03*
%TD*%
%TO.P,P6,1,1*%
%TO.N,Net-(P6-Pad1)*%
X195730000Y-120000000D03*
%TO.P,P6,2,2*%
%TO.N,Net-(P5-PWM)*%
X198270000Y-120000000D03*
%TD*%
D11*
%TO.P,C2,1*%
%TO.N,+5V*%
X159637500Y-75000000D03*
%TO.P,C2,2*%
%TO.N,GND*%
X161362500Y-75000000D03*
%TD*%
D14*
%TO.P,REF\u002A\u002A,1*%
%TO.N,N/C*%
X104000000Y-105100000D03*
%TO.P,REF\u002A\u002A,2*%
X104000000Y-93900000D03*
D17*
%TO.P,REF\u002A\u002A,3*%
X113950000Y-102000000D03*
D18*
%TO.P,REF\u002A\u002A,4*%
X113950000Y-97000000D03*
%TD*%
D11*
%TO.P,C1,1*%
%TO.N,+5V*%
X196637500Y-75000000D03*
%TO.P,C1,2*%
%TO.N,GND*%
X198362500Y-75000000D03*
%TD*%
D19*
%TO.N,GND*%
X110500000Y-117500000D03*
%TO.N,*%
X114000000Y-107500000D03*
%TO.N,GND*%
X147500000Y-85500000D03*
X199000000Y-123000000D03*
X198500000Y-76500000D03*
X161500000Y-76500000D03*
X138000000Y-79500000D03*
%TD*%
D20*
%TO.N,Net-(P6-Pad1)*%
X195730000Y-120000000D02*
X120000000Y-120000000D01*
X120000000Y-120000000D02*
X118500000Y-118500000D01*
X118500000Y-118500000D02*
X118500000Y-82500000D01*
X118500000Y-82500000D02*
X120000000Y-81000000D01*
X120000000Y-81000000D02*
X120000000Y-77000000D01*
X120000000Y-77000000D02*
X125500000Y-71500000D01*
X125500000Y-71500000D02*
X131565685Y-71500000D01*
X131565685Y-71500000D02*
X136000000Y-75934315D01*
X136000000Y-75934315D02*
X136000000Y-77500000D01*
%TO.N,GND*%
X110000000Y-118000000D02*
X110500000Y-117500000D01*
X110000000Y-120000000D02*
X110000000Y-118000000D01*
%TO.N,+5V*%
X108275000Y-117775000D02*
X108000000Y-117500000D01*
X108275000Y-120000000D02*
X108275000Y-117775000D01*
X107960000Y-123500000D02*
X107960000Y-120315000D01*
X107960000Y-120315000D02*
X108275000Y-120000000D01*
%TO.N,GND*%
X110500000Y-123500000D02*
X110500000Y-120500000D01*
X110500000Y-120500000D02*
X110000000Y-120000000D01*
%TO.N,*%
X113950000Y-107450000D02*
X114000000Y-107500000D01*
X113950000Y-102000000D02*
X113950000Y-107450000D01*
X114000000Y-93000000D02*
X113950000Y-93050000D01*
X113950000Y-93050000D02*
X113950000Y-97000000D01*
%TO.N,+5V*%
X196775000Y-123225000D02*
X197000000Y-123000000D01*
X196775000Y-125000000D02*
X196775000Y-123225000D01*
X196637500Y-76137500D02*
X197000000Y-76500000D01*
X196637500Y-75000000D02*
X196637500Y-76137500D01*
%TO.N,+3.3V*%
X140018200Y-85518200D02*
X140000000Y-85500000D01*
X140018200Y-88980000D02*
X140018200Y-85518200D01*
%TO.N,GND*%
X147638200Y-85638200D02*
X147500000Y-85500000D01*
X147638200Y-88980000D02*
X147638200Y-85638200D01*
X198500000Y-123500000D02*
X199000000Y-123000000D01*
X198500000Y-125000000D02*
X198500000Y-123500000D01*
X198362500Y-76362500D02*
X198500000Y-76500000D01*
X198362500Y-75000000D02*
X198362500Y-76362500D01*
X161362500Y-76362500D02*
X161500000Y-76500000D01*
X161362500Y-75000000D02*
X161362500Y-76362500D01*
X138000000Y-77500000D02*
X138000000Y-79500000D01*
%TO.N,+5V*%
X134000000Y-77500000D02*
X134000000Y-74500000D01*
%TO.N,Net-(P4-PWM)*%
X192200000Y-98000000D02*
X192200000Y-92300000D01*
X192200000Y-92300000D02*
X203500000Y-81000000D01*
X203500000Y-81000000D02*
X203500000Y-70500000D01*
X203500000Y-70500000D02*
X202600000Y-69600000D01*
X202600000Y-69600000D02*
X158320000Y-69600000D01*
X158320000Y-69600000D02*
X156420000Y-71500000D01*
%TO.N,Net-(P1-Pad11)*%
X142558200Y-88980000D02*
X150078200Y-96500000D01*
X150078200Y-96500000D02*
X185500000Y-96500000D01*
X185500000Y-96500000D02*
X185905000Y-96905000D01*
X185905000Y-96905000D02*
X185905000Y-99215000D01*
X185905000Y-99215000D02*
X186190000Y-99500000D01*
X186190000Y-99500000D02*
X203400000Y-99500000D01*
X203400000Y-99500000D02*
X204900000Y-98000000D01*
%TO.N,Net-(P5-PWM)*%
X182040000Y-98000000D02*
X183365000Y-99325000D01*
X183365000Y-99325000D02*
X183365000Y-111865000D01*
X183365000Y-111865000D02*
X188500000Y-117000000D01*
X188500000Y-117000000D02*
X195270000Y-117000000D01*
X195270000Y-117000000D02*
X198270000Y-120000000D01*
%TO.N,Net-(P2-PWM)*%
X187120000Y-98000000D02*
X187120000Y-77800000D01*
X187120000Y-77800000D02*
X193420000Y-71500000D01*
X193420000Y-71500000D02*
X193420000Y-75420000D01*
X193420000Y-75420000D02*
X198000000Y-80000000D01*
%TO.N,Net-(P5-PWM)*%
X193420000Y-128500000D02*
X193420000Y-124850000D01*
X193420000Y-124850000D02*
X198270000Y-120000000D01*
%TO.N,+5V*%
X195960000Y-128500000D02*
X195960000Y-125815000D01*
X195960000Y-125815000D02*
X196775000Y-125000000D01*
%TO.N,GND*%
X198500000Y-128500000D02*
X198500000Y-125000000D01*
%TO.N,+5V*%
X195960000Y-71500000D02*
X195960000Y-74322500D01*
X195960000Y-74322500D02*
X196637500Y-75000000D01*
%TO.N,GND*%
X198500000Y-71500000D02*
X198500000Y-74862500D01*
X198500000Y-74862500D02*
X198362500Y-75000000D01*
%TO.N,+5V*%
X158960000Y-71500000D02*
X158960000Y-74322500D01*
X158960000Y-74322500D02*
X159637500Y-75000000D01*
%TO.N,GND*%
X161500000Y-71500000D02*
X161500000Y-74862500D01*
X161500000Y-74862500D02*
X161362500Y-75000000D01*
%TD*%
%TA.AperFunction,Conductor*%
%TO.N,+5V*%
G36*
X157337941Y-69520185D02*
G01*
X157383696Y-69572989D01*
X157393640Y-69642147D01*
X157364615Y-69705703D01*
X157358583Y-69712181D01*
X157022582Y-70048181D01*
X156961259Y-70081666D01*
X156934901Y-70084500D01*
X155457129Y-70084500D01*
X155457123Y-70084501D01*
X155397516Y-70090908D01*
X155262671Y-70141202D01*
X155262664Y-70141206D01*
X155147455Y-70227452D01*
X155147452Y-70227455D01*
X155061206Y-70342664D01*
X155061202Y-70342671D01*
X155010908Y-70477517D01*
X155004724Y-70535039D01*
X155004501Y-70537123D01*
X155004500Y-70537135D01*
X155004500Y-72462870D01*
X155004501Y-72462876D01*
X155010908Y-72522483D01*
X155061202Y-72657328D01*
X155061206Y-72657335D01*
X155147452Y-72772544D01*
X155147455Y-72772547D01*
X155262664Y-72858793D01*
X155262671Y-72858797D01*
X155397517Y-72909091D01*
X155397516Y-72909091D01*
X155404444Y-72909835D01*
X155457127Y-72915500D01*
X157382872Y-72915499D01*
X157442483Y-72909091D01*
X157577331Y-72858796D01*
X157692546Y-72772546D01*
X157778796Y-72657331D01*
X157829091Y-72522483D01*
X157835500Y-72462873D01*
X157835499Y-72322305D01*
X157855183Y-72255269D01*
X157871818Y-72234627D01*
X158579000Y-71527446D01*
X158579000Y-71550160D01*
X158604964Y-71647061D01*
X158655124Y-71733940D01*
X158726060Y-71804876D01*
X158812939Y-71855036D01*
X158909840Y-71881000D01*
X158932553Y-71881000D01*
X158150511Y-72663039D01*
X158150512Y-72663040D01*
X158183413Y-72688648D01*
X158183414Y-72688649D01*
X158389651Y-72800260D01*
X158389660Y-72800263D01*
X158611444Y-72876402D01*
X158842750Y-72915000D01*
X159077250Y-72915000D01*
X159308555Y-72876402D01*
X159530339Y-72800263D01*
X159530347Y-72800260D01*
X159736586Y-72688649D01*
X159736589Y-72688647D01*
X159769486Y-72663040D01*
X159769486Y-72663039D01*
X158987447Y-71881000D01*
X159010160Y-71881000D01*
X159107061Y-71855036D01*
X159193940Y-71804876D01*
X159264876Y-71733940D01*
X159315036Y-71647061D01*
X159341000Y-71550160D01*
X159341000Y-71527448D01*
X160122022Y-72308470D01*
X160125891Y-72302550D01*
X160179037Y-72257193D01*
X160248268Y-72247769D01*
X160311604Y-72277270D01*
X160333509Y-72302550D01*
X160379140Y-72372395D01*
X160379143Y-72372398D01*
X160538022Y-72544986D01*
X160690357Y-72663553D01*
X160723139Y-72689068D01*
X160723144Y-72689071D01*
X160834517Y-72749343D01*
X160884108Y-72798562D01*
X160899500Y-72858398D01*
X160899500Y-73949508D01*
X160879815Y-74016547D01*
X160827011Y-74062302D01*
X160814506Y-74067213D01*
X160748486Y-74089090D01*
X160601648Y-74179661D01*
X160587325Y-74193984D01*
X160526001Y-74227468D01*
X160456309Y-74222482D01*
X160411965Y-74193982D01*
X160398038Y-74180055D01*
X160398034Y-74180052D01*
X160251311Y-74089551D01*
X160251300Y-74089546D01*
X160087652Y-74035319D01*
X159986654Y-74025000D01*
X159887500Y-74025000D01*
X159887500Y-75974999D01*
X159986640Y-75974999D01*
X159986654Y-75974998D01*
X160087652Y-75964680D01*
X160251300Y-75910453D01*
X160251311Y-75910448D01*
X160398035Y-75819947D01*
X160411960Y-75806021D01*
X160473282Y-75772533D01*
X160542973Y-75777514D01*
X160587327Y-75806017D01*
X160601650Y-75820340D01*
X160703096Y-75882912D01*
X160749821Y-75934860D01*
X160762000Y-75988451D01*
X160762000Y-76164304D01*
X160755042Y-76205258D01*
X160714632Y-76320742D01*
X160714630Y-76320750D01*
X160694435Y-76499996D01*
X160694435Y-76500003D01*
X160714630Y-76679249D01*
X160714631Y-76679254D01*
X160774211Y-76849523D01*
X160819089Y-76920945D01*
X160870184Y-77002262D01*
X160997738Y-77129816D01*
X161150478Y-77225789D01*
X161171252Y-77233058D01*
X161320745Y-77285368D01*
X161320750Y-77285369D01*
X161499996Y-77305565D01*
X161500000Y-77305565D01*
X161500004Y-77305565D01*
X161679249Y-77285369D01*
X161679252Y-77285368D01*
X161679255Y-77285368D01*
X161849522Y-77225789D01*
X162002262Y-77129816D01*
X162129816Y-77002262D01*
X162225789Y-76849522D01*
X162285368Y-76679255D01*
X162285369Y-76679249D01*
X162305565Y-76500003D01*
X162305565Y-76499996D01*
X162285369Y-76320750D01*
X162285368Y-76320745D01*
X162261461Y-76252424D01*
X162225789Y-76150478D01*
X162129816Y-75997738D01*
X162125565Y-75993487D01*
X162092080Y-75932164D01*
X162097064Y-75862472D01*
X162125565Y-75818125D01*
X162171157Y-75772533D01*
X162245340Y-75698350D01*
X162335908Y-75551516D01*
X162390174Y-75387753D01*
X162400500Y-75286677D01*
X162400499Y-74713324D01*
X162390174Y-74612247D01*
X162335908Y-74448484D01*
X162245340Y-74301650D01*
X162136819Y-74193129D01*
X162103334Y-74131806D01*
X162100500Y-74105448D01*
X162100500Y-72858398D01*
X162120185Y-72791359D01*
X162165483Y-72749343D01*
X162276858Y-72689070D01*
X162461978Y-72544986D01*
X162620857Y-72372398D01*
X162749161Y-72176012D01*
X162843392Y-71961187D01*
X162900979Y-71733782D01*
X162902731Y-71712641D01*
X162920351Y-71500005D01*
X162920351Y-71499994D01*
X162900980Y-71266226D01*
X162900978Y-71266214D01*
X162843392Y-71038812D01*
X162749161Y-70823988D01*
X162620859Y-70627604D01*
X162537570Y-70537129D01*
X162461978Y-70455014D01*
X162420015Y-70422353D01*
X162379202Y-70365643D01*
X162375527Y-70295870D01*
X162410159Y-70235187D01*
X162472100Y-70202860D01*
X162496177Y-70200500D01*
X191935636Y-70200500D01*
X192002675Y-70220185D01*
X192048430Y-70272989D01*
X192058374Y-70342147D01*
X192051818Y-70367833D01*
X192010908Y-70477517D01*
X192004724Y-70535039D01*
X192004501Y-70537123D01*
X192004500Y-70537135D01*
X192004500Y-72014902D01*
X191984815Y-72081941D01*
X191968181Y-72102583D01*
X186639481Y-77431282D01*
X186639480Y-77431284D01*
X186599807Y-77500000D01*
X186560423Y-77568215D01*
X186519499Y-77720943D01*
X186519499Y-77720945D01*
X186519499Y-77889046D01*
X186519500Y-77889059D01*
X186519500Y-96370901D01*
X186499815Y-96437940D01*
X186447011Y-96483695D01*
X186377853Y-96493639D01*
X186314297Y-96464614D01*
X186307819Y-96458582D01*
X186269397Y-96420160D01*
X186269374Y-96420139D01*
X185987590Y-96138355D01*
X185987588Y-96138352D01*
X185868717Y-96019481D01*
X185868716Y-96019480D01*
X185781904Y-95969360D01*
X185781904Y-95969359D01*
X185781900Y-95969358D01*
X185731785Y-95940423D01*
X185579057Y-95899499D01*
X185420943Y-95899499D01*
X185413347Y-95899499D01*
X185413331Y-95899500D01*
X150378297Y-95899500D01*
X150311258Y-95879815D01*
X150290616Y-95863181D01*
X145024616Y-90597181D01*
X144991131Y-90535858D01*
X144996115Y-90466166D01*
X145037987Y-90410233D01*
X145103451Y-90385816D01*
X145112297Y-90385500D01*
X145214663Y-90385500D01*
X145444412Y-90347162D01*
X145664718Y-90271531D01*
X145869570Y-90160670D01*
X146053382Y-90017604D01*
X146211138Y-89846235D01*
X146264392Y-89764724D01*
X146317538Y-89719367D01*
X146386769Y-89709944D01*
X146450105Y-89739446D01*
X146472008Y-89764724D01*
X146525262Y-89846235D01*
X146683018Y-90017604D01*
X146866830Y-90160670D01*
X147071682Y-90271531D01*
X147291988Y-90347162D01*
X147521737Y-90385500D01*
X147754663Y-90385500D01*
X147984412Y-90347162D01*
X148204718Y-90271531D01*
X148409570Y-90160670D01*
X148593382Y-90017604D01*
X148751138Y-89846235D01*
X148804392Y-89764724D01*
X148857538Y-89719367D01*
X148926769Y-89709944D01*
X148990105Y-89739446D01*
X149012008Y-89764724D01*
X149065262Y-89846235D01*
X149223018Y-90017604D01*
X149406830Y-90160670D01*
X149611682Y-90271531D01*
X149831988Y-90347162D01*
X150061737Y-90385500D01*
X150294663Y-90385500D01*
X150524412Y-90347162D01*
X150744718Y-90271531D01*
X150949570Y-90160670D01*
X151133382Y-90017604D01*
X151291138Y-89846235D01*
X151344392Y-89764724D01*
X151397538Y-89719367D01*
X151466769Y-89709944D01*
X151530105Y-89739446D01*
X151552008Y-89764724D01*
X151605262Y-89846235D01*
X151763018Y-90017604D01*
X151946830Y-90160670D01*
X152151682Y-90271531D01*
X152371988Y-90347162D01*
X152601737Y-90385500D01*
X152834663Y-90385500D01*
X153064412Y-90347162D01*
X153284718Y-90271531D01*
X153489570Y-90160670D01*
X153673382Y-90017604D01*
X153831138Y-89846235D01*
X153884392Y-89764724D01*
X153937538Y-89719367D01*
X154006769Y-89709944D01*
X154070105Y-89739446D01*
X154092008Y-89764724D01*
X154145262Y-89846235D01*
X154303018Y-90017604D01*
X154486830Y-90160670D01*
X154691682Y-90271531D01*
X154911988Y-90347162D01*
X155141737Y-90385500D01*
X155374663Y-90385500D01*
X155604412Y-90347162D01*
X155824718Y-90271531D01*
X156029570Y-90160670D01*
X156213382Y-90017604D01*
X156371138Y-89846235D01*
X156498537Y-89651237D01*
X156592102Y-89437929D01*
X156649282Y-89212131D01*
X156668517Y-88980000D01*
X156649282Y-88747869D01*
X156592102Y-88522071D01*
X156498537Y-88308763D01*
X156371138Y-88113765D01*
X156213382Y-87942396D01*
X156072398Y-87832664D01*
X156029572Y-87799331D01*
X155824718Y-87688469D01*
X155824710Y-87688466D01*
X155604414Y-87612838D01*
X155374663Y-87574500D01*
X155141737Y-87574500D01*
X154911985Y-87612838D01*
X154691689Y-87688466D01*
X154691681Y-87688469D01*
X154486827Y-87799331D01*
X154357109Y-87900295D01*
X154303018Y-87942396D01*
X154303015Y-87942398D01*
X154303015Y-87942399D01*
X154145264Y-88113762D01*
X154092008Y-88195276D01*
X154038861Y-88240632D01*
X153969630Y-88250055D01*
X153906294Y-88220552D01*
X153884392Y-88195276D01*
X153883462Y-88193853D01*
X153831138Y-88113765D01*
X153673382Y-87942396D01*
X153532398Y-87832664D01*
X153489572Y-87799331D01*
X153284718Y-87688469D01*
X153284710Y-87688466D01*
X153064414Y-87612838D01*
X152834663Y-87574500D01*
X152601737Y-87574500D01*
X152371985Y-87612838D01*
X152151689Y-87688466D01*
X152151681Y-87688469D01*
X151946827Y-87799331D01*
X151817109Y-87900295D01*
X151763018Y-87942396D01*
X151763015Y-87942398D01*
X151763015Y-87942399D01*
X151605264Y-88113762D01*
X151552008Y-88195276D01*
X151498861Y-88240632D01*
X151429630Y-88250055D01*
X151366294Y-88220552D01*
X151344392Y-88195276D01*
X151343462Y-88193853D01*
X151291138Y-88113765D01*
X151133382Y-87942396D01*
X150992398Y-87832664D01*
X150949572Y-87799331D01*
X150744718Y-87688469D01*
X150744710Y-87688466D01*
X150524414Y-87612838D01*
X150294663Y-87574500D01*
X150061737Y-87574500D01*
X149831985Y-87612838D01*
X149611689Y-87688466D01*
X149611681Y-87688469D01*
X149406827Y-87799331D01*
X149277109Y-87900295D01*
X149223018Y-87942396D01*
X149223015Y-87942398D01*
X149223015Y-87942399D01*
X149065264Y-88113762D01*
X149012008Y-88195276D01*
X148958861Y-88240632D01*
X148889630Y-88250055D01*
X148826294Y-88220552D01*
X148804392Y-88195276D01*
X148803462Y-88193853D01*
X148751138Y-88113765D01*
X148593382Y-87942396D01*
X148452398Y-87832664D01*
X148409572Y-87799331D01*
X148409567Y-87799328D01*
X148303681Y-87742024D01*
X148254091Y-87692804D01*
X148238700Y-87632970D01*
X148238700Y-85833691D01*
X148245659Y-85792736D01*
X148260443Y-85750487D01*
X148285368Y-85679255D01*
X148289004Y-85646982D01*
X148305565Y-85500003D01*
X148305565Y-85499996D01*
X148285369Y-85320750D01*
X148285368Y-85320745D01*
X148263734Y-85258919D01*
X148225789Y-85150478D01*
X148225164Y-85149484D01*
X148152192Y-85033349D01*
X148129816Y-84997738D01*
X148002262Y-84870184D01*
X147966285Y-84847578D01*
X147849523Y-84774211D01*
X147679254Y-84714631D01*
X147679249Y-84714630D01*
X147500004Y-84694435D01*
X147499996Y-84694435D01*
X147320750Y-84714630D01*
X147320745Y-84714631D01*
X147150476Y-84774211D01*
X146997737Y-84870184D01*
X146870184Y-84997737D01*
X146774211Y-85150476D01*
X146714631Y-85320745D01*
X146714630Y-85320750D01*
X146694435Y-85499996D01*
X146694435Y-85500003D01*
X146714630Y-85679249D01*
X146714631Y-85679254D01*
X146774211Y-85849523D01*
X146870184Y-86002262D01*
X147001381Y-86133459D01*
X147034866Y-86194782D01*
X147037700Y-86221140D01*
X147037700Y-87632970D01*
X147018015Y-87700009D01*
X146972719Y-87742024D01*
X146866832Y-87799328D01*
X146866827Y-87799331D01*
X146737109Y-87900295D01*
X146683018Y-87942396D01*
X146683015Y-87942398D01*
X146683015Y-87942399D01*
X146525264Y-88113762D01*
X146472008Y-88195276D01*
X146418861Y-88240632D01*
X146349630Y-88250055D01*
X146286294Y-88220552D01*
X146264392Y-88195276D01*
X146263462Y-88193853D01*
X146211138Y-88113765D01*
X146053382Y-87942396D01*
X145912398Y-87832664D01*
X145869572Y-87799331D01*
X145664718Y-87688469D01*
X145664710Y-87688466D01*
X145444414Y-87612838D01*
X145214663Y-87574500D01*
X144981737Y-87574500D01*
X144751985Y-87612838D01*
X144531689Y-87688466D01*
X144531681Y-87688469D01*
X144326827Y-87799331D01*
X144197109Y-87900295D01*
X144143018Y-87942396D01*
X144143015Y-87942398D01*
X144143015Y-87942399D01*
X143985264Y-88113762D01*
X143932008Y-88195276D01*
X143878861Y-88240632D01*
X143809630Y-88250055D01*
X143746294Y-88220552D01*
X143724392Y-88195276D01*
X143723462Y-88193853D01*
X143671138Y-88113765D01*
X143513382Y-87942396D01*
X143372398Y-87832664D01*
X143329572Y-87799331D01*
X143124718Y-87688469D01*
X143124710Y-87688466D01*
X142904414Y-87612838D01*
X142674663Y-87574500D01*
X142441737Y-87574500D01*
X142211985Y-87612838D01*
X141991689Y-87688466D01*
X141991681Y-87688469D01*
X141786827Y-87799331D01*
X141657109Y-87900295D01*
X141603018Y-87942396D01*
X141603015Y-87942399D01*
X141603011Y-87942403D01*
X141600989Y-87944600D01*
X141599940Y-87945230D01*
X141599242Y-87945873D01*
X141599109Y-87945729D01*
X141541101Y-87980588D01*
X141471263Y-87978485D01*
X141413648Y-87938958D01*
X141393581Y-87903946D01*
X141366997Y-87832671D01*
X141366993Y-87832664D01*
X141280747Y-87717455D01*
X141280744Y-87717452D01*
X141165535Y-87631206D01*
X141165528Y-87631202D01*
X141030682Y-87580908D01*
X141030683Y-87580908D01*
X140971083Y-87574501D01*
X140971081Y-87574500D01*
X140971073Y-87574500D01*
X140971065Y-87574500D01*
X140742700Y-87574500D01*
X140675661Y-87554815D01*
X140629906Y-87502011D01*
X140618700Y-87450500D01*
X140618700Y-85607260D01*
X140618701Y-85607247D01*
X140618701Y-85439144D01*
X140617118Y-85433237D01*
X140577777Y-85286416D01*
X140499293Y-85150476D01*
X140498724Y-85149490D01*
X140498718Y-85149482D01*
X140480520Y-85131284D01*
X140386916Y-85037680D01*
X140386915Y-85037679D01*
X140382585Y-85033349D01*
X140382574Y-85033339D01*
X140368718Y-85019483D01*
X140368716Y-85019481D01*
X140231785Y-84940423D01*
X140079057Y-84899499D01*
X139920943Y-84899499D01*
X139806397Y-84930192D01*
X139768214Y-84940423D01*
X139631284Y-85019481D01*
X139631281Y-85019483D01*
X139519483Y-85131281D01*
X139519481Y-85131284D01*
X139440423Y-85268214D01*
X139435546Y-85286416D01*
X139399499Y-85420943D01*
X139399499Y-85579057D01*
X139413473Y-85631207D01*
X139413475Y-85631214D01*
X139417700Y-85663308D01*
X139417700Y-87450500D01*
X139398015Y-87517539D01*
X139345211Y-87563294D01*
X139293701Y-87574500D01*
X139065330Y-87574500D01*
X139065323Y-87574501D01*
X139005716Y-87580908D01*
X138870871Y-87631202D01*
X138870864Y-87631206D01*
X138755655Y-87717452D01*
X138755652Y-87717455D01*
X138669406Y-87832664D01*
X138669402Y-87832671D01*
X138619108Y-87967517D01*
X138612701Y-88027116D01*
X138612700Y-88027135D01*
X138612700Y-89932870D01*
X138612701Y-89932876D01*
X138619108Y-89992483D01*
X138669402Y-90127328D01*
X138669406Y-90127335D01*
X138755652Y-90242544D01*
X138755655Y-90242547D01*
X138870864Y-90328793D01*
X138870871Y-90328797D01*
X139005717Y-90379091D01*
X139005716Y-90379091D01*
X139012644Y-90379835D01*
X139065327Y-90385500D01*
X140971072Y-90385499D01*
X141030683Y-90379091D01*
X141165531Y-90328796D01*
X141280746Y-90242546D01*
X141366996Y-90127331D01*
X141393581Y-90056053D01*
X141435452Y-90000120D01*
X141500916Y-89975702D01*
X141569189Y-89990553D01*
X141600994Y-90015405D01*
X141603018Y-90017604D01*
X141786830Y-90160670D01*
X141991682Y-90271531D01*
X142211988Y-90347162D01*
X142441737Y-90385500D01*
X142674663Y-90385500D01*
X142904412Y-90347162D01*
X142959034Y-90328409D01*
X143028828Y-90325260D01*
X143086975Y-90358010D01*
X149593339Y-96864374D01*
X149593349Y-96864385D01*
X149597679Y-96868715D01*
X149597680Y-96868716D01*
X149709484Y-96980520D01*
X149791071Y-97027624D01*
X149846415Y-97059577D01*
X149999143Y-97100501D01*
X149999146Y-97100501D01*
X150164853Y-97100501D01*
X150164869Y-97100500D01*
X177960500Y-97100500D01*
X178027539Y-97120185D01*
X178073294Y-97172989D01*
X178084500Y-97224500D01*
X178084500Y-98962870D01*
X178084501Y-98962876D01*
X178090908Y-99022483D01*
X178141202Y-99157328D01*
X178141206Y-99157335D01*
X178227452Y-99272544D01*
X178227455Y-99272547D01*
X178342664Y-99358793D01*
X178342671Y-99358797D01*
X178477517Y-99409091D01*
X178477516Y-99409091D01*
X178484444Y-99409835D01*
X178537127Y-99415500D01*
X180462872Y-99415499D01*
X180522483Y-99409091D01*
X180657329Y-99358797D01*
X180657329Y-99358796D01*
X180657331Y-99358796D01*
X180695689Y-99330080D01*
X180761152Y-99305663D01*
X180829425Y-99320514D01*
X180844306Y-99330077D01*
X180882669Y-99358796D01*
X180882670Y-99358796D01*
X180882670Y-99358797D01*
X181017517Y-99409091D01*
X181017516Y-99409091D01*
X181024444Y-99409835D01*
X181077127Y-99415500D01*
X182554902Y-99415499D01*
X182621941Y-99435184D01*
X182642583Y-99451818D01*
X182728181Y-99537416D01*
X182761666Y-99598739D01*
X182764500Y-99625097D01*
X182764500Y-100560500D01*
X182744815Y-100627539D01*
X182692011Y-100673294D01*
X182640500Y-100684500D01*
X181077129Y-100684500D01*
X181077123Y-100684501D01*
X181017516Y-100690908D01*
X180882671Y-100741202D01*
X180882669Y-100741203D01*
X180844310Y-100769919D01*
X180778845Y-100794335D01*
X180710572Y-100779483D01*
X180695690Y-100769919D01*
X180657330Y-100741203D01*
X180657328Y-100741202D01*
X180522482Y-100690908D01*
X180522483Y-100690908D01*
X180462883Y-100684501D01*
X180462881Y-100684500D01*
X180462873Y-100684500D01*
X180462864Y-100684500D01*
X178537129Y-100684500D01*
X178537123Y-100684501D01*
X178477516Y-100690908D01*
X178342671Y-100741202D01*
X178342664Y-100741206D01*
X178227455Y-100827452D01*
X178227452Y-100827455D01*
X178141206Y-100942664D01*
X178141202Y-100942671D01*
X178090908Y-101077517D01*
X178084501Y-101137116D01*
X178084501Y-101137123D01*
X178084500Y-101137135D01*
X178084500Y-103062870D01*
X178084501Y-103062876D01*
X178090908Y-103122483D01*
X178141202Y-103257328D01*
X178141206Y-103257335D01*
X178227452Y-103372544D01*
X178227455Y-103372547D01*
X178342664Y-103458793D01*
X178342671Y-103458797D01*
X178477517Y-103509091D01*
X178477516Y-103509091D01*
X178484444Y-103509835D01*
X178537127Y-103515500D01*
X180462872Y-103515499D01*
X180522483Y-103509091D01*
X180657329Y-103458797D01*
X180657329Y-103458796D01*
X180657331Y-103458796D01*
X180695689Y-103430080D01*
X180761152Y-103405663D01*
X180829425Y-103420514D01*
X180844306Y-103430077D01*
X180882669Y-103458796D01*
X180882670Y-103458796D01*
X180882670Y-103458797D01*
X181017517Y-103509091D01*
X181017516Y-103509091D01*
X181024444Y-103509835D01*
X181077127Y-103515500D01*
X182640500Y-103515499D01*
X182707539Y-103535184D01*
X182753294Y-103587987D01*
X182764500Y-103639499D01*
X182764500Y-111778330D01*
X182764499Y-111778348D01*
X182764499Y-111944054D01*
X182764498Y-111944054D01*
X182787966Y-112031638D01*
X182805423Y-112096785D01*
X182831283Y-112141575D01*
X182884479Y-112233714D01*
X182884481Y-112233717D01*
X183003349Y-112352585D01*
X183003354Y-112352589D01*
X188131284Y-117480520D01*
X188131286Y-117480521D01*
X188131290Y-117480524D01*
X188218455Y-117530848D01*
X188268216Y-117559577D01*
X188420943Y-117600501D01*
X188420945Y-117600501D01*
X188586654Y-117600501D01*
X188586670Y-117600500D01*
X194969903Y-117600500D01*
X195036942Y-117620185D01*
X195057584Y-117636819D01*
X195793584Y-118372819D01*
X195827069Y-118434142D01*
X195822085Y-118503834D01*
X195780213Y-118559767D01*
X195714749Y-118584184D01*
X195705903Y-118584500D01*
X195612708Y-118584500D01*
X195566431Y-118592222D01*
X195381320Y-118623111D01*
X195159459Y-118699277D01*
X195159451Y-118699280D01*
X194953139Y-118810931D01*
X194822498Y-118912613D01*
X194768022Y-118955014D01*
X194768019Y-118955016D01*
X194768019Y-118955017D01*
X194609140Y-119127604D01*
X194480838Y-119323988D01*
X194480260Y-119325307D01*
X194479879Y-119325759D01*
X194478397Y-119328499D01*
X194477833Y-119328194D01*
X194435305Y-119378794D01*
X194368570Y-119399486D01*
X194366703Y-119399500D01*
X120300097Y-119399500D01*
X120233058Y-119379815D01*
X120212416Y-119363181D01*
X119136819Y-118287584D01*
X119103334Y-118226261D01*
X119100500Y-118199903D01*
X119100500Y-115499999D01*
X122389580Y-115499999D01*
X122394211Y-115567701D01*
X122394500Y-115576163D01*
X122394500Y-115638004D01*
X122403400Y-115705611D01*
X122404172Y-115713332D01*
X122409236Y-115787368D01*
X122421749Y-115847588D01*
X122423281Y-115856625D01*
X122430525Y-115911645D01*
X122430527Y-115911654D01*
X122449821Y-115983660D01*
X122451452Y-115990523D01*
X122467840Y-116069384D01*
X122467842Y-116069393D01*
X122486307Y-116121346D01*
X122489241Y-116130775D01*
X122501958Y-116178236D01*
X122501961Y-116178245D01*
X122501965Y-116178258D01*
X122532915Y-116252978D01*
X122535194Y-116258903D01*
X122564299Y-116340794D01*
X122564301Y-116340799D01*
X122564302Y-116340800D01*
X122586746Y-116384114D01*
X122591211Y-116393712D01*
X122607580Y-116433233D01*
X122607583Y-116433239D01*
X122651201Y-116508787D01*
X122653912Y-116513739D01*
X122696816Y-116596540D01*
X122721287Y-116631207D01*
X122727366Y-116640709D01*
X122745584Y-116672263D01*
X122745589Y-116672269D01*
X122745590Y-116672271D01*
X122802557Y-116746512D01*
X122805485Y-116750490D01*
X122862918Y-116831854D01*
X122862923Y-116831861D01*
X122887551Y-116858231D01*
X122895290Y-116867364D01*
X122913604Y-116891232D01*
X122984286Y-116961914D01*
X122987200Y-116964929D01*
X123059526Y-117042371D01*
X123082575Y-117061123D01*
X123082577Y-117061124D01*
X123092006Y-117069634D01*
X123108769Y-117086397D01*
X123193087Y-117151096D01*
X123195856Y-117153284D01*
X123282962Y-117224150D01*
X123302924Y-117236289D01*
X123313973Y-117243855D01*
X123327737Y-117254416D01*
X123327742Y-117254419D01*
X123327750Y-117254425D01*
X123425277Y-117310731D01*
X123427655Y-117312139D01*
X123529070Y-117373811D01*
X123544660Y-117380582D01*
X123557248Y-117386924D01*
X123566763Y-117392418D01*
X123676815Y-117438002D01*
X123678528Y-117438729D01*
X123774749Y-117480524D01*
X123793265Y-117488567D01*
X123803497Y-117491434D01*
X123817490Y-117496272D01*
X123821757Y-117498040D01*
X123942867Y-117530491D01*
X123944155Y-117530844D01*
X124070622Y-117566279D01*
X124074842Y-117566858D01*
X124084353Y-117568779D01*
X124084373Y-117568682D01*
X124088341Y-117569471D01*
X124088356Y-117569475D01*
X124219111Y-117586688D01*
X124219364Y-117586722D01*
X124319610Y-117600501D01*
X124355979Y-117605500D01*
X124355980Y-117605500D01*
X124644020Y-117605500D01*
X124780698Y-117586713D01*
X124780807Y-117586699D01*
X124911644Y-117569475D01*
X124911658Y-117569471D01*
X124915622Y-117568683D01*
X124915641Y-117568782D01*
X124925158Y-117566858D01*
X124929378Y-117566279D01*
X125055927Y-117530820D01*
X125057126Y-117530492D01*
X125178243Y-117498040D01*
X125182508Y-117496272D01*
X125196506Y-117491432D01*
X125206737Y-117488566D01*
X125225252Y-117480524D01*
X125321381Y-117438768D01*
X125323220Y-117437987D01*
X125433237Y-117392418D01*
X125442760Y-117386919D01*
X125455337Y-117380583D01*
X125470930Y-117373811D01*
X125572387Y-117312112D01*
X125574647Y-117310773D01*
X125672263Y-117254416D01*
X125686024Y-117243856D01*
X125697071Y-117236291D01*
X125717038Y-117224150D01*
X125804208Y-117153230D01*
X125806868Y-117151129D01*
X125891232Y-117086396D01*
X125908009Y-117069617D01*
X125917405Y-117061138D01*
X125940474Y-117042371D01*
X126012799Y-116964928D01*
X126015713Y-116961914D01*
X126015742Y-116961885D01*
X126086396Y-116891232D01*
X126104704Y-116867372D01*
X126112437Y-116858243D01*
X126137077Y-116831861D01*
X126194522Y-116750477D01*
X126197441Y-116746512D01*
X126254416Y-116672263D01*
X126272632Y-116640709D01*
X126278710Y-116631210D01*
X126303184Y-116596540D01*
X126346103Y-116513707D01*
X126348766Y-116508842D01*
X126392418Y-116433237D01*
X126408790Y-116393708D01*
X126413253Y-116384114D01*
X126435701Y-116340794D01*
X126464812Y-116258881D01*
X126467070Y-116253009D01*
X126498040Y-116178243D01*
X126510758Y-116130774D01*
X126513689Y-116121353D01*
X126532160Y-116069385D01*
X126548550Y-115990507D01*
X126550178Y-115983660D01*
X126569475Y-115911644D01*
X126576722Y-115856586D01*
X126578245Y-115847601D01*
X126590763Y-115787369D01*
X126595827Y-115713314D01*
X126596592Y-115705651D01*
X126605500Y-115638002D01*
X126605500Y-115576163D01*
X126605789Y-115567701D01*
X126610420Y-115500000D01*
X126610420Y-115499999D01*
X153389580Y-115499999D01*
X153394211Y-115567701D01*
X153394500Y-115576163D01*
X153394500Y-115638004D01*
X153403400Y-115705611D01*
X153404172Y-115713332D01*
X153409236Y-115787368D01*
X153421749Y-115847588D01*
X153423281Y-115856625D01*
X153430525Y-115911645D01*
X153430527Y-115911654D01*
X153449821Y-115983660D01*
X153451452Y-115990523D01*
X153467840Y-116069384D01*
X153467842Y-116069393D01*
X153486307Y-116121346D01*
X153489241Y-116130775D01*
X153501958Y-116178236D01*
X153501961Y-116178245D01*
X153501965Y-116178258D01*
X153532915Y-116252978D01*
X153535194Y-116258903D01*
X153564299Y-116340794D01*
X153564301Y-116340799D01*
X153564302Y-116340800D01*
X153586746Y-116384114D01*
X153591211Y-116393712D01*
X153607580Y-116433233D01*
X153607583Y-116433239D01*
X153651201Y-116508787D01*
X153653912Y-116513739D01*
X153696816Y-116596540D01*
X153721287Y-116631207D01*
X153727366Y-116640709D01*
X153745584Y-116672263D01*
X153745589Y-116672269D01*
X153745590Y-116672271D01*
X153802557Y-116746512D01*
X153805485Y-116750490D01*
X153862918Y-116831854D01*
X153862923Y-116831861D01*
X153887551Y-116858231D01*
X153895290Y-116867364D01*
X153913604Y-116891232D01*
X153984286Y-116961914D01*
X153987200Y-116964929D01*
X154059526Y-117042371D01*
X154082575Y-117061123D01*
X154082577Y-117061124D01*
X154092006Y-117069634D01*
X154108769Y-117086397D01*
X154193087Y-117151096D01*
X154195856Y-117153284D01*
X154282962Y-117224150D01*
X154302924Y-117236289D01*
X154313973Y-117243855D01*
X154327737Y-117254416D01*
X154327742Y-117254419D01*
X154327750Y-117254425D01*
X154425277Y-117310731D01*
X154427655Y-117312139D01*
X154529070Y-117373811D01*
X154544660Y-117380582D01*
X154557248Y-117386924D01*
X154566763Y-117392418D01*
X154676815Y-117438002D01*
X154678528Y-117438729D01*
X154774749Y-117480524D01*
X154793265Y-117488567D01*
X154803497Y-117491434D01*
X154817490Y-117496272D01*
X154821757Y-117498040D01*
X154942867Y-117530491D01*
X154944155Y-117530844D01*
X155070622Y-117566279D01*
X155074842Y-117566858D01*
X155084353Y-117568779D01*
X155084373Y-117568682D01*
X155088341Y-117569471D01*
X155088356Y-117569475D01*
X155219111Y-117586688D01*
X155219364Y-117586722D01*
X155319610Y-117600501D01*
X155355979Y-117605500D01*
X155355980Y-117605500D01*
X155644020Y-117605500D01*
X155780698Y-117586713D01*
X155780807Y-117586699D01*
X155911644Y-117569475D01*
X155911658Y-117569471D01*
X155915622Y-117568683D01*
X155915641Y-117568782D01*
X155925158Y-117566858D01*
X155929378Y-117566279D01*
X156055927Y-117530820D01*
X156057126Y-117530492D01*
X156178243Y-117498040D01*
X156182508Y-117496272D01*
X156196506Y-117491432D01*
X156206737Y-117488566D01*
X156225252Y-117480524D01*
X156321381Y-117438768D01*
X156323220Y-117437987D01*
X156433237Y-117392418D01*
X156442760Y-117386919D01*
X156455337Y-117380583D01*
X156470930Y-117373811D01*
X156572387Y-117312112D01*
X156574647Y-117310773D01*
X156672263Y-117254416D01*
X156686024Y-117243856D01*
X156697071Y-117236291D01*
X156717038Y-117224150D01*
X156804208Y-117153230D01*
X156806868Y-117151129D01*
X156891232Y-117086396D01*
X156908009Y-117069617D01*
X156917405Y-117061138D01*
X156940474Y-117042371D01*
X157012799Y-116964928D01*
X157015713Y-116961914D01*
X157015742Y-116961885D01*
X157086396Y-116891232D01*
X157104704Y-116867372D01*
X157112437Y-116858243D01*
X157137077Y-116831861D01*
X157194522Y-116750477D01*
X157197441Y-116746512D01*
X157254416Y-116672263D01*
X157272632Y-116640709D01*
X157278710Y-116631210D01*
X157303184Y-116596540D01*
X157346103Y-116513707D01*
X157348766Y-116508842D01*
X157392418Y-116433237D01*
X157408790Y-116393708D01*
X157413253Y-116384114D01*
X157435701Y-116340794D01*
X157464812Y-116258881D01*
X157467070Y-116253009D01*
X157498040Y-116178243D01*
X157510758Y-116130774D01*
X157513689Y-116121353D01*
X157532160Y-116069385D01*
X157548550Y-115990507D01*
X157550178Y-115983660D01*
X157569475Y-115911644D01*
X157576722Y-115856586D01*
X157578245Y-115847601D01*
X157590763Y-115787369D01*
X157595827Y-115713314D01*
X157596592Y-115705651D01*
X157605500Y-115638002D01*
X157605500Y-115576163D01*
X157605789Y-115567701D01*
X157610420Y-115500000D01*
X157605788Y-115432297D01*
X157605500Y-115423836D01*
X157605500Y-115362003D01*
X157605499Y-115361995D01*
X157596597Y-115294381D01*
X157595826Y-115286661D01*
X157590763Y-115212631D01*
X157578244Y-115152388D01*
X157576723Y-115143417D01*
X157569475Y-115088356D01*
X157550180Y-115016347D01*
X157548548Y-115009482D01*
X157532160Y-114930615D01*
X157513689Y-114878645D01*
X157510759Y-114869229D01*
X157498040Y-114821757D01*
X157467067Y-114746982D01*
X157464812Y-114741117D01*
X157441817Y-114676416D01*
X157435702Y-114659208D01*
X157435701Y-114659206D01*
X157413248Y-114615876D01*
X157408788Y-114606286D01*
X157392418Y-114566763D01*
X157392414Y-114566756D01*
X157348793Y-114491202D01*
X157346082Y-114486250D01*
X157303183Y-114403459D01*
X157278711Y-114368790D01*
X157272627Y-114359280D01*
X157254417Y-114327739D01*
X157254416Y-114327737D01*
X157197431Y-114253474D01*
X157194515Y-114249512D01*
X157137077Y-114168139D01*
X157112450Y-114141769D01*
X157104698Y-114132620D01*
X157086397Y-114108769D01*
X157086388Y-114108760D01*
X157015709Y-114038081D01*
X157012798Y-114035068D01*
X156940469Y-113957624D01*
X156917420Y-113938872D01*
X156907995Y-113930366D01*
X156891237Y-113913608D01*
X156891230Y-113913602D01*
X156806911Y-113848902D01*
X156804143Y-113846715D01*
X156799886Y-113843252D01*
X156717038Y-113775850D01*
X156697069Y-113763706D01*
X156686024Y-113756143D01*
X156672263Y-113745584D01*
X156672257Y-113745580D01*
X156672254Y-113745578D01*
X156574720Y-113689267D01*
X156572292Y-113687828D01*
X156470930Y-113626189D01*
X156455345Y-113619419D01*
X156442757Y-113613078D01*
X156433247Y-113607588D01*
X156433237Y-113607582D01*
X156433235Y-113607581D01*
X156433227Y-113607577D01*
X156323289Y-113562040D01*
X156321340Y-113561213D01*
X156206737Y-113511434D01*
X156206731Y-113511432D01*
X156196497Y-113508564D01*
X156182514Y-113503729D01*
X156178243Y-113501960D01*
X156171448Y-113500139D01*
X156057167Y-113469516D01*
X156055808Y-113469144D01*
X155929372Y-113433719D01*
X155925142Y-113433138D01*
X155915645Y-113431220D01*
X155915626Y-113431317D01*
X155911649Y-113430526D01*
X155911646Y-113430525D01*
X155911644Y-113430525D01*
X155781065Y-113413333D01*
X155780377Y-113413241D01*
X155644022Y-113394500D01*
X155644020Y-113394500D01*
X155355980Y-113394500D01*
X155355975Y-113394500D01*
X155219620Y-113413240D01*
X155218923Y-113413334D01*
X155088367Y-113430523D01*
X155088358Y-113430524D01*
X155088356Y-113430525D01*
X155088353Y-113430525D01*
X155084387Y-113431315D01*
X155084368Y-113431220D01*
X155074860Y-113433137D01*
X155070638Y-113433717D01*
X155070624Y-113433720D01*
X154944213Y-113469138D01*
X154942854Y-113469510D01*
X154821758Y-113501958D01*
X154817476Y-113503732D01*
X154803506Y-113508563D01*
X154793268Y-113511432D01*
X154793250Y-113511438D01*
X154678679Y-113561204D01*
X154676731Y-113562031D01*
X154566759Y-113607583D01*
X154566749Y-113607588D01*
X154557237Y-113613079D01*
X154544664Y-113619414D01*
X154529070Y-113626189D01*
X154529066Y-113626190D01*
X154427723Y-113687818D01*
X154425298Y-113689255D01*
X154327741Y-113745581D01*
X154313973Y-113756144D01*
X154302933Y-113763703D01*
X154282968Y-113775846D01*
X154282961Y-113775850D01*
X154195845Y-113846723D01*
X154193079Y-113848908D01*
X154108776Y-113913596D01*
X154108772Y-113913600D01*
X154092003Y-113930368D01*
X154082586Y-113938866D01*
X154059533Y-113957622D01*
X154059524Y-113957630D01*
X153987228Y-114035039D01*
X153984288Y-114038081D01*
X153913610Y-114108760D01*
X153913604Y-114108767D01*
X153895300Y-114132621D01*
X153887553Y-114141765D01*
X153862928Y-114168133D01*
X153862913Y-114168151D01*
X153805489Y-114249504D01*
X153802561Y-114253482D01*
X153745590Y-114327727D01*
X153745577Y-114327748D01*
X153727371Y-114359280D01*
X153721292Y-114368783D01*
X153696816Y-114403459D01*
X153653915Y-114486252D01*
X153651206Y-114491201D01*
X153607584Y-114566757D01*
X153607577Y-114566772D01*
X153591208Y-114606290D01*
X153586748Y-114615879D01*
X153564299Y-114659206D01*
X153564297Y-114659210D01*
X153535196Y-114741087D01*
X153532919Y-114747009D01*
X153501961Y-114821753D01*
X153489239Y-114869229D01*
X153486306Y-114878657D01*
X153467840Y-114930614D01*
X153467840Y-114930615D01*
X153451451Y-115009479D01*
X153449820Y-115016341D01*
X153430528Y-115088341D01*
X153430525Y-115088356D01*
X153423281Y-115143375D01*
X153421749Y-115152413D01*
X153409237Y-115212630D01*
X153409236Y-115212635D01*
X153404172Y-115286666D01*
X153403400Y-115294387D01*
X153394500Y-115361995D01*
X153394500Y-115423836D01*
X153394211Y-115432298D01*
X153389580Y-115499999D01*
X126610420Y-115499999D01*
X126605788Y-115432297D01*
X126605500Y-115423836D01*
X126605500Y-115362003D01*
X126605499Y-115361995D01*
X126596597Y-115294381D01*
X126595826Y-115286661D01*
X126590763Y-115212631D01*
X126578244Y-115152388D01*
X126576723Y-115143417D01*
X126569475Y-115088356D01*
X126550180Y-115016347D01*
X126548548Y-115009482D01*
X126532160Y-114930615D01*
X126513689Y-114878645D01*
X126510759Y-114869229D01*
X126498040Y-114821757D01*
X126467067Y-114746982D01*
X126464812Y-114741117D01*
X126441817Y-114676416D01*
X126435702Y-114659208D01*
X126435701Y-114659206D01*
X126413248Y-114615876D01*
X126408788Y-114606286D01*
X126392418Y-114566763D01*
X126392414Y-114566756D01*
X126348793Y-114491202D01*
X126346082Y-114486250D01*
X126303183Y-114403459D01*
X126278711Y-114368790D01*
X126272627Y-114359280D01*
X126254417Y-114327739D01*
X126254416Y-114327737D01*
X126197431Y-114253474D01*
X126194515Y-114249512D01*
X126137077Y-114168139D01*
X126112450Y-114141769D01*
X126104698Y-114132620D01*
X126086397Y-114108769D01*
X126086388Y-114108760D01*
X126015709Y-114038081D01*
X126012798Y-114035068D01*
X125940469Y-113957624D01*
X125917420Y-113938872D01*
X125907995Y-113930366D01*
X125891237Y-113913608D01*
X125891230Y-113913602D01*
X125806911Y-113848902D01*
X125804143Y-113846715D01*
X125799886Y-113843252D01*
X125717038Y-113775850D01*
X125697069Y-113763706D01*
X125686024Y-113756143D01*
X125672263Y-113745584D01*
X125672257Y-113745580D01*
X125672254Y-113745578D01*
X125574720Y-113689267D01*
X125572292Y-113687828D01*
X125470930Y-113626189D01*
X125455345Y-113619419D01*
X125442757Y-113613078D01*
X125433247Y-113607588D01*
X125433237Y-113607582D01*
X125433235Y-113607581D01*
X125433227Y-113607577D01*
X125323289Y-113562040D01*
X125321340Y-113561213D01*
X125206737Y-113511434D01*
X125206731Y-113511432D01*
X125196497Y-113508564D01*
X125182514Y-113503729D01*
X125178243Y-113501960D01*
X125171448Y-113500139D01*
X125057167Y-113469516D01*
X125055808Y-113469144D01*
X124929372Y-113433719D01*
X124925142Y-113433138D01*
X124915645Y-113431220D01*
X124915626Y-113431317D01*
X124911649Y-113430526D01*
X124911646Y-113430525D01*
X124911644Y-113430525D01*
X124781065Y-113413333D01*
X124780377Y-113413241D01*
X124644022Y-113394500D01*
X124644020Y-113394500D01*
X124355980Y-113394500D01*
X124355975Y-113394500D01*
X124219620Y-113413240D01*
X124218923Y-113413334D01*
X124088367Y-113430523D01*
X124088358Y-113430524D01*
X124088356Y-113430525D01*
X124088353Y-113430525D01*
X124084387Y-113431315D01*
X124084368Y-113431220D01*
X124074860Y-113433137D01*
X124070638Y-113433717D01*
X124070624Y-113433720D01*
X123944213Y-113469138D01*
X123942854Y-113469510D01*
X123821758Y-113501958D01*
X123817476Y-113503732D01*
X123803506Y-113508563D01*
X123793268Y-113511432D01*
X123793250Y-113511438D01*
X123678679Y-113561204D01*
X123676731Y-113562031D01*
X123566759Y-113607583D01*
X123566749Y-113607588D01*
X123557237Y-113613079D01*
X123544664Y-113619414D01*
X123529070Y-113626189D01*
X123529066Y-113626190D01*
X123427723Y-113687818D01*
X123425298Y-113689255D01*
X123327741Y-113745581D01*
X123313973Y-113756144D01*
X123302933Y-113763703D01*
X123282968Y-113775846D01*
X123282961Y-113775850D01*
X123195845Y-113846723D01*
X123193079Y-113848908D01*
X123108776Y-113913596D01*
X123108772Y-113913600D01*
X123092003Y-113930368D01*
X123082586Y-113938866D01*
X123059533Y-113957622D01*
X123059524Y-113957630D01*
X122987228Y-114035039D01*
X122984288Y-114038081D01*
X122913610Y-114108760D01*
X122913604Y-114108767D01*
X122895300Y-114132621D01*
X122887553Y-114141765D01*
X122862928Y-114168133D01*
X122862913Y-114168151D01*
X122805489Y-114249504D01*
X122802561Y-114253482D01*
X122745590Y-114327727D01*
X122745577Y-114327748D01*
X122727371Y-114359280D01*
X122721292Y-114368783D01*
X122696816Y-114403459D01*
X122653915Y-114486252D01*
X122651206Y-114491201D01*
X122607584Y-114566757D01*
X122607577Y-114566772D01*
X122591208Y-114606290D01*
X122586748Y-114615879D01*
X122564299Y-114659206D01*
X122564297Y-114659210D01*
X122535196Y-114741087D01*
X122532919Y-114747009D01*
X122501961Y-114821753D01*
X122489239Y-114869229D01*
X122486306Y-114878657D01*
X122467840Y-114930614D01*
X122467840Y-114930615D01*
X122451451Y-115009479D01*
X122449820Y-115016341D01*
X122430528Y-115088341D01*
X122430525Y-115088356D01*
X122423281Y-115143375D01*
X122421749Y-115152413D01*
X122409237Y-115212630D01*
X122409236Y-115212635D01*
X122404172Y-115286666D01*
X122403400Y-115294387D01*
X122394500Y-115361995D01*
X122394500Y-115423836D01*
X122394211Y-115432298D01*
X122389580Y-115499999D01*
X119100500Y-115499999D01*
X119100500Y-110407535D01*
X138612700Y-110407535D01*
X138612700Y-112313270D01*
X138612701Y-112313276D01*
X138619108Y-112372883D01*
X138669402Y-112507728D01*
X138669406Y-112507735D01*
X138755652Y-112622944D01*
X138755655Y-112622947D01*
X138870864Y-112709193D01*
X138870871Y-112709197D01*
X139005717Y-112759491D01*
X139005716Y-112759491D01*
X139012644Y-112760235D01*
X139065327Y-112765900D01*
X140971072Y-112765899D01*
X141030683Y-112759491D01*
X141165531Y-112709196D01*
X141280746Y-112622946D01*
X141366996Y-112507731D01*
X141393581Y-112436453D01*
X141435452Y-112380520D01*
X141500916Y-112356102D01*
X141569189Y-112370953D01*
X141600994Y-112395805D01*
X141603018Y-112398004D01*
X141786830Y-112541070D01*
X141991682Y-112651931D01*
X142211988Y-112727562D01*
X142441737Y-112765900D01*
X142674663Y-112765900D01*
X142904412Y-112727562D01*
X143124718Y-112651931D01*
X143329570Y-112541070D01*
X143513382Y-112398004D01*
X143671138Y-112226635D01*
X143724392Y-112145124D01*
X143777538Y-112099767D01*
X143846769Y-112090344D01*
X143910105Y-112119846D01*
X143932008Y-112145124D01*
X143985262Y-112226635D01*
X144143018Y-112398004D01*
X144326830Y-112541070D01*
X144531682Y-112651931D01*
X144751988Y-112727562D01*
X144981737Y-112765900D01*
X145214663Y-112765900D01*
X145444412Y-112727562D01*
X145664718Y-112651931D01*
X145869570Y-112541070D01*
X146053382Y-112398004D01*
X146211138Y-112226635D01*
X146264392Y-112145124D01*
X146317538Y-112099767D01*
X146386769Y-112090344D01*
X146450105Y-112119846D01*
X146472008Y-112145124D01*
X146525262Y-112226635D01*
X146683018Y-112398004D01*
X146866830Y-112541070D01*
X147071682Y-112651931D01*
X147291988Y-112727562D01*
X147521737Y-112765900D01*
X147754663Y-112765900D01*
X147984412Y-112727562D01*
X148204718Y-112651931D01*
X148409570Y-112541070D01*
X148593382Y-112398004D01*
X148751138Y-112226635D01*
X148804392Y-112145124D01*
X148857538Y-112099767D01*
X148926769Y-112090344D01*
X148990105Y-112119846D01*
X149012008Y-112145124D01*
X149065262Y-112226635D01*
X149223018Y-112398004D01*
X149406830Y-112541070D01*
X149611682Y-112651931D01*
X149831988Y-112727562D01*
X150061737Y-112765900D01*
X150294663Y-112765900D01*
X150524412Y-112727562D01*
X150744718Y-112651931D01*
X150949570Y-112541070D01*
X151133382Y-112398004D01*
X151291138Y-112226635D01*
X151344392Y-112145124D01*
X151397538Y-112099767D01*
X151466769Y-112090344D01*
X151530105Y-112119846D01*
X151552008Y-112145124D01*
X151605262Y-112226635D01*
X151763018Y-112398004D01*
X151946830Y-112541070D01*
X152151682Y-112651931D01*
X152371988Y-112727562D01*
X152601737Y-112765900D01*
X152834663Y-112765900D01*
X153064412Y-112727562D01*
X153284718Y-112651931D01*
X153489570Y-112541070D01*
X153673382Y-112398004D01*
X153831138Y-112226635D01*
X153884392Y-112145124D01*
X153937538Y-112099767D01*
X154006769Y-112090344D01*
X154070105Y-112119846D01*
X154092008Y-112145124D01*
X154145262Y-112226635D01*
X154303018Y-112398004D01*
X154486830Y-112541070D01*
X154691682Y-112651931D01*
X154911988Y-112727562D01*
X155141737Y-112765900D01*
X155374663Y-112765900D01*
X155604412Y-112727562D01*
X155824718Y-112651931D01*
X156029570Y-112541070D01*
X156213382Y-112398004D01*
X156371138Y-112226635D01*
X156498537Y-112031637D01*
X156592102Y-111818329D01*
X156649282Y-111592531D01*
X156649283Y-111592522D01*
X156668517Y-111360405D01*
X156668517Y-111360394D01*
X156649283Y-111128277D01*
X156649281Y-111128265D01*
X156592102Y-110902472D01*
X156498536Y-110689161D01*
X156424392Y-110575676D01*
X156371138Y-110494165D01*
X156213382Y-110322796D01*
X156072398Y-110213064D01*
X156029572Y-110179731D01*
X155824718Y-110068869D01*
X155824710Y-110068866D01*
X155604414Y-109993238D01*
X155374663Y-109954900D01*
X155141737Y-109954900D01*
X154911985Y-109993238D01*
X154691689Y-110068866D01*
X154691681Y-110068869D01*
X154486827Y-110179731D01*
X154357109Y-110280695D01*
X154303018Y-110322796D01*
X154303015Y-110322798D01*
X154303015Y-110322799D01*
X154145264Y-110494162D01*
X154092008Y-110575676D01*
X154038861Y-110621032D01*
X153969630Y-110630455D01*
X153906294Y-110600952D01*
X153884392Y-110575676D01*
X153883462Y-110574253D01*
X153831138Y-110494165D01*
X153673382Y-110322796D01*
X153532398Y-110213064D01*
X153489572Y-110179731D01*
X153284718Y-110068869D01*
X153284710Y-110068866D01*
X153064414Y-109993238D01*
X152834663Y-109954900D01*
X152601737Y-109954900D01*
X152371985Y-109993238D01*
X152151689Y-110068866D01*
X152151681Y-110068869D01*
X151946827Y-110179731D01*
X151817109Y-110280695D01*
X151763018Y-110322796D01*
X151763015Y-110322798D01*
X151763015Y-110322799D01*
X151605264Y-110494162D01*
X151552008Y-110575676D01*
X151498861Y-110621032D01*
X151429630Y-110630455D01*
X151366294Y-110600952D01*
X151344392Y-110575676D01*
X151343462Y-110574253D01*
X151291138Y-110494165D01*
X151133382Y-110322796D01*
X150992398Y-110213064D01*
X150949572Y-110179731D01*
X150744718Y-110068869D01*
X150744710Y-110068866D01*
X150524414Y-109993238D01*
X150294663Y-109954900D01*
X150061737Y-109954900D01*
X149831985Y-109993238D01*
X149611689Y-110068866D01*
X149611681Y-110068869D01*
X149406827Y-110179731D01*
X149277109Y-110280695D01*
X149223018Y-110322796D01*
X149223015Y-110322798D01*
X149223015Y-110322799D01*
X149065264Y-110494162D01*
X149012008Y-110575676D01*
X148958861Y-110621032D01*
X148889630Y-110630455D01*
X148826294Y-110600952D01*
X148804392Y-110575676D01*
X148803462Y-110574253D01*
X148751138Y-110494165D01*
X148593382Y-110322796D01*
X148452398Y-110213064D01*
X148409572Y-110179731D01*
X148204718Y-110068869D01*
X148204710Y-110068866D01*
X147984414Y-109993238D01*
X147754663Y-109954900D01*
X147521737Y-109954900D01*
X147291985Y-109993238D01*
X147071689Y-110068866D01*
X147071681Y-110068869D01*
X146866827Y-110179731D01*
X146737109Y-110280695D01*
X146683018Y-110322796D01*
X146683015Y-110322798D01*
X146683015Y-110322799D01*
X146525264Y-110494162D01*
X146472008Y-110575676D01*
X146418861Y-110621032D01*
X146349630Y-110630455D01*
X146286294Y-110600952D01*
X146264392Y-110575676D01*
X146263462Y-110574253D01*
X146211138Y-110494165D01*
X146053382Y-110322796D01*
X145912398Y-110213064D01*
X145869572Y-110179731D01*
X145664718Y-110068869D01*
X145664710Y-110068866D01*
X145444414Y-109993238D01*
X145214663Y-109954900D01*
X144981737Y-109954900D01*
X144751985Y-109993238D01*
X144531689Y-110068866D01*
X144531681Y-110068869D01*
X144326827Y-110179731D01*
X144197109Y-110280695D01*
X144143018Y-110322796D01*
X144143015Y-110322798D01*
X144143015Y-110322799D01*
X143985264Y-110494162D01*
X143932008Y-110575676D01*
X143878861Y-110621032D01*
X143809630Y-110630455D01*
X143746294Y-110600952D01*
X143724392Y-110575676D01*
X143723462Y-110574253D01*
X143671138Y-110494165D01*
X143513382Y-110322796D01*
X143372398Y-110213064D01*
X143329572Y-110179731D01*
X143124718Y-110068869D01*
X143124710Y-110068866D01*
X142904414Y-109993238D01*
X142674663Y-109954900D01*
X142441737Y-109954900D01*
X142211985Y-109993238D01*
X141991689Y-110068866D01*
X141991681Y-110068869D01*
X141786827Y-110179731D01*
X141657109Y-110280695D01*
X141603018Y-110322796D01*
X141603015Y-110322799D01*
X141603011Y-110322803D01*
X141600989Y-110325000D01*
X141599940Y-110325630D01*
X141599242Y-110326273D01*
X141599109Y-110326129D01*
X141541101Y-110360988D01*
X141471263Y-110358885D01*
X141413648Y-110319358D01*
X141393581Y-110284346D01*
X141366997Y-110213071D01*
X141366993Y-110213064D01*
X141280747Y-110097855D01*
X141280744Y-110097852D01*
X141165535Y-110011606D01*
X141165528Y-110011602D01*
X141030682Y-109961308D01*
X141030683Y-109961308D01*
X140971083Y-109954901D01*
X140971081Y-109954900D01*
X140971073Y-109954900D01*
X140971064Y-109954900D01*
X139065329Y-109954900D01*
X139065323Y-109954901D01*
X139005716Y-109961308D01*
X138870871Y-110011602D01*
X138870864Y-110011606D01*
X138755655Y-110097852D01*
X138755652Y-110097855D01*
X138669406Y-110213064D01*
X138669402Y-110213071D01*
X138619108Y-110347917D01*
X138612701Y-110407516D01*
X138612700Y-110407535D01*
X119100500Y-110407535D01*
X119100500Y-93639994D01*
X125789683Y-93639994D01*
X125789683Y-93640005D01*
X125808916Y-93872122D01*
X125808918Y-93872134D01*
X125866097Y-94097927D01*
X125959663Y-94311238D01*
X125974176Y-94333451D01*
X126087062Y-94506235D01*
X126244818Y-94677604D01*
X126292378Y-94714621D01*
X126417679Y-94812147D01*
X126458492Y-94868857D01*
X126462166Y-94938630D01*
X126427534Y-94999313D01*
X126417679Y-95007853D01*
X126244820Y-95142394D01*
X126244815Y-95142399D01*
X126087063Y-95313763D01*
X126087060Y-95313767D01*
X125959663Y-95508761D01*
X125866097Y-95722072D01*
X125808918Y-95947865D01*
X125808916Y-95947877D01*
X125789683Y-96179994D01*
X125789683Y-96180005D01*
X125808916Y-96412122D01*
X125808918Y-96412134D01*
X125866097Y-96637927D01*
X125959663Y-96851238D01*
X126042165Y-96977516D01*
X126087062Y-97046235D01*
X126244818Y-97217604D01*
X126338694Y-97290670D01*
X126417679Y-97352147D01*
X126458492Y-97408857D01*
X126462166Y-97478630D01*
X126427534Y-97539313D01*
X126417679Y-97547853D01*
X126244820Y-97682394D01*
X126244815Y-97682399D01*
X126087063Y-97853763D01*
X126087060Y-97853767D01*
X125959663Y-98048761D01*
X125866097Y-98262072D01*
X125808918Y-98487865D01*
X125808916Y-98487877D01*
X125789683Y-98719994D01*
X125789683Y-98720005D01*
X125808916Y-98952122D01*
X125808918Y-98952134D01*
X125866097Y-99177927D01*
X125959663Y-99391238D01*
X126028699Y-99496904D01*
X126087062Y-99586235D01*
X126244818Y-99757604D01*
X126338694Y-99830670D01*
X126417679Y-99892147D01*
X126458492Y-99948857D01*
X126462166Y-100018630D01*
X126427534Y-100079313D01*
X126417679Y-100087853D01*
X126244820Y-100222394D01*
X126244815Y-100222399D01*
X126087063Y-100393763D01*
X126087060Y-100393767D01*
X125959663Y-100588761D01*
X125866097Y-100802072D01*
X125808918Y-101027865D01*
X125808916Y-101027877D01*
X125789683Y-101259994D01*
X125789683Y-101260005D01*
X125808916Y-101492122D01*
X125808918Y-101492134D01*
X125866097Y-101717927D01*
X125959663Y-101931238D01*
X126087060Y-102126232D01*
X126087062Y-102126235D01*
X126244818Y-102297604D01*
X126338694Y-102370670D01*
X126417679Y-102432147D01*
X126458492Y-102488857D01*
X126462166Y-102558630D01*
X126427534Y-102619313D01*
X126417679Y-102627853D01*
X126244820Y-102762394D01*
X126244815Y-102762399D01*
X126087063Y-102933763D01*
X126087060Y-102933767D01*
X125959663Y-103128761D01*
X125866097Y-103342072D01*
X125808918Y-103567865D01*
X125808916Y-103567877D01*
X125789683Y-103799994D01*
X125789683Y-103800005D01*
X125808916Y-104032122D01*
X125808918Y-104032134D01*
X125866097Y-104257927D01*
X125959663Y-104471238D01*
X126087060Y-104666232D01*
X126087063Y-104666236D01*
X126176038Y-104762889D01*
X126206960Y-104825544D01*
X126199100Y-104894970D01*
X126154952Y-104949125D01*
X126128141Y-104963054D01*
X126052671Y-104991202D01*
X126052664Y-104991206D01*
X125937455Y-105077452D01*
X125937452Y-105077455D01*
X125851206Y-105192664D01*
X125851202Y-105192671D01*
X125800908Y-105327517D01*
X125794501Y-105387116D01*
X125794501Y-105387123D01*
X125794500Y-105387135D01*
X125794500Y-107292870D01*
X125794501Y-107292876D01*
X125800908Y-107352483D01*
X125851202Y-107487328D01*
X125851206Y-107487335D01*
X125937452Y-107602544D01*
X125937455Y-107602547D01*
X126052664Y-107688793D01*
X126052671Y-107688797D01*
X126187517Y-107739091D01*
X126187516Y-107739091D01*
X126194444Y-107739835D01*
X126247127Y-107745500D01*
X128152872Y-107745499D01*
X128212483Y-107739091D01*
X128347331Y-107688796D01*
X128462546Y-107602546D01*
X128548796Y-107487331D01*
X128599091Y-107352483D01*
X128605500Y-107292873D01*
X128605499Y-105387128D01*
X128599091Y-105327517D01*
X128596313Y-105320070D01*
X128548797Y-105192671D01*
X128548793Y-105192664D01*
X128462547Y-105077455D01*
X128462544Y-105077452D01*
X128347335Y-104991206D01*
X128347328Y-104991202D01*
X128271858Y-104963054D01*
X128215924Y-104921183D01*
X128191507Y-104855719D01*
X128206359Y-104787446D01*
X128223957Y-104762893D01*
X128312938Y-104666235D01*
X128440337Y-104471237D01*
X128533902Y-104257929D01*
X128591082Y-104032131D01*
X128601276Y-103909107D01*
X128610317Y-103800005D01*
X128610317Y-103799994D01*
X128591083Y-103567877D01*
X128591081Y-103567865D01*
X128556189Y-103430081D01*
X128533902Y-103342071D01*
X128440337Y-103128763D01*
X128436233Y-103122482D01*
X128312939Y-102933767D01*
X128312938Y-102933765D01*
X128155182Y-102762396D01*
X128098809Y-102718519D01*
X127982321Y-102627853D01*
X127941508Y-102571143D01*
X127937833Y-102501370D01*
X127972465Y-102440687D01*
X127982321Y-102432147D01*
X128030083Y-102394971D01*
X128155182Y-102297604D01*
X128312938Y-102126235D01*
X128440337Y-101931237D01*
X128533902Y-101717929D01*
X128591082Y-101492131D01*
X128610317Y-101260000D01*
X128607083Y-101220975D01*
X128591083Y-101027877D01*
X128591081Y-101027865D01*
X128533902Y-100802072D01*
X128530508Y-100794335D01*
X128440337Y-100588763D01*
X128436420Y-100582768D01*
X128331657Y-100422417D01*
X128312938Y-100393765D01*
X128155182Y-100222396D01*
X127998571Y-100100501D01*
X127982321Y-100087853D01*
X127941508Y-100031143D01*
X127937833Y-99961370D01*
X127972465Y-99900687D01*
X127982321Y-99892147D01*
X128030083Y-99854971D01*
X128155182Y-99757604D01*
X128312938Y-99586235D01*
X128440337Y-99391237D01*
X128533902Y-99177929D01*
X128591082Y-98952131D01*
X128597846Y-98870500D01*
X128610317Y-98720005D01*
X128610317Y-98719994D01*
X128591083Y-98487877D01*
X128591081Y-98487865D01*
X128573357Y-98417876D01*
X128533902Y-98262071D01*
X128440337Y-98048763D01*
X128312938Y-97853765D01*
X128155182Y-97682396D01*
X128098809Y-97638519D01*
X127982321Y-97547853D01*
X127941508Y-97491143D01*
X127937833Y-97421370D01*
X127972465Y-97360687D01*
X127982321Y-97352147D01*
X128030083Y-97314971D01*
X128155182Y-97217604D01*
X128312938Y-97046235D01*
X128440337Y-96851237D01*
X128533902Y-96637929D01*
X128591082Y-96412131D01*
X128591083Y-96412122D01*
X128610317Y-96180005D01*
X128610317Y-96179994D01*
X128591083Y-95947877D01*
X128591081Y-95947865D01*
X128533902Y-95722072D01*
X128472517Y-95582128D01*
X128440337Y-95508763D01*
X128312938Y-95313765D01*
X128155182Y-95142396D01*
X128089009Y-95090892D01*
X127982321Y-95007853D01*
X127941508Y-94951143D01*
X127937833Y-94881370D01*
X127972465Y-94820687D01*
X127982321Y-94812147D01*
X128030083Y-94774971D01*
X128155182Y-94677604D01*
X128312938Y-94506235D01*
X128440337Y-94311237D01*
X128533902Y-94097929D01*
X128591082Y-93872131D01*
X128607008Y-93679937D01*
X128610317Y-93640005D01*
X128610317Y-93639994D01*
X128591083Y-93407877D01*
X128591081Y-93407865D01*
X128588301Y-93396887D01*
X128533902Y-93182071D01*
X128440337Y-92968763D01*
X128312938Y-92773765D01*
X128155182Y-92602396D01*
X128025461Y-92501430D01*
X127971372Y-92459331D01*
X127766518Y-92348469D01*
X127766510Y-92348466D01*
X127546214Y-92272838D01*
X127316463Y-92234500D01*
X127083537Y-92234500D01*
X126853785Y-92272838D01*
X126633489Y-92348466D01*
X126633481Y-92348469D01*
X126428627Y-92459331D01*
X126351346Y-92519482D01*
X126244818Y-92602396D01*
X126244815Y-92602398D01*
X126244815Y-92602399D01*
X126087063Y-92773763D01*
X126087060Y-92773767D01*
X125959663Y-92968761D01*
X125866097Y-93182072D01*
X125808918Y-93407865D01*
X125808916Y-93407877D01*
X125789683Y-93639994D01*
X119100500Y-93639994D01*
X119100500Y-84499999D01*
X122389580Y-84499999D01*
X122394211Y-84567701D01*
X122394500Y-84576163D01*
X122394500Y-84638004D01*
X122403400Y-84705611D01*
X122404172Y-84713332D01*
X122409236Y-84787368D01*
X122421749Y-84847588D01*
X122423281Y-84856625D01*
X122430525Y-84911645D01*
X122430527Y-84911654D01*
X122449821Y-84983660D01*
X122451451Y-84990517D01*
X122460349Y-85033339D01*
X122467840Y-85069384D01*
X122467842Y-85069393D01*
X122486307Y-85121346D01*
X122489241Y-85130775D01*
X122501958Y-85178236D01*
X122501961Y-85178245D01*
X122501965Y-85178258D01*
X122532915Y-85252978D01*
X122535194Y-85258903D01*
X122564299Y-85340794D01*
X122564301Y-85340799D01*
X122564302Y-85340800D01*
X122586746Y-85384114D01*
X122591211Y-85393712D01*
X122602490Y-85420945D01*
X122607582Y-85433237D01*
X122646129Y-85500003D01*
X122651201Y-85508787D01*
X122653912Y-85513739D01*
X122696816Y-85596540D01*
X122721287Y-85631207D01*
X122727366Y-85640709D01*
X122745584Y-85672263D01*
X122745589Y-85672269D01*
X122745590Y-85672271D01*
X122802557Y-85746512D01*
X122805485Y-85750490D01*
X122849344Y-85812624D01*
X122862923Y-85831861D01*
X122887551Y-85858231D01*
X122895290Y-85867364D01*
X122913604Y-85891232D01*
X122984286Y-85961914D01*
X122987200Y-85964929D01*
X123059526Y-86042371D01*
X123082575Y-86061123D01*
X123082577Y-86061124D01*
X123092006Y-86069634D01*
X123108769Y-86086397D01*
X123193087Y-86151096D01*
X123195856Y-86153284D01*
X123282962Y-86224150D01*
X123302924Y-86236289D01*
X123313973Y-86243855D01*
X123327737Y-86254416D01*
X123327742Y-86254419D01*
X123327750Y-86254425D01*
X123425277Y-86310731D01*
X123427655Y-86312139D01*
X123529070Y-86373811D01*
X123544660Y-86380582D01*
X123557248Y-86386924D01*
X123566763Y-86392418D01*
X123676815Y-86438002D01*
X123678528Y-86438729D01*
X123781273Y-86483358D01*
X123793265Y-86488567D01*
X123803497Y-86491434D01*
X123817490Y-86496272D01*
X123821757Y-86498040D01*
X123942867Y-86530491D01*
X123944155Y-86530844D01*
X124070622Y-86566279D01*
X124074842Y-86566858D01*
X124084353Y-86568779D01*
X124084373Y-86568682D01*
X124088341Y-86569471D01*
X124088356Y-86569475D01*
X124219111Y-86586688D01*
X124219364Y-86586722D01*
X124333805Y-86602452D01*
X124355979Y-86605500D01*
X124355980Y-86605500D01*
X124644020Y-86605500D01*
X124780698Y-86586713D01*
X124780807Y-86586699D01*
X124911644Y-86569475D01*
X124911658Y-86569471D01*
X124915622Y-86568683D01*
X124915641Y-86568782D01*
X124925158Y-86566858D01*
X124929378Y-86566279D01*
X125055927Y-86530820D01*
X125057126Y-86530492D01*
X125178243Y-86498040D01*
X125182508Y-86496272D01*
X125196506Y-86491432D01*
X125206737Y-86488566D01*
X125321381Y-86438767D01*
X125323220Y-86437987D01*
X125433237Y-86392418D01*
X125442760Y-86386919D01*
X125455337Y-86380583D01*
X125470930Y-86373811D01*
X125572387Y-86312112D01*
X125574647Y-86310773D01*
X125672263Y-86254416D01*
X125686024Y-86243856D01*
X125697071Y-86236291D01*
X125717038Y-86224150D01*
X125804208Y-86153230D01*
X125806868Y-86151129D01*
X125891232Y-86086396D01*
X125908009Y-86069617D01*
X125917405Y-86061138D01*
X125940474Y-86042371D01*
X126012799Y-85964928D01*
X126015713Y-85961914D01*
X126015742Y-85961885D01*
X126086396Y-85891232D01*
X126104704Y-85867372D01*
X126112437Y-85858243D01*
X126137077Y-85831861D01*
X126194522Y-85750477D01*
X126197441Y-85746512D01*
X126254416Y-85672263D01*
X126272632Y-85640709D01*
X126278705Y-85631216D01*
X126303184Y-85596540D01*
X126346103Y-85513707D01*
X126348766Y-85508842D01*
X126392418Y-85433237D01*
X126408790Y-85393708D01*
X126413253Y-85384114D01*
X126435701Y-85340794D01*
X126464812Y-85258881D01*
X126467070Y-85253009D01*
X126498040Y-85178243D01*
X126510758Y-85130774D01*
X126513689Y-85121353D01*
X126532160Y-85069385D01*
X126548550Y-84990507D01*
X126550178Y-84983660D01*
X126569475Y-84911644D01*
X126576722Y-84856586D01*
X126578245Y-84847601D01*
X126590763Y-84787369D01*
X126595827Y-84713314D01*
X126596592Y-84705651D01*
X126605500Y-84638002D01*
X126605500Y-84576163D01*
X126605789Y-84567701D01*
X126610420Y-84500000D01*
X126610420Y-84499999D01*
X153389580Y-84499999D01*
X153394211Y-84567701D01*
X153394500Y-84576163D01*
X153394500Y-84638004D01*
X153403400Y-84705611D01*
X153404172Y-84713332D01*
X153409236Y-84787368D01*
X153421749Y-84847588D01*
X153423281Y-84856625D01*
X153430525Y-84911645D01*
X153430527Y-84911654D01*
X153449821Y-84983660D01*
X153451451Y-84990517D01*
X153460349Y-85033339D01*
X153467840Y-85069384D01*
X153467842Y-85069393D01*
X153486307Y-85121346D01*
X153489241Y-85130775D01*
X153501958Y-85178236D01*
X153501961Y-85178245D01*
X153501965Y-85178258D01*
X153532915Y-85252978D01*
X153535194Y-85258903D01*
X153564299Y-85340794D01*
X153564301Y-85340799D01*
X153564302Y-85340800D01*
X153586746Y-85384114D01*
X153591211Y-85393712D01*
X153602490Y-85420945D01*
X153607582Y-85433237D01*
X153646129Y-85500003D01*
X153651201Y-85508787D01*
X153653912Y-85513739D01*
X153696816Y-85596540D01*
X153721287Y-85631207D01*
X153727366Y-85640709D01*
X153745584Y-85672263D01*
X153745589Y-85672269D01*
X153745590Y-85672271D01*
X153802557Y-85746512D01*
X153805485Y-85750490D01*
X153849344Y-85812624D01*
X153862923Y-85831861D01*
X153887551Y-85858231D01*
X153895290Y-85867364D01*
X153913604Y-85891232D01*
X153984286Y-85961914D01*
X153987200Y-85964929D01*
X154059526Y-86042371D01*
X154082575Y-86061123D01*
X154082577Y-86061124D01*
X154092006Y-86069634D01*
X154108769Y-86086397D01*
X154193087Y-86151096D01*
X154195856Y-86153284D01*
X154282962Y-86224150D01*
X154302924Y-86236289D01*
X154313973Y-86243855D01*
X154327737Y-86254416D01*
X154327742Y-86254419D01*
X154327750Y-86254425D01*
X154425277Y-86310731D01*
X154427655Y-86312139D01*
X154529070Y-86373811D01*
X154544660Y-86380582D01*
X154557248Y-86386924D01*
X154566763Y-86392418D01*
X154676815Y-86438002D01*
X154678528Y-86438729D01*
X154781273Y-86483358D01*
X154793265Y-86488567D01*
X154803497Y-86491434D01*
X154817490Y-86496272D01*
X154821757Y-86498040D01*
X154942867Y-86530491D01*
X154944155Y-86530844D01*
X155070622Y-86566279D01*
X155074842Y-86566858D01*
X155084353Y-86568779D01*
X155084373Y-86568682D01*
X155088341Y-86569471D01*
X155088356Y-86569475D01*
X155219111Y-86586688D01*
X155219364Y-86586722D01*
X155333805Y-86602452D01*
X155355979Y-86605500D01*
X155355980Y-86605500D01*
X155644020Y-86605500D01*
X155780698Y-86586713D01*
X155780807Y-86586699D01*
X155911644Y-86569475D01*
X155911658Y-86569471D01*
X155915622Y-86568683D01*
X155915641Y-86568782D01*
X155925158Y-86566858D01*
X155929378Y-86566279D01*
X156055927Y-86530820D01*
X156057126Y-86530492D01*
X156178243Y-86498040D01*
X156182508Y-86496272D01*
X156196506Y-86491432D01*
X156206737Y-86488566D01*
X156321381Y-86438767D01*
X156323220Y-86437987D01*
X156433237Y-86392418D01*
X156442760Y-86386919D01*
X156455337Y-86380583D01*
X156470930Y-86373811D01*
X156572387Y-86312112D01*
X156574647Y-86310773D01*
X156672263Y-86254416D01*
X156686024Y-86243856D01*
X156697071Y-86236291D01*
X156717038Y-86224150D01*
X156804208Y-86153230D01*
X156806868Y-86151129D01*
X156891232Y-86086396D01*
X156908009Y-86069617D01*
X156917405Y-86061138D01*
X156940474Y-86042371D01*
X157012799Y-85964928D01*
X157015713Y-85961914D01*
X157015742Y-85961885D01*
X157086396Y-85891232D01*
X157104704Y-85867372D01*
X157112437Y-85858243D01*
X157137077Y-85831861D01*
X157194522Y-85750477D01*
X157197441Y-85746512D01*
X157254416Y-85672263D01*
X157272632Y-85640709D01*
X157278705Y-85631216D01*
X157303184Y-85596540D01*
X157346103Y-85513707D01*
X157348766Y-85508842D01*
X157392418Y-85433237D01*
X157408790Y-85393708D01*
X157413253Y-85384114D01*
X157435701Y-85340794D01*
X157464812Y-85258881D01*
X157467070Y-85253009D01*
X157498040Y-85178243D01*
X157510758Y-85130774D01*
X157513689Y-85121353D01*
X157532160Y-85069385D01*
X157548550Y-84990507D01*
X157550178Y-84983660D01*
X157569475Y-84911644D01*
X157576722Y-84856586D01*
X157578245Y-84847601D01*
X157590763Y-84787369D01*
X157595827Y-84713314D01*
X157596592Y-84705651D01*
X157605500Y-84638002D01*
X157605500Y-84576163D01*
X157605789Y-84567701D01*
X157610420Y-84500000D01*
X157605788Y-84432297D01*
X157605500Y-84423836D01*
X157605500Y-84362003D01*
X157605499Y-84361995D01*
X157596597Y-84294381D01*
X157595826Y-84286661D01*
X157590763Y-84212631D01*
X157578244Y-84152388D01*
X157576723Y-84143417D01*
X157569475Y-84088356D01*
X157550180Y-84016347D01*
X157548548Y-84009482D01*
X157532160Y-83930615D01*
X157513689Y-83878645D01*
X157510759Y-83869229D01*
X157498040Y-83821757D01*
X157467067Y-83746982D01*
X157464812Y-83741117D01*
X157441817Y-83676416D01*
X157435702Y-83659208D01*
X157435701Y-83659206D01*
X157413248Y-83615876D01*
X157408788Y-83606286D01*
X157392418Y-83566763D01*
X157392414Y-83566756D01*
X157348793Y-83491202D01*
X157346082Y-83486250D01*
X157303183Y-83403459D01*
X157278711Y-83368790D01*
X157272627Y-83359280D01*
X157254417Y-83327739D01*
X157254416Y-83327737D01*
X157197431Y-83253474D01*
X157194515Y-83249512D01*
X157137077Y-83168139D01*
X157112450Y-83141769D01*
X157104698Y-83132620D01*
X157086397Y-83108769D01*
X157086388Y-83108760D01*
X157015709Y-83038081D01*
X157012798Y-83035068D01*
X156940469Y-82957624D01*
X156917420Y-82938872D01*
X156907995Y-82930366D01*
X156891237Y-82913608D01*
X156891230Y-82913602D01*
X156806911Y-82848902D01*
X156804143Y-82846715D01*
X156746840Y-82800096D01*
X156717038Y-82775850D01*
X156697069Y-82763706D01*
X156686024Y-82756143D01*
X156672263Y-82745584D01*
X156672257Y-82745580D01*
X156672254Y-82745578D01*
X156574720Y-82689267D01*
X156572292Y-82687828D01*
X156470930Y-82626189D01*
X156455345Y-82619419D01*
X156442757Y-82613078D01*
X156433247Y-82607588D01*
X156433237Y-82607582D01*
X156433235Y-82607581D01*
X156433227Y-82607577D01*
X156323289Y-82562040D01*
X156321340Y-82561213D01*
X156206737Y-82511434D01*
X156206731Y-82511432D01*
X156196497Y-82508564D01*
X156182514Y-82503729D01*
X156178243Y-82501960D01*
X156171448Y-82500139D01*
X156057167Y-82469516D01*
X156055808Y-82469144D01*
X155929372Y-82433719D01*
X155925142Y-82433138D01*
X155915645Y-82431220D01*
X155915626Y-82431317D01*
X155911649Y-82430526D01*
X155911646Y-82430525D01*
X155911644Y-82430525D01*
X155781065Y-82413333D01*
X155780377Y-82413241D01*
X155644022Y-82394500D01*
X155644020Y-82394500D01*
X155355980Y-82394500D01*
X155355975Y-82394500D01*
X155219620Y-82413240D01*
X155218923Y-82413334D01*
X155088367Y-82430523D01*
X155088358Y-82430524D01*
X155088356Y-82430525D01*
X155088353Y-82430525D01*
X155084387Y-82431315D01*
X155084368Y-82431220D01*
X155074860Y-82433137D01*
X155070638Y-82433717D01*
X155070624Y-82433720D01*
X154944213Y-82469138D01*
X154942854Y-82469510D01*
X154821758Y-82501958D01*
X154817476Y-82503732D01*
X154803506Y-82508563D01*
X154793268Y-82511432D01*
X154793250Y-82511438D01*
X154678679Y-82561204D01*
X154676731Y-82562031D01*
X154566759Y-82607583D01*
X154566749Y-82607588D01*
X154557237Y-82613079D01*
X154544664Y-82619414D01*
X154529070Y-82626189D01*
X154529066Y-82626190D01*
X154427723Y-82687818D01*
X154425298Y-82689255D01*
X154327741Y-82745581D01*
X154313973Y-82756144D01*
X154302933Y-82763703D01*
X154282968Y-82775846D01*
X154282961Y-82775850D01*
X154195845Y-82846723D01*
X154193079Y-82848908D01*
X154108776Y-82913596D01*
X154108772Y-82913600D01*
X154092003Y-82930368D01*
X154082586Y-82938866D01*
X154059533Y-82957622D01*
X154059524Y-82957630D01*
X153987228Y-83035039D01*
X153984288Y-83038081D01*
X153913610Y-83108760D01*
X153913604Y-83108767D01*
X153895300Y-83132621D01*
X153887553Y-83141765D01*
X153862928Y-83168133D01*
X153862913Y-83168151D01*
X153805489Y-83249504D01*
X153802561Y-83253482D01*
X153745590Y-83327727D01*
X153745577Y-83327748D01*
X153727371Y-83359280D01*
X153721292Y-83368783D01*
X153696816Y-83403459D01*
X153653915Y-83486252D01*
X153651206Y-83491201D01*
X153607584Y-83566757D01*
X153607577Y-83566772D01*
X153591208Y-83606290D01*
X153586748Y-83615879D01*
X153564299Y-83659206D01*
X153564297Y-83659210D01*
X153535196Y-83741087D01*
X153532919Y-83747009D01*
X153501961Y-83821753D01*
X153489239Y-83869229D01*
X153486306Y-83878657D01*
X153467840Y-83930614D01*
X153467840Y-83930615D01*
X153451451Y-84009479D01*
X153449820Y-84016341D01*
X153430528Y-84088341D01*
X153430525Y-84088356D01*
X153423281Y-84143375D01*
X153421749Y-84152413D01*
X153409237Y-84212630D01*
X153409236Y-84212635D01*
X153404172Y-84286666D01*
X153403400Y-84294387D01*
X153394500Y-84361995D01*
X153394500Y-84423836D01*
X153394211Y-84432298D01*
X153389580Y-84499999D01*
X126610420Y-84499999D01*
X126605788Y-84432297D01*
X126605500Y-84423836D01*
X126605500Y-84362003D01*
X126605499Y-84361995D01*
X126596597Y-84294381D01*
X126595826Y-84286661D01*
X126590763Y-84212631D01*
X126578244Y-84152388D01*
X126576723Y-84143417D01*
X126569475Y-84088356D01*
X126550180Y-84016347D01*
X126548548Y-84009482D01*
X126532160Y-83930615D01*
X126513689Y-83878645D01*
X126510759Y-83869229D01*
X126498040Y-83821757D01*
X126467067Y-83746982D01*
X126464812Y-83741117D01*
X126441817Y-83676416D01*
X126435702Y-83659208D01*
X126435701Y-83659206D01*
X126413248Y-83615876D01*
X126408788Y-83606286D01*
X126392418Y-83566763D01*
X126392414Y-83566756D01*
X126348793Y-83491202D01*
X126346082Y-83486250D01*
X126303183Y-83403459D01*
X126278711Y-83368790D01*
X126272627Y-83359280D01*
X126254417Y-83327739D01*
X126254416Y-83327737D01*
X126197431Y-83253474D01*
X126194515Y-83249512D01*
X126137077Y-83168139D01*
X126112450Y-83141769D01*
X126104698Y-83132620D01*
X126086397Y-83108769D01*
X126086388Y-83108760D01*
X126015709Y-83038081D01*
X126012798Y-83035068D01*
X125940469Y-82957624D01*
X125917420Y-82938872D01*
X125907995Y-82930366D01*
X125891237Y-82913608D01*
X125891230Y-82913602D01*
X125806911Y-82848902D01*
X125804143Y-82846715D01*
X125746840Y-82800096D01*
X125717038Y-82775850D01*
X125697069Y-82763706D01*
X125686024Y-82756143D01*
X125672263Y-82745584D01*
X125672257Y-82745580D01*
X125672254Y-82745578D01*
X125574720Y-82689267D01*
X125572292Y-82687828D01*
X125470930Y-82626189D01*
X125455345Y-82619419D01*
X125442757Y-82613078D01*
X125433247Y-82607588D01*
X125433237Y-82607582D01*
X125433235Y-82607581D01*
X125433227Y-82607577D01*
X125323289Y-82562040D01*
X125321340Y-82561213D01*
X125206737Y-82511434D01*
X125206731Y-82511432D01*
X125196497Y-82508564D01*
X125182514Y-82503729D01*
X125178243Y-82501960D01*
X125171448Y-82500139D01*
X125057167Y-82469516D01*
X125055808Y-82469144D01*
X124929372Y-82433719D01*
X124925142Y-82433138D01*
X124915645Y-82431220D01*
X124915626Y-82431317D01*
X124911649Y-82430526D01*
X124911646Y-82430525D01*
X124911644Y-82430525D01*
X124781065Y-82413333D01*
X124780377Y-82413241D01*
X124644022Y-82394500D01*
X124644020Y-82394500D01*
X124355980Y-82394500D01*
X124355975Y-82394500D01*
X124219620Y-82413240D01*
X124218923Y-82413334D01*
X124088367Y-82430523D01*
X124088358Y-82430524D01*
X124088356Y-82430525D01*
X124088353Y-82430525D01*
X124084387Y-82431315D01*
X124084368Y-82431220D01*
X124074860Y-82433137D01*
X124070638Y-82433717D01*
X124070624Y-82433720D01*
X123944213Y-82469138D01*
X123942854Y-82469510D01*
X123821758Y-82501958D01*
X123817476Y-82503732D01*
X123803506Y-82508563D01*
X123793268Y-82511432D01*
X123793250Y-82511438D01*
X123678679Y-82561204D01*
X123676731Y-82562031D01*
X123566759Y-82607583D01*
X123566749Y-82607588D01*
X123557237Y-82613079D01*
X123544664Y-82619414D01*
X123529070Y-82626189D01*
X123529066Y-82626190D01*
X123427723Y-82687818D01*
X123425298Y-82689255D01*
X123327741Y-82745581D01*
X123313973Y-82756144D01*
X123302933Y-82763703D01*
X123282968Y-82775846D01*
X123282961Y-82775850D01*
X123195845Y-82846723D01*
X123193079Y-82848908D01*
X123108776Y-82913596D01*
X123108772Y-82913600D01*
X123092003Y-82930368D01*
X123082586Y-82938866D01*
X123059533Y-82957622D01*
X123059524Y-82957630D01*
X122987228Y-83035039D01*
X122984288Y-83038081D01*
X122913610Y-83108760D01*
X122913604Y-83108767D01*
X122895300Y-83132621D01*
X122887553Y-83141765D01*
X122862928Y-83168133D01*
X122862913Y-83168151D01*
X122805489Y-83249504D01*
X122802561Y-83253482D01*
X122745590Y-83327727D01*
X122745577Y-83327748D01*
X122727371Y-83359280D01*
X122721292Y-83368783D01*
X122696816Y-83403459D01*
X122653915Y-83486252D01*
X122651206Y-83491201D01*
X122607584Y-83566757D01*
X122607577Y-83566772D01*
X122591208Y-83606290D01*
X122586748Y-83615879D01*
X122564299Y-83659206D01*
X122564297Y-83659210D01*
X122535196Y-83741087D01*
X122532919Y-83747009D01*
X122501961Y-83821753D01*
X122489239Y-83869229D01*
X122486306Y-83878657D01*
X122467840Y-83930614D01*
X122467840Y-83930615D01*
X122451451Y-84009479D01*
X122449820Y-84016341D01*
X122430528Y-84088341D01*
X122430525Y-84088356D01*
X122423281Y-84143375D01*
X122421749Y-84152413D01*
X122409237Y-84212630D01*
X122409236Y-84212635D01*
X122404172Y-84286666D01*
X122403400Y-84294387D01*
X122394500Y-84361995D01*
X122394500Y-84423836D01*
X122394211Y-84432298D01*
X122389580Y-84499999D01*
X119100500Y-84499999D01*
X119100500Y-82800096D01*
X119120185Y-82733057D01*
X119136814Y-82712420D01*
X120358506Y-81490727D01*
X120358511Y-81490724D01*
X120368714Y-81480520D01*
X120368716Y-81480520D01*
X120480520Y-81368716D01*
X120559577Y-81231784D01*
X120600500Y-81079057D01*
X120600500Y-77300097D01*
X120620185Y-77233058D01*
X120636819Y-77212416D01*
X125712417Y-72136819D01*
X125773740Y-72103334D01*
X125800098Y-72100500D01*
X131265588Y-72100500D01*
X131332627Y-72120185D01*
X131353269Y-72136819D01*
X135363181Y-76146731D01*
X135396666Y-76208054D01*
X135399500Y-76234412D01*
X135399500Y-76314695D01*
X135379815Y-76381734D01*
X135346623Y-76416270D01*
X135185378Y-76529174D01*
X135029175Y-76685377D01*
X134902465Y-76866339D01*
X134837657Y-77005320D01*
X134812956Y-77040595D01*
X134381000Y-77472551D01*
X134381000Y-77449840D01*
X134355036Y-77352939D01*
X134304876Y-77266060D01*
X134233940Y-77195124D01*
X134147061Y-77144964D01*
X134050160Y-77119000D01*
X134027448Y-77119000D01*
X134698188Y-76448259D01*
X134698187Y-76448258D01*
X134633411Y-76402901D01*
X134633405Y-76402898D01*
X134433284Y-76309580D01*
X134433270Y-76309575D01*
X134219986Y-76252426D01*
X134219976Y-76252424D01*
X134000001Y-76233179D01*
X133999999Y-76233179D01*
X133780023Y-76252424D01*
X133780013Y-76252426D01*
X133566729Y-76309575D01*
X133566720Y-76309579D01*
X133366590Y-76402901D01*
X133301811Y-76448258D01*
X133972553Y-77119000D01*
X133949840Y-77119000D01*
X133852939Y-77144964D01*
X133766060Y-77195124D01*
X133695124Y-77266060D01*
X133644964Y-77352939D01*
X133619000Y-77449840D01*
X133619000Y-77472553D01*
X132948258Y-76801811D01*
X132902901Y-76866590D01*
X132809579Y-77066720D01*
X132809575Y-77066729D01*
X132752426Y-77280013D01*
X132752424Y-77280023D01*
X132733179Y-77499999D01*
X132752424Y-77719976D01*
X132752426Y-77719986D01*
X132809575Y-77933270D01*
X132809580Y-77933284D01*
X132902898Y-78133405D01*
X132902901Y-78133411D01*
X132948258Y-78198187D01*
X132948259Y-78198188D01*
X133619000Y-77527447D01*
X133619000Y-77550160D01*
X133644964Y-77647061D01*
X133695124Y-77733940D01*
X133766060Y-77804876D01*
X133852939Y-77855036D01*
X133949840Y-77881000D01*
X133972553Y-77881000D01*
X133301810Y-78551740D01*
X133366590Y-78597099D01*
X133366592Y-78597100D01*
X133566715Y-78690419D01*
X133566729Y-78690424D01*
X133780013Y-78747573D01*
X133780023Y-78747575D01*
X133999999Y-78766821D01*
X134000001Y-78766821D01*
X134219976Y-78747575D01*
X134219986Y-78747573D01*
X134433270Y-78690424D01*
X134433284Y-78690419D01*
X134633407Y-78597100D01*
X134633417Y-78597094D01*
X134698188Y-78551741D01*
X134027448Y-77881000D01*
X134050160Y-77881000D01*
X134147061Y-77855036D01*
X134233940Y-77804876D01*
X134304876Y-77733940D01*
X134355036Y-77647061D01*
X134381000Y-77550160D01*
X134381000Y-77527447D01*
X134812956Y-77959403D01*
X134837657Y-77994679D01*
X134902466Y-78133662D01*
X134902468Y-78133666D01*
X135029170Y-78314615D01*
X135029175Y-78314621D01*
X135185378Y-78470824D01*
X135185384Y-78470829D01*
X135366333Y-78597531D01*
X135366335Y-78597532D01*
X135366338Y-78597534D01*
X135566550Y-78690894D01*
X135779932Y-78748070D01*
X135937123Y-78761822D01*
X135999998Y-78767323D01*
X136000000Y-78767323D01*
X136000002Y-78767323D01*
X136055017Y-78762509D01*
X136220068Y-78748070D01*
X136433450Y-78690894D01*
X136633662Y-78597534D01*
X136814620Y-78470826D01*
X136912319Y-78373127D01*
X136973642Y-78339642D01*
X137043334Y-78344626D01*
X137087681Y-78373127D01*
X137185380Y-78470826D01*
X137346623Y-78583729D01*
X137390248Y-78638306D01*
X137399500Y-78685304D01*
X137399500Y-78917587D01*
X137379815Y-78984626D01*
X137372450Y-78994896D01*
X137370186Y-78997734D01*
X137274211Y-79150476D01*
X137214631Y-79320745D01*
X137214630Y-79320750D01*
X137194435Y-79499996D01*
X137194435Y-79500003D01*
X137214630Y-79679249D01*
X137214631Y-79679254D01*
X137274211Y-79849523D01*
X137368759Y-79999994D01*
X137370184Y-80002262D01*
X137497738Y-80129816D01*
X137650478Y-80225789D01*
X137820745Y-80285368D01*
X137820750Y-80285369D01*
X137999996Y-80305565D01*
X138000000Y-80305565D01*
X138000004Y-80305565D01*
X138179249Y-80285369D01*
X138179252Y-80285368D01*
X138179255Y-80285368D01*
X138349522Y-80225789D01*
X138502262Y-80129816D01*
X138629816Y-80002262D01*
X138725789Y-79849522D01*
X138785368Y-79679255D01*
X138805565Y-79500000D01*
X138785733Y-79323988D01*
X138785369Y-79320750D01*
X138785368Y-79320745D01*
X138725788Y-79150476D01*
X138629813Y-78997734D01*
X138627550Y-78994896D01*
X138626659Y-78992715D01*
X138626111Y-78991842D01*
X138626264Y-78991745D01*
X138601144Y-78930209D01*
X138600500Y-78917587D01*
X138600500Y-78685304D01*
X138620185Y-78618265D01*
X138653375Y-78583730D01*
X138814620Y-78470826D01*
X138970826Y-78314620D01*
X139097534Y-78133662D01*
X139190894Y-77933450D01*
X139248070Y-77720068D01*
X139267323Y-77500000D01*
X139248070Y-77279932D01*
X139190894Y-77066550D01*
X139097534Y-76866339D01*
X138970826Y-76685380D01*
X138814620Y-76529174D01*
X138814616Y-76529171D01*
X138814615Y-76529170D01*
X138633666Y-76402468D01*
X138633662Y-76402466D01*
X138589202Y-76381734D01*
X138433450Y-76309106D01*
X138433447Y-76309105D01*
X138433445Y-76309104D01*
X138220070Y-76251930D01*
X138220062Y-76251929D01*
X138000002Y-76232677D01*
X137999998Y-76232677D01*
X137779937Y-76251929D01*
X137779929Y-76251930D01*
X137566554Y-76309104D01*
X137566548Y-76309107D01*
X137366340Y-76402465D01*
X137366338Y-76402466D01*
X137185381Y-76529172D01*
X137087680Y-76626873D01*
X137026356Y-76660357D01*
X136956665Y-76655373D01*
X136912318Y-76626872D01*
X136814621Y-76529175D01*
X136814614Y-76529170D01*
X136800775Y-76519480D01*
X136772794Y-76499887D01*
X136653377Y-76416270D01*
X136609752Y-76361693D01*
X136600500Y-76314695D01*
X136600500Y-75855260D01*
X136600500Y-75855258D01*
X136559577Y-75702531D01*
X136530279Y-75651785D01*
X136480524Y-75565605D01*
X136480521Y-75565601D01*
X136480520Y-75565599D01*
X136368716Y-75453795D01*
X136368715Y-75453794D01*
X136364385Y-75449464D01*
X136364374Y-75449454D01*
X136201574Y-75286654D01*
X158600001Y-75286654D01*
X158610319Y-75387652D01*
X158664546Y-75551300D01*
X158664551Y-75551311D01*
X158755052Y-75698034D01*
X158755055Y-75698038D01*
X158876961Y-75819944D01*
X158876965Y-75819947D01*
X159023688Y-75910448D01*
X159023699Y-75910453D01*
X159187347Y-75964680D01*
X159288351Y-75974999D01*
X159387500Y-75974998D01*
X159387500Y-75250000D01*
X158600001Y-75250000D01*
X158600001Y-75286654D01*
X136201574Y-75286654D01*
X135628265Y-74713345D01*
X158600000Y-74713345D01*
X158600000Y-74750000D01*
X159387500Y-74750000D01*
X159387500Y-74024999D01*
X159288360Y-74025000D01*
X159288344Y-74025001D01*
X159187347Y-74035319D01*
X159023699Y-74089546D01*
X159023688Y-74089551D01*
X158876965Y-74180052D01*
X158876961Y-74180055D01*
X158755055Y-74301961D01*
X158755052Y-74301965D01*
X158664551Y-74448688D01*
X158664546Y-74448699D01*
X158610319Y-74612347D01*
X158600000Y-74713345D01*
X135628265Y-74713345D01*
X132053275Y-71138355D01*
X132053273Y-71138352D01*
X131934402Y-71019481D01*
X131934401Y-71019480D01*
X131847589Y-70969360D01*
X131847589Y-70969359D01*
X131847585Y-70969358D01*
X131797470Y-70940423D01*
X131644742Y-70899499D01*
X131486628Y-70899499D01*
X131479032Y-70899499D01*
X131479016Y-70899500D01*
X125586670Y-70899500D01*
X125586654Y-70899499D01*
X125579058Y-70899499D01*
X125420943Y-70899499D01*
X125344579Y-70919961D01*
X125268214Y-70940423D01*
X125268209Y-70940426D01*
X125131290Y-71019475D01*
X125131282Y-71019481D01*
X119519479Y-76631284D01*
X119505572Y-76655373D01*
X119488248Y-76685380D01*
X119440423Y-76768215D01*
X119399499Y-76920943D01*
X119399499Y-76920945D01*
X119399499Y-77089046D01*
X119399500Y-77089059D01*
X119399500Y-80699902D01*
X119379815Y-80766941D01*
X119363181Y-80787583D01*
X118019481Y-82131282D01*
X118019479Y-82131285D01*
X117969361Y-82218094D01*
X117969359Y-82218096D01*
X117940425Y-82268209D01*
X117940424Y-82268210D01*
X117940423Y-82268215D01*
X117899499Y-82420943D01*
X117899499Y-82420945D01*
X117899499Y-82589046D01*
X117899500Y-82589059D01*
X117899500Y-118413330D01*
X117899499Y-118413348D01*
X117899499Y-118579054D01*
X117899498Y-118579054D01*
X117940423Y-118731785D01*
X117969358Y-118781900D01*
X117969359Y-118781904D01*
X117969360Y-118781904D01*
X118019479Y-118868714D01*
X118019481Y-118868717D01*
X118138349Y-118987585D01*
X118138355Y-118987590D01*
X119515139Y-120364374D01*
X119515149Y-120364385D01*
X119519479Y-120368715D01*
X119519480Y-120368716D01*
X119631284Y-120480520D01*
X119631286Y-120480521D01*
X119631290Y-120480524D01*
X119753880Y-120551300D01*
X119768216Y-120559577D01*
X119880019Y-120589534D01*
X119920942Y-120600500D01*
X119920943Y-120600500D01*
X194366703Y-120600500D01*
X194433742Y-120620185D01*
X194478268Y-120671570D01*
X194478397Y-120671501D01*
X194478712Y-120672083D01*
X194479497Y-120672989D01*
X194480260Y-120674693D01*
X194480838Y-120676011D01*
X194609140Y-120872395D01*
X194609143Y-120872398D01*
X194768022Y-121044986D01*
X194953142Y-121189070D01*
X195159452Y-121300720D01*
X195274662Y-121340272D01*
X195381320Y-121376888D01*
X195381322Y-121376888D01*
X195381324Y-121376889D01*
X195612708Y-121415500D01*
X195612709Y-121415500D01*
X195705902Y-121415500D01*
X195772941Y-121435185D01*
X195818696Y-121487989D01*
X195828640Y-121557147D01*
X195799615Y-121620703D01*
X195793583Y-121627181D01*
X192939481Y-124481282D01*
X192939479Y-124481285D01*
X192889361Y-124568094D01*
X192889359Y-124568096D01*
X192860425Y-124618209D01*
X192860424Y-124618210D01*
X192860423Y-124618215D01*
X192819499Y-124770943D01*
X192819499Y-124770945D01*
X192819499Y-124939046D01*
X192819500Y-124939059D01*
X192819500Y-126960500D01*
X192799815Y-127027539D01*
X192747011Y-127073294D01*
X192695501Y-127084500D01*
X192457130Y-127084500D01*
X192457123Y-127084501D01*
X192397516Y-127090908D01*
X192262671Y-127141202D01*
X192262664Y-127141206D01*
X192147455Y-127227452D01*
X192147452Y-127227455D01*
X192061206Y-127342664D01*
X192061202Y-127342671D01*
X192010908Y-127477517D01*
X192006734Y-127516347D01*
X192004501Y-127537123D01*
X192004500Y-127537135D01*
X192004500Y-129462870D01*
X192004501Y-129462876D01*
X192010908Y-129522483D01*
X192061202Y-129657328D01*
X192061206Y-129657335D01*
X192147452Y-129772544D01*
X192147455Y-129772547D01*
X192262664Y-129858793D01*
X192262671Y-129858797D01*
X192397517Y-129909091D01*
X192397516Y-129909091D01*
X192404444Y-129909835D01*
X192457127Y-129915500D01*
X194382872Y-129915499D01*
X194442483Y-129909091D01*
X194577331Y-129858796D01*
X194692546Y-129772546D01*
X194778796Y-129657331D01*
X194829091Y-129522483D01*
X194835500Y-129462873D01*
X194835499Y-129322305D01*
X194855183Y-129255269D01*
X194871818Y-129234627D01*
X195579000Y-128527446D01*
X195579000Y-128550160D01*
X195604964Y-128647061D01*
X195655124Y-128733940D01*
X195726060Y-128804876D01*
X195812939Y-128855036D01*
X195909840Y-128881000D01*
X195932553Y-128881000D01*
X195150511Y-129663039D01*
X195150512Y-129663040D01*
X195183413Y-129688648D01*
X195183414Y-129688649D01*
X195389651Y-129800260D01*
X195389660Y-129800263D01*
X195611444Y-129876402D01*
X195842750Y-129915000D01*
X196077250Y-129915000D01*
X196308555Y-129876402D01*
X196530339Y-129800263D01*
X196530347Y-129800260D01*
X196736586Y-129688649D01*
X196736589Y-129688647D01*
X196769486Y-129663040D01*
X196769486Y-129663039D01*
X195987447Y-128881000D01*
X196010160Y-128881000D01*
X196107061Y-128855036D01*
X196193940Y-128804876D01*
X196264876Y-128733940D01*
X196315036Y-128647061D01*
X196341000Y-128550160D01*
X196341000Y-128527447D01*
X197122022Y-129308470D01*
X197125891Y-129302550D01*
X197179037Y-129257193D01*
X197248268Y-129247769D01*
X197311604Y-129277270D01*
X197333509Y-129302550D01*
X197379140Y-129372395D01*
X197379143Y-129372398D01*
X197538022Y-129544986D01*
X197690357Y-129663553D01*
X197722599Y-129688648D01*
X197723142Y-129689070D01*
X197929452Y-129800720D01*
X197960664Y-129811435D01*
X198151320Y-129876888D01*
X198151322Y-129876888D01*
X198151324Y-129876889D01*
X198382708Y-129915500D01*
X198382709Y-129915500D01*
X198617291Y-129915500D01*
X198617292Y-129915500D01*
X198848676Y-129876889D01*
X199070548Y-129800720D01*
X199276858Y-129689070D01*
X199461978Y-129544986D01*
X199620857Y-129372398D01*
X199749161Y-129176012D01*
X199843392Y-128961187D01*
X199900979Y-128733782D01*
X199908165Y-128647061D01*
X199920351Y-128500005D01*
X199920351Y-128499994D01*
X199900980Y-128266226D01*
X199900978Y-128266214D01*
X199843392Y-128038812D01*
X199826367Y-127999999D01*
X207389580Y-127999999D01*
X207394211Y-128067701D01*
X207394500Y-128076163D01*
X207394500Y-128138004D01*
X207403400Y-128205611D01*
X207404172Y-128213332D01*
X207409236Y-128287368D01*
X207421749Y-128347588D01*
X207423281Y-128356625D01*
X207430525Y-128411645D01*
X207430527Y-128411654D01*
X207449821Y-128483660D01*
X207451452Y-128490523D01*
X207467840Y-128569384D01*
X207467842Y-128569393D01*
X207486307Y-128621346D01*
X207489241Y-128630775D01*
X207501958Y-128678236D01*
X207501961Y-128678245D01*
X207501965Y-128678258D01*
X207532915Y-128752978D01*
X207535194Y-128758903D01*
X207564299Y-128840794D01*
X207564301Y-128840799D01*
X207564302Y-128840800D01*
X207586746Y-128884114D01*
X207591211Y-128893712D01*
X207607580Y-128933233D01*
X207607583Y-128933239D01*
X207651201Y-129008787D01*
X207653912Y-129013739D01*
X207696816Y-129096540D01*
X207721287Y-129131207D01*
X207727366Y-129140709D01*
X207745584Y-129172263D01*
X207745589Y-129172269D01*
X207745590Y-129172271D01*
X207802557Y-129246512D01*
X207805485Y-129250490D01*
X207862918Y-129331854D01*
X207862923Y-129331861D01*
X207887551Y-129358231D01*
X207895290Y-129367364D01*
X207913604Y-129391232D01*
X207984286Y-129461914D01*
X207987200Y-129464929D01*
X208059526Y-129542371D01*
X208082575Y-129561123D01*
X208082577Y-129561124D01*
X208092006Y-129569634D01*
X208108769Y-129586397D01*
X208193087Y-129651096D01*
X208195856Y-129653284D01*
X208282962Y-129724150D01*
X208302924Y-129736289D01*
X208313973Y-129743855D01*
X208327737Y-129754416D01*
X208327742Y-129754419D01*
X208327750Y-129754425D01*
X208425277Y-129810731D01*
X208427655Y-129812139D01*
X208529070Y-129873811D01*
X208544660Y-129880582D01*
X208557248Y-129886924D01*
X208566763Y-129892418D01*
X208676815Y-129938002D01*
X208678528Y-129938729D01*
X208781273Y-129983358D01*
X208793265Y-129988567D01*
X208803497Y-129991434D01*
X208817490Y-129996272D01*
X208821757Y-129998040D01*
X208942867Y-130030491D01*
X208944155Y-130030844D01*
X209070622Y-130066279D01*
X209074842Y-130066858D01*
X209084353Y-130068779D01*
X209084373Y-130068682D01*
X209088341Y-130069471D01*
X209088356Y-130069475D01*
X209219111Y-130086688D01*
X209219364Y-130086722D01*
X209333805Y-130102452D01*
X209355979Y-130105500D01*
X209355980Y-130105500D01*
X209644020Y-130105500D01*
X209780698Y-130086713D01*
X209780807Y-130086699D01*
X209911644Y-130069475D01*
X209911658Y-130069471D01*
X209915622Y-130068683D01*
X209915641Y-130068782D01*
X209925158Y-130066858D01*
X209929378Y-130066279D01*
X210055927Y-130030820D01*
X210057126Y-130030492D01*
X210178243Y-129998040D01*
X210182508Y-129996272D01*
X210196506Y-129991432D01*
X210206737Y-129988566D01*
X210321381Y-129938767D01*
X210323220Y-129937987D01*
X210433237Y-129892418D01*
X210442760Y-129886919D01*
X210455337Y-129880583D01*
X210470930Y-129873811D01*
X210572387Y-129812112D01*
X210574647Y-129810773D01*
X210672263Y-129754416D01*
X210686024Y-129743856D01*
X210697071Y-129736291D01*
X210717038Y-129724150D01*
X210804208Y-129653230D01*
X210806868Y-129651129D01*
X210891232Y-129586396D01*
X210908009Y-129569617D01*
X210917405Y-129561138D01*
X210940474Y-129542371D01*
X211012799Y-129464928D01*
X211015713Y-129461914D01*
X211015742Y-129461885D01*
X211086396Y-129391232D01*
X211104704Y-129367372D01*
X211112437Y-129358243D01*
X211137077Y-129331861D01*
X211194522Y-129250477D01*
X211197441Y-129246512D01*
X211254416Y-129172263D01*
X211272632Y-129140709D01*
X211278710Y-129131210D01*
X211303184Y-129096540D01*
X211346103Y-129013707D01*
X211348766Y-129008842D01*
X211392418Y-128933237D01*
X211408790Y-128893708D01*
X211413253Y-128884114D01*
X211435701Y-128840794D01*
X211464812Y-128758881D01*
X211467070Y-128753009D01*
X211498040Y-128678243D01*
X211510758Y-128630774D01*
X211513689Y-128621353D01*
X211532160Y-128569385D01*
X211548550Y-128490507D01*
X211550178Y-128483660D01*
X211569475Y-128411644D01*
X211576722Y-128356586D01*
X211578245Y-128347601D01*
X211590763Y-128287369D01*
X211595827Y-128213314D01*
X211596592Y-128205651D01*
X211605500Y-128138002D01*
X211605500Y-128076163D01*
X211605789Y-128067701D01*
X211607765Y-128038812D01*
X211610420Y-128000000D01*
X211605788Y-127932297D01*
X211605500Y-127923836D01*
X211605500Y-127862003D01*
X211605499Y-127861995D01*
X211596597Y-127794381D01*
X211595826Y-127786661D01*
X211593471Y-127752229D01*
X211590763Y-127712631D01*
X211578244Y-127652388D01*
X211576723Y-127643417D01*
X211569475Y-127588356D01*
X211550180Y-127516347D01*
X211548548Y-127509482D01*
X211532160Y-127430615D01*
X211513689Y-127378645D01*
X211510759Y-127369229D01*
X211498040Y-127321757D01*
X211467067Y-127246982D01*
X211464812Y-127241117D01*
X211441817Y-127176416D01*
X211435702Y-127159208D01*
X211426373Y-127141204D01*
X211413248Y-127115876D01*
X211408788Y-127106286D01*
X211402419Y-127090909D01*
X211392418Y-127066763D01*
X211360807Y-127012011D01*
X211348793Y-126991202D01*
X211346082Y-126986250D01*
X211303183Y-126903459D01*
X211278711Y-126868790D01*
X211272627Y-126859280D01*
X211254417Y-126827739D01*
X211254416Y-126827737D01*
X211197431Y-126753474D01*
X211194515Y-126749512D01*
X211137077Y-126668139D01*
X211112450Y-126641769D01*
X211104698Y-126632620D01*
X211086397Y-126608769D01*
X211086388Y-126608760D01*
X211015709Y-126538081D01*
X211012798Y-126535068D01*
X210940469Y-126457624D01*
X210917420Y-126438872D01*
X210907995Y-126430366D01*
X210891237Y-126413608D01*
X210891230Y-126413602D01*
X210806911Y-126348902D01*
X210804143Y-126346715D01*
X210799886Y-126343252D01*
X210717038Y-126275850D01*
X210697069Y-126263706D01*
X210686024Y-126256143D01*
X210672263Y-126245584D01*
X210672257Y-126245580D01*
X210672254Y-126245578D01*
X210574720Y-126189267D01*
X210572292Y-126187828D01*
X210470930Y-126126189D01*
X210455345Y-126119419D01*
X210442757Y-126113078D01*
X210433247Y-126107588D01*
X210433237Y-126107582D01*
X210433235Y-126107581D01*
X210433227Y-126107577D01*
X210323289Y-126062040D01*
X210321340Y-126061213D01*
X210206737Y-126011434D01*
X210206731Y-126011432D01*
X210196497Y-126008564D01*
X210182514Y-126003729D01*
X210178243Y-126001960D01*
X210171448Y-126000139D01*
X210057167Y-125969516D01*
X210055808Y-125969144D01*
X209929372Y-125933719D01*
X209925142Y-125933138D01*
X209915645Y-125931220D01*
X209915626Y-125931317D01*
X209911649Y-125930526D01*
X209911646Y-125930525D01*
X209911644Y-125930525D01*
X209781065Y-125913333D01*
X209780377Y-125913241D01*
X209644022Y-125894500D01*
X209644020Y-125894500D01*
X209355980Y-125894500D01*
X209355975Y-125894500D01*
X209219620Y-125913240D01*
X209218923Y-125913334D01*
X209088367Y-125930523D01*
X209088358Y-125930524D01*
X209088356Y-125930525D01*
X209088353Y-125930525D01*
X209084387Y-125931315D01*
X209084368Y-125931220D01*
X209074860Y-125933137D01*
X209070638Y-125933717D01*
X209070624Y-125933720D01*
X208944213Y-125969138D01*
X208942854Y-125969510D01*
X208821758Y-126001958D01*
X208817476Y-126003732D01*
X208803506Y-126008563D01*
X208793268Y-126011432D01*
X208793250Y-126011438D01*
X208678679Y-126061204D01*
X208676731Y-126062031D01*
X208566759Y-126107583D01*
X208566749Y-126107588D01*
X208557237Y-126113079D01*
X208544664Y-126119414D01*
X208529070Y-126126189D01*
X208529066Y-126126190D01*
X208427723Y-126187818D01*
X208425298Y-126189255D01*
X208327741Y-126245581D01*
X208313973Y-126256144D01*
X208302933Y-126263703D01*
X208282968Y-126275846D01*
X208282961Y-126275850D01*
X208195845Y-126346723D01*
X208193079Y-126348908D01*
X208108776Y-126413596D01*
X208108772Y-126413600D01*
X208092003Y-126430368D01*
X208082586Y-126438866D01*
X208059533Y-126457622D01*
X208059524Y-126457630D01*
X207987228Y-126535039D01*
X207984288Y-126538081D01*
X207913610Y-126608760D01*
X207913604Y-126608767D01*
X207895300Y-126632621D01*
X207887553Y-126641765D01*
X207862928Y-126668133D01*
X207862913Y-126668151D01*
X207805489Y-126749504D01*
X207802561Y-126753482D01*
X207745590Y-126827727D01*
X207745577Y-126827748D01*
X207727371Y-126859280D01*
X207721292Y-126868783D01*
X207696816Y-126903459D01*
X207653915Y-126986252D01*
X207651206Y-126991201D01*
X207607584Y-127066757D01*
X207607577Y-127066772D01*
X207591208Y-127106290D01*
X207586748Y-127115879D01*
X207564299Y-127159206D01*
X207564297Y-127159210D01*
X207535196Y-127241087D01*
X207532919Y-127247009D01*
X207501961Y-127321753D01*
X207489239Y-127369229D01*
X207486306Y-127378657D01*
X207467840Y-127430614D01*
X207467840Y-127430615D01*
X207451451Y-127509479D01*
X207449820Y-127516341D01*
X207430528Y-127588341D01*
X207430525Y-127588356D01*
X207423281Y-127643375D01*
X207421749Y-127652413D01*
X207409237Y-127712630D01*
X207409236Y-127712635D01*
X207404172Y-127786666D01*
X207403400Y-127794387D01*
X207394500Y-127861995D01*
X207394500Y-127923836D01*
X207394211Y-127932298D01*
X207389580Y-127999999D01*
X199826367Y-127999999D01*
X199749161Y-127823988D01*
X199620859Y-127627604D01*
X199537570Y-127537129D01*
X199461978Y-127455014D01*
X199317639Y-127342671D01*
X199276860Y-127310931D01*
X199276855Y-127310928D01*
X199165481Y-127250654D01*
X199115891Y-127201434D01*
X199100500Y-127141600D01*
X199100500Y-125988451D01*
X199120185Y-125921412D01*
X199159402Y-125882913D01*
X199260850Y-125820340D01*
X199382840Y-125698350D01*
X199473408Y-125551516D01*
X199527674Y-125387753D01*
X199538000Y-125286677D01*
X199537999Y-124713324D01*
X199535521Y-124689070D01*
X199527674Y-124612247D01*
X199473408Y-124448484D01*
X199382840Y-124301650D01*
X199260850Y-124179660D01*
X199260846Y-124179657D01*
X199159403Y-124117086D01*
X199112678Y-124065138D01*
X199100500Y-124011548D01*
X199100500Y-123900908D01*
X199120185Y-123833869D01*
X199172989Y-123788114D01*
X199183536Y-123783869D01*
X199349522Y-123725789D01*
X199502262Y-123629816D01*
X199629816Y-123502262D01*
X199725789Y-123349522D01*
X199785368Y-123179255D01*
X199785369Y-123179249D01*
X199805565Y-123000003D01*
X199805565Y-122999996D01*
X199785369Y-122820750D01*
X199785368Y-122820745D01*
X199761393Y-122752229D01*
X199725789Y-122650478D01*
X199629816Y-122497738D01*
X199502262Y-122370184D01*
X199449385Y-122336959D01*
X199349523Y-122274211D01*
X199179254Y-122214631D01*
X199179249Y-122214630D01*
X199000004Y-122194435D01*
X198999996Y-122194435D01*
X198820750Y-122214630D01*
X198820745Y-122214631D01*
X198650476Y-122274211D01*
X198497737Y-122370184D01*
X198370184Y-122497737D01*
X198274210Y-122650478D01*
X198214630Y-122820750D01*
X198204837Y-122907666D01*
X198177770Y-122972080D01*
X198169299Y-122981462D01*
X198124237Y-123026524D01*
X198124212Y-123026552D01*
X198019478Y-123131285D01*
X197995401Y-123172989D01*
X197988248Y-123185380D01*
X197940423Y-123268215D01*
X197899499Y-123420943D01*
X197899499Y-123420945D01*
X197899499Y-123589046D01*
X197899500Y-123589059D01*
X197899500Y-124011548D01*
X197879815Y-124078587D01*
X197840597Y-124117086D01*
X197739153Y-124179657D01*
X197739148Y-124179661D01*
X197724825Y-124193984D01*
X197663501Y-124227468D01*
X197593809Y-124222482D01*
X197549465Y-124193982D01*
X197535538Y-124180055D01*
X197535534Y-124180052D01*
X197388811Y-124089551D01*
X197388800Y-124089546D01*
X197225152Y-124035319D01*
X197124154Y-124025000D01*
X197025000Y-124025000D01*
X197025000Y-125974999D01*
X197124140Y-125974999D01*
X197124154Y-125974998D01*
X197225152Y-125964680D01*
X197388800Y-125910453D01*
X197388811Y-125910448D01*
X197535535Y-125819947D01*
X197549460Y-125806021D01*
X197610782Y-125772533D01*
X197680473Y-125777514D01*
X197724827Y-125806017D01*
X197739150Y-125820340D01*
X197840596Y-125882912D01*
X197887321Y-125934860D01*
X197899500Y-125988451D01*
X197899500Y-127141600D01*
X197879815Y-127208639D01*
X197834519Y-127250654D01*
X197723144Y-127310928D01*
X197723139Y-127310931D01*
X197592498Y-127412613D01*
X197538022Y-127455014D01*
X197538019Y-127455016D01*
X197538019Y-127455017D01*
X197379140Y-127627604D01*
X197333510Y-127697448D01*
X197280363Y-127742805D01*
X197211132Y-127752229D01*
X197147796Y-127722727D01*
X197125893Y-127697450D01*
X197122023Y-127691527D01*
X196341000Y-128472551D01*
X196341000Y-128449840D01*
X196315036Y-128352939D01*
X196264876Y-128266060D01*
X196193940Y-128195124D01*
X196107061Y-128144964D01*
X196010160Y-128119000D01*
X195987448Y-128119000D01*
X196769487Y-127336959D01*
X196769487Y-127336958D01*
X196736585Y-127311350D01*
X196530348Y-127199739D01*
X196530339Y-127199736D01*
X196308555Y-127123597D01*
X196077250Y-127085000D01*
X195842750Y-127085000D01*
X195611444Y-127123597D01*
X195389660Y-127199736D01*
X195389651Y-127199739D01*
X195183413Y-127311350D01*
X195183407Y-127311354D01*
X195150512Y-127336957D01*
X195150512Y-127336959D01*
X195932553Y-128119000D01*
X195909840Y-128119000D01*
X195812939Y-128144964D01*
X195726060Y-128195124D01*
X195655124Y-128266060D01*
X195604964Y-128352939D01*
X195579000Y-128449840D01*
X195579000Y-128472553D01*
X194871818Y-127765371D01*
X194838333Y-127704048D01*
X194835499Y-127677690D01*
X194835499Y-127537129D01*
X194835498Y-127537123D01*
X194835497Y-127537116D01*
X194829091Y-127477517D01*
X194811597Y-127430614D01*
X194778797Y-127342671D01*
X194778793Y-127342664D01*
X194692547Y-127227455D01*
X194692544Y-127227452D01*
X194577335Y-127141206D01*
X194577328Y-127141202D01*
X194442482Y-127090908D01*
X194442483Y-127090908D01*
X194382883Y-127084501D01*
X194382881Y-127084500D01*
X194382873Y-127084500D01*
X194382865Y-127084500D01*
X194144500Y-127084500D01*
X194077461Y-127064815D01*
X194031706Y-127012011D01*
X194020500Y-126960500D01*
X194020500Y-125286654D01*
X195737501Y-125286654D01*
X195747819Y-125387652D01*
X195802046Y-125551300D01*
X195802051Y-125551311D01*
X195892552Y-125698034D01*
X195892555Y-125698038D01*
X196014461Y-125819944D01*
X196014465Y-125819947D01*
X196161188Y-125910448D01*
X196161199Y-125910453D01*
X196324847Y-125964680D01*
X196425851Y-125974999D01*
X196525000Y-125974998D01*
X196525000Y-125250000D01*
X195737501Y-125250000D01*
X195737501Y-125286654D01*
X194020500Y-125286654D01*
X194020500Y-125150097D01*
X194040185Y-125083058D01*
X194056819Y-125062416D01*
X194405890Y-124713345D01*
X195737500Y-124713345D01*
X195737500Y-124750000D01*
X196525000Y-124750000D01*
X196525000Y-124024999D01*
X196425860Y-124025000D01*
X196425844Y-124025001D01*
X196324847Y-124035319D01*
X196161199Y-124089546D01*
X196161188Y-124089551D01*
X196014465Y-124180052D01*
X196014461Y-124180055D01*
X195892555Y-124301961D01*
X195892552Y-124301965D01*
X195802051Y-124448688D01*
X195802046Y-124448699D01*
X195747819Y-124612347D01*
X195737500Y-124713345D01*
X194405890Y-124713345D01*
X195892190Y-123227045D01*
X197733355Y-121385879D01*
X197794676Y-121352396D01*
X197861295Y-121356280D01*
X197921324Y-121376889D01*
X198152708Y-121415500D01*
X198387291Y-121415500D01*
X198387292Y-121415500D01*
X198618676Y-121376889D01*
X198840548Y-121300720D01*
X199046858Y-121189070D01*
X199231978Y-121044986D01*
X199390857Y-120872398D01*
X199519161Y-120676012D01*
X199613392Y-120461187D01*
X199670979Y-120233782D01*
X199690351Y-120000000D01*
X199670979Y-119766218D01*
X199657582Y-119713313D01*
X199613392Y-119538812D01*
X199519161Y-119323988D01*
X199390859Y-119127604D01*
X199345735Y-119078587D01*
X199231978Y-118955014D01*
X199101334Y-118853330D01*
X199046860Y-118810931D01*
X198840548Y-118699280D01*
X198840540Y-118699277D01*
X198618679Y-118623111D01*
X198445138Y-118594152D01*
X198387292Y-118584500D01*
X198152708Y-118584500D01*
X198123759Y-118589330D01*
X197921323Y-118623110D01*
X197861296Y-118643718D01*
X197791497Y-118646867D01*
X197733353Y-118614117D01*
X195757590Y-116638355D01*
X195757588Y-116638352D01*
X195638717Y-116519481D01*
X195638716Y-116519480D01*
X195551904Y-116469360D01*
X195551904Y-116469359D01*
X195551900Y-116469358D01*
X195501785Y-116440423D01*
X195349057Y-116399499D01*
X195190943Y-116399499D01*
X195183347Y-116399499D01*
X195183331Y-116399500D01*
X188800098Y-116399500D01*
X188733059Y-116379815D01*
X188712417Y-116363181D01*
X184001819Y-111652583D01*
X183968334Y-111591260D01*
X183965500Y-111564902D01*
X183965500Y-103639499D01*
X183985185Y-103572460D01*
X184037989Y-103526705D01*
X184089500Y-103515499D01*
X185542871Y-103515499D01*
X185542872Y-103515499D01*
X185602483Y-103509091D01*
X185737329Y-103458797D01*
X185737329Y-103458796D01*
X185737331Y-103458796D01*
X185775689Y-103430080D01*
X185841152Y-103405663D01*
X185909425Y-103420514D01*
X185924306Y-103430077D01*
X185962669Y-103458796D01*
X185962670Y-103458796D01*
X185962670Y-103458797D01*
X186097517Y-103509091D01*
X186097516Y-103509091D01*
X186104444Y-103509835D01*
X186157127Y-103515500D01*
X188082872Y-103515499D01*
X188142483Y-103509091D01*
X188277329Y-103458797D01*
X188277329Y-103458796D01*
X188277331Y-103458796D01*
X188315689Y-103430080D01*
X188381152Y-103405663D01*
X188449425Y-103420514D01*
X188464306Y-103430077D01*
X188502669Y-103458796D01*
X188502670Y-103458796D01*
X188502670Y-103458797D01*
X188637517Y-103509091D01*
X188637516Y-103509091D01*
X188644444Y-103509835D01*
X188697127Y-103515500D01*
X190622872Y-103515499D01*
X190682483Y-103509091D01*
X190817329Y-103458797D01*
X190817329Y-103458796D01*
X190817331Y-103458796D01*
X190855689Y-103430080D01*
X190921152Y-103405663D01*
X190989425Y-103420514D01*
X191004306Y-103430077D01*
X191042669Y-103458796D01*
X191042670Y-103458796D01*
X191042670Y-103458797D01*
X191177517Y-103509091D01*
X191177516Y-103509091D01*
X191184444Y-103509835D01*
X191237127Y-103515500D01*
X193162872Y-103515499D01*
X193222483Y-103509091D01*
X193357329Y-103458797D01*
X193357329Y-103458796D01*
X193357331Y-103458796D01*
X193395689Y-103430080D01*
X193461152Y-103405663D01*
X193529425Y-103420514D01*
X193544306Y-103430077D01*
X193582669Y-103458796D01*
X193582670Y-103458796D01*
X193582670Y-103458797D01*
X193717517Y-103509091D01*
X193717516Y-103509091D01*
X193724444Y-103509835D01*
X193777127Y-103515500D01*
X195702872Y-103515499D01*
X195762483Y-103509091D01*
X195897329Y-103458797D01*
X195897329Y-103458796D01*
X195897331Y-103458796D01*
X195935689Y-103430080D01*
X196001152Y-103405663D01*
X196069425Y-103420514D01*
X196084306Y-103430077D01*
X196122669Y-103458796D01*
X196122670Y-103458796D01*
X196122670Y-103458797D01*
X196257517Y-103509091D01*
X196257516Y-103509091D01*
X196264444Y-103509835D01*
X196317127Y-103515500D01*
X198242872Y-103515499D01*
X198302483Y-103509091D01*
X198437329Y-103458797D01*
X198437329Y-103458796D01*
X198437331Y-103458796D01*
X198475689Y-103430080D01*
X198541152Y-103405663D01*
X198609425Y-103420514D01*
X198624306Y-103430077D01*
X198662669Y-103458796D01*
X198662670Y-103458796D01*
X198662670Y-103458797D01*
X198797517Y-103509091D01*
X198797516Y-103509091D01*
X198804444Y-103509835D01*
X198857127Y-103515500D01*
X200782872Y-103515499D01*
X200842483Y-103509091D01*
X200977329Y-103458797D01*
X200977329Y-103458796D01*
X200977331Y-103458796D01*
X201015689Y-103430080D01*
X201081152Y-103405663D01*
X201149425Y-103420514D01*
X201164306Y-103430077D01*
X201202669Y-103458796D01*
X201202670Y-103458796D01*
X201202670Y-103458797D01*
X201337517Y-103509091D01*
X201337516Y-103509091D01*
X201344444Y-103509835D01*
X201397127Y-103515500D01*
X203322872Y-103515499D01*
X203382483Y-103509091D01*
X203517329Y-103458797D01*
X203517329Y-103458796D01*
X203517331Y-103458796D01*
X203555689Y-103430080D01*
X203621152Y-103405663D01*
X203689425Y-103420514D01*
X203704306Y-103430077D01*
X203742669Y-103458796D01*
X203742670Y-103458796D01*
X203742670Y-103458797D01*
X203877517Y-103509091D01*
X203877516Y-103509091D01*
X203884444Y-103509835D01*
X203937127Y-103515500D01*
X205862872Y-103515499D01*
X205922483Y-103509091D01*
X206057329Y-103458797D01*
X206057329Y-103458796D01*
X206057331Y-103458796D01*
X206095689Y-103430080D01*
X206161152Y-103405663D01*
X206229425Y-103420514D01*
X206244306Y-103430077D01*
X206282669Y-103458796D01*
X206282670Y-103458796D01*
X206282670Y-103458797D01*
X206417517Y-103509091D01*
X206417516Y-103509091D01*
X206424444Y-103509835D01*
X206477127Y-103515500D01*
X208402872Y-103515499D01*
X208462483Y-103509091D01*
X208597329Y-103458797D01*
X208597329Y-103458796D01*
X208597331Y-103458796D01*
X208635689Y-103430080D01*
X208701152Y-103405663D01*
X208769425Y-103420514D01*
X208784306Y-103430077D01*
X208822669Y-103458796D01*
X208822670Y-103458796D01*
X208822670Y-103458797D01*
X208957517Y-103509091D01*
X208957516Y-103509091D01*
X208964444Y-103509835D01*
X209017127Y-103515500D01*
X210942872Y-103515499D01*
X211002483Y-103509091D01*
X211137331Y-103458796D01*
X211252546Y-103372546D01*
X211338796Y-103257331D01*
X211389091Y-103122483D01*
X211395500Y-103062873D01*
X211395499Y-101137128D01*
X211389091Y-101077517D01*
X211370576Y-101027877D01*
X211338797Y-100942671D01*
X211338793Y-100942664D01*
X211252547Y-100827455D01*
X211252544Y-100827452D01*
X211137335Y-100741206D01*
X211137328Y-100741202D01*
X211002482Y-100690908D01*
X211002483Y-100690908D01*
X210942883Y-100684501D01*
X210942881Y-100684500D01*
X210942873Y-100684500D01*
X210942864Y-100684500D01*
X209017129Y-100684500D01*
X209017123Y-100684501D01*
X208957516Y-100690908D01*
X208822671Y-100741202D01*
X208822669Y-100741203D01*
X208784310Y-100769919D01*
X208718845Y-100794335D01*
X208650572Y-100779483D01*
X208635690Y-100769919D01*
X208597330Y-100741203D01*
X208597328Y-100741202D01*
X208462482Y-100690908D01*
X208462483Y-100690908D01*
X208402883Y-100684501D01*
X208402881Y-100684500D01*
X208402873Y-100684500D01*
X208402864Y-100684500D01*
X206477129Y-100684500D01*
X206477123Y-100684501D01*
X206417516Y-100690908D01*
X206282671Y-100741202D01*
X206282669Y-100741203D01*
X206244310Y-100769919D01*
X206178845Y-100794335D01*
X206110572Y-100779483D01*
X206095690Y-100769919D01*
X206057330Y-100741203D01*
X206057328Y-100741202D01*
X205922482Y-100690908D01*
X205922483Y-100690908D01*
X205862883Y-100684501D01*
X205862881Y-100684500D01*
X205862873Y-100684500D01*
X205862864Y-100684500D01*
X203937129Y-100684500D01*
X203937123Y-100684501D01*
X203877516Y-100690908D01*
X203742671Y-100741202D01*
X203742669Y-100741203D01*
X203704310Y-100769919D01*
X203638845Y-100794335D01*
X203570572Y-100779483D01*
X203555690Y-100769919D01*
X203517330Y-100741203D01*
X203517328Y-100741202D01*
X203382482Y-100690908D01*
X203382483Y-100690908D01*
X203322883Y-100684501D01*
X203322881Y-100684500D01*
X203322873Y-100684500D01*
X203322864Y-100684500D01*
X201397129Y-100684500D01*
X201397123Y-100684501D01*
X201337516Y-100690908D01*
X201202671Y-100741202D01*
X201202669Y-100741203D01*
X201164310Y-100769919D01*
X201098845Y-100794335D01*
X201030572Y-100779483D01*
X201015690Y-100769919D01*
X200977330Y-100741203D01*
X200977328Y-100741202D01*
X200842482Y-100690908D01*
X200842483Y-100690908D01*
X200782883Y-100684501D01*
X200782881Y-100684500D01*
X200782873Y-100684500D01*
X200782864Y-100684500D01*
X198857129Y-100684500D01*
X198857123Y-100684501D01*
X198797516Y-100690908D01*
X198662671Y-100741202D01*
X198662669Y-100741203D01*
X198624310Y-100769919D01*
X198558845Y-100794335D01*
X198490572Y-100779483D01*
X198475690Y-100769919D01*
X198437330Y-100741203D01*
X198437328Y-100741202D01*
X198302482Y-100690908D01*
X198302483Y-100690908D01*
X198242883Y-100684501D01*
X198242881Y-100684500D01*
X198242873Y-100684500D01*
X198242864Y-100684500D01*
X196317129Y-100684500D01*
X196317123Y-100684501D01*
X196257516Y-100690908D01*
X196122671Y-100741202D01*
X196122669Y-100741203D01*
X196084310Y-100769919D01*
X196018845Y-100794335D01*
X195950572Y-100779483D01*
X195935690Y-100769919D01*
X195897330Y-100741203D01*
X195897328Y-100741202D01*
X195762482Y-100690908D01*
X195762483Y-100690908D01*
X195702883Y-100684501D01*
X195702881Y-100684500D01*
X195702873Y-100684500D01*
X195702864Y-100684500D01*
X193777129Y-100684500D01*
X193777123Y-100684501D01*
X193717516Y-100690908D01*
X193582671Y-100741202D01*
X193582669Y-100741203D01*
X193544310Y-100769919D01*
X193478845Y-100794335D01*
X193410572Y-100779483D01*
X193395690Y-100769919D01*
X193357330Y-100741203D01*
X193357328Y-100741202D01*
X193222482Y-100690908D01*
X193222483Y-100690908D01*
X193162883Y-100684501D01*
X193162881Y-100684500D01*
X193162873Y-100684500D01*
X193162864Y-100684500D01*
X191237129Y-100684500D01*
X191237123Y-100684501D01*
X191177516Y-100690908D01*
X191042671Y-100741202D01*
X191042669Y-100741203D01*
X191004310Y-100769919D01*
X190938845Y-100794335D01*
X190870572Y-100779483D01*
X190855690Y-100769919D01*
X190817330Y-100741203D01*
X190817328Y-100741202D01*
X190682482Y-100690908D01*
X190682483Y-100690908D01*
X190622883Y-100684501D01*
X190622881Y-100684500D01*
X190622873Y-100684500D01*
X190622864Y-100684500D01*
X188697129Y-100684500D01*
X188697123Y-100684501D01*
X188637516Y-100690908D01*
X188502671Y-100741202D01*
X188502669Y-100741203D01*
X188464310Y-100769919D01*
X188398845Y-100794335D01*
X188330572Y-100779483D01*
X188315690Y-100769919D01*
X188277330Y-100741203D01*
X188277328Y-100741202D01*
X188142482Y-100690908D01*
X188142483Y-100690908D01*
X188082883Y-100684501D01*
X188082881Y-100684500D01*
X188082873Y-100684500D01*
X188082864Y-100684500D01*
X186157129Y-100684500D01*
X186157123Y-100684501D01*
X186097516Y-100690908D01*
X185962671Y-100741202D01*
X185962669Y-100741203D01*
X185924310Y-100769919D01*
X185858845Y-100794335D01*
X185790572Y-100779483D01*
X185775690Y-100769919D01*
X185737330Y-100741203D01*
X185737328Y-100741202D01*
X185602482Y-100690908D01*
X185602483Y-100690908D01*
X185542883Y-100684501D01*
X185542881Y-100684500D01*
X185542873Y-100684500D01*
X185542865Y-100684500D01*
X184089500Y-100684500D01*
X184022461Y-100664815D01*
X183976706Y-100612011D01*
X183965500Y-100560500D01*
X183965500Y-99539499D01*
X183985185Y-99472460D01*
X184037989Y-99426705D01*
X184089500Y-99415499D01*
X185255769Y-99415499D01*
X185322808Y-99435184D01*
X185363153Y-99477494D01*
X185374358Y-99496901D01*
X185374359Y-99496904D01*
X185374360Y-99496904D01*
X185424479Y-99583714D01*
X185424481Y-99583717D01*
X185543349Y-99702585D01*
X185543355Y-99702590D01*
X185705139Y-99864374D01*
X185705149Y-99864385D01*
X185709479Y-99868715D01*
X185709480Y-99868716D01*
X185821284Y-99980520D01*
X185887294Y-100018630D01*
X185908095Y-100030639D01*
X185908097Y-100030641D01*
X185946151Y-100052611D01*
X185958215Y-100059577D01*
X186110943Y-100100501D01*
X186110946Y-100100501D01*
X186276653Y-100100501D01*
X186276669Y-100100500D01*
X203313331Y-100100500D01*
X203313347Y-100100501D01*
X203320943Y-100100501D01*
X203479054Y-100100501D01*
X203479057Y-100100501D01*
X203631785Y-100059577D01*
X203681904Y-100030639D01*
X203768716Y-99980520D01*
X203880520Y-99868716D01*
X203880520Y-99868714D01*
X203890728Y-99858507D01*
X203890730Y-99858504D01*
X204297416Y-99451818D01*
X204358739Y-99418333D01*
X204385097Y-99415499D01*
X205862871Y-99415499D01*
X205862872Y-99415499D01*
X205922483Y-99409091D01*
X206057329Y-99358797D01*
X206057329Y-99358796D01*
X206057331Y-99358796D01*
X206095689Y-99330080D01*
X206161152Y-99305663D01*
X206229425Y-99320514D01*
X206244306Y-99330077D01*
X206282669Y-99358796D01*
X206282670Y-99358796D01*
X206282670Y-99358797D01*
X206417517Y-99409091D01*
X206417516Y-99409091D01*
X206424444Y-99409835D01*
X206477127Y-99415500D01*
X208402872Y-99415499D01*
X208462483Y-99409091D01*
X208597329Y-99358797D01*
X208597329Y-99358796D01*
X208597331Y-99358796D01*
X208635689Y-99330080D01*
X208701152Y-99305663D01*
X208769425Y-99320514D01*
X208784306Y-99330077D01*
X208822669Y-99358796D01*
X208822670Y-99358796D01*
X208822670Y-99358797D01*
X208957517Y-99409091D01*
X208957516Y-99409091D01*
X208964444Y-99409835D01*
X209017127Y-99415500D01*
X210942872Y-99415499D01*
X211002483Y-99409091D01*
X211137331Y-99358796D01*
X211252546Y-99272546D01*
X211338796Y-99157331D01*
X211389091Y-99022483D01*
X211395500Y-98962873D01*
X211395499Y-97037128D01*
X211389091Y-96977517D01*
X211346891Y-96864374D01*
X211338797Y-96842671D01*
X211338793Y-96842664D01*
X211252547Y-96727455D01*
X211252544Y-96727452D01*
X211137335Y-96641206D01*
X211137328Y-96641202D01*
X211002482Y-96590908D01*
X211002483Y-96590908D01*
X210942883Y-96584501D01*
X210942881Y-96584500D01*
X210942873Y-96584500D01*
X210942864Y-96584500D01*
X209017129Y-96584500D01*
X209017123Y-96584501D01*
X208957516Y-96590908D01*
X208822671Y-96641202D01*
X208822669Y-96641203D01*
X208784310Y-96669919D01*
X208718845Y-96694335D01*
X208650572Y-96679483D01*
X208635690Y-96669919D01*
X208597330Y-96641203D01*
X208597328Y-96641202D01*
X208462482Y-96590908D01*
X208462483Y-96590908D01*
X208402883Y-96584501D01*
X208402881Y-96584500D01*
X208402873Y-96584500D01*
X208402864Y-96584500D01*
X206477129Y-96584500D01*
X206477123Y-96584501D01*
X206417516Y-96590908D01*
X206282671Y-96641202D01*
X206282669Y-96641203D01*
X206244310Y-96669919D01*
X206178845Y-96694335D01*
X206110572Y-96679483D01*
X206095690Y-96669919D01*
X206057330Y-96641203D01*
X206057328Y-96641202D01*
X205922482Y-96590908D01*
X205922483Y-96590908D01*
X205862883Y-96584501D01*
X205862881Y-96584500D01*
X205862873Y-96584500D01*
X205862864Y-96584500D01*
X203937129Y-96584500D01*
X203937123Y-96584501D01*
X203877516Y-96590908D01*
X203742671Y-96641202D01*
X203742669Y-96641203D01*
X203704310Y-96669919D01*
X203638845Y-96694335D01*
X203570572Y-96679483D01*
X203555690Y-96669919D01*
X203517330Y-96641203D01*
X203517328Y-96641202D01*
X203382482Y-96590908D01*
X203382483Y-96590908D01*
X203322883Y-96584501D01*
X203322881Y-96584500D01*
X203322873Y-96584500D01*
X203322864Y-96584500D01*
X201397129Y-96584500D01*
X201397123Y-96584501D01*
X201337516Y-96590908D01*
X201202671Y-96641202D01*
X201202669Y-96641203D01*
X201164310Y-96669919D01*
X201098845Y-96694335D01*
X201030572Y-96679483D01*
X201015690Y-96669919D01*
X200977330Y-96641203D01*
X200977328Y-96641202D01*
X200842482Y-96590908D01*
X200842483Y-96590908D01*
X200782883Y-96584501D01*
X200782881Y-96584500D01*
X200782873Y-96584500D01*
X200782864Y-96584500D01*
X198857129Y-96584500D01*
X198857123Y-96584501D01*
X198797516Y-96590908D01*
X198662671Y-96641202D01*
X198662669Y-96641203D01*
X198624310Y-96669919D01*
X198558845Y-96694335D01*
X198490572Y-96679483D01*
X198475690Y-96669919D01*
X198437330Y-96641203D01*
X198437328Y-96641202D01*
X198302482Y-96590908D01*
X198302483Y-96590908D01*
X198242883Y-96584501D01*
X198242881Y-96584500D01*
X198242873Y-96584500D01*
X198242864Y-96584500D01*
X196317129Y-96584500D01*
X196317123Y-96584501D01*
X196257516Y-96590908D01*
X196122671Y-96641202D01*
X196122669Y-96641203D01*
X196084310Y-96669919D01*
X196018845Y-96694335D01*
X195950572Y-96679483D01*
X195935690Y-96669919D01*
X195897330Y-96641203D01*
X195897328Y-96641202D01*
X195762482Y-96590908D01*
X195762483Y-96590908D01*
X195702883Y-96584501D01*
X195702881Y-96584500D01*
X195702873Y-96584500D01*
X195702864Y-96584500D01*
X193777129Y-96584500D01*
X193777123Y-96584501D01*
X193717516Y-96590908D01*
X193582671Y-96641202D01*
X193582669Y-96641203D01*
X193544310Y-96669919D01*
X193478845Y-96694335D01*
X193410572Y-96679483D01*
X193395690Y-96669919D01*
X193357330Y-96641203D01*
X193357328Y-96641202D01*
X193222482Y-96590908D01*
X193222483Y-96590908D01*
X193162883Y-96584501D01*
X193162881Y-96584500D01*
X193162873Y-96584500D01*
X193162865Y-96584500D01*
X192924500Y-96584500D01*
X192857461Y-96564815D01*
X192811706Y-96512011D01*
X192800500Y-96460500D01*
X192800500Y-92600096D01*
X192820185Y-92533057D01*
X192836814Y-92512420D01*
X203868713Y-81480521D01*
X203868716Y-81480520D01*
X203980520Y-81368716D01*
X204030639Y-81281904D01*
X204059577Y-81231785D01*
X204100500Y-81079058D01*
X204100500Y-80920943D01*
X204100500Y-71999999D01*
X207389580Y-71999999D01*
X207394211Y-72067701D01*
X207394500Y-72076163D01*
X207394500Y-72138004D01*
X207403400Y-72205611D01*
X207404172Y-72213332D01*
X207409236Y-72287368D01*
X207421749Y-72347588D01*
X207423281Y-72356625D01*
X207430525Y-72411645D01*
X207430527Y-72411654D01*
X207449821Y-72483660D01*
X207451451Y-72490517D01*
X207458093Y-72522483D01*
X207467840Y-72569384D01*
X207467842Y-72569393D01*
X207486307Y-72621346D01*
X207489241Y-72630775D01*
X207501958Y-72678236D01*
X207501961Y-72678245D01*
X207501965Y-72678258D01*
X207532915Y-72752978D01*
X207535194Y-72758903D01*
X207564299Y-72840794D01*
X207564301Y-72840799D01*
X207564302Y-72840800D01*
X207586746Y-72884114D01*
X207591211Y-72893712D01*
X207607580Y-72933233D01*
X207607583Y-72933239D01*
X207651201Y-73008787D01*
X207653910Y-73013736D01*
X207696816Y-73096540D01*
X207718974Y-73127931D01*
X207721287Y-73131207D01*
X207727366Y-73140709D01*
X207745584Y-73172263D01*
X207745589Y-73172269D01*
X207745590Y-73172271D01*
X207802557Y-73246512D01*
X207805485Y-73250490D01*
X207862918Y-73331854D01*
X207862923Y-73331861D01*
X207887551Y-73358231D01*
X207895290Y-73367364D01*
X207913604Y-73391232D01*
X207984286Y-73461914D01*
X207987200Y-73464929D01*
X208059526Y-73542371D01*
X208082575Y-73561123D01*
X208082577Y-73561124D01*
X208092006Y-73569634D01*
X208108769Y-73586397D01*
X208193087Y-73651096D01*
X208195856Y-73653284D01*
X208282962Y-73724150D01*
X208302924Y-73736289D01*
X208313973Y-73743855D01*
X208327737Y-73754416D01*
X208327742Y-73754419D01*
X208327750Y-73754425D01*
X208425277Y-73810731D01*
X208427655Y-73812139D01*
X208529070Y-73873811D01*
X208544660Y-73880582D01*
X208557248Y-73886924D01*
X208566763Y-73892418D01*
X208676815Y-73938002D01*
X208678528Y-73938729D01*
X208781273Y-73983358D01*
X208793265Y-73988567D01*
X208803497Y-73991434D01*
X208817490Y-73996272D01*
X208821757Y-73998040D01*
X208942867Y-74030491D01*
X208944155Y-74030844D01*
X209070622Y-74066279D01*
X209074842Y-74066858D01*
X209084353Y-74068779D01*
X209084373Y-74068682D01*
X209088341Y-74069471D01*
X209088356Y-74069475D01*
X209219111Y-74086688D01*
X209219364Y-74086722D01*
X209333805Y-74102452D01*
X209355979Y-74105500D01*
X209355980Y-74105500D01*
X209644020Y-74105500D01*
X209780698Y-74086713D01*
X209780807Y-74086699D01*
X209911644Y-74069475D01*
X209911658Y-74069471D01*
X209915622Y-74068683D01*
X209915641Y-74068782D01*
X209925158Y-74066858D01*
X209929378Y-74066279D01*
X210055927Y-74030820D01*
X210057126Y-74030492D01*
X210178243Y-73998040D01*
X210182508Y-73996272D01*
X210196506Y-73991432D01*
X210206737Y-73988566D01*
X210321381Y-73938767D01*
X210323220Y-73937987D01*
X210433237Y-73892418D01*
X210442760Y-73886919D01*
X210455337Y-73880583D01*
X210470930Y-73873811D01*
X210572387Y-73812112D01*
X210574647Y-73810773D01*
X210672263Y-73754416D01*
X210686024Y-73743856D01*
X210697071Y-73736291D01*
X210717038Y-73724150D01*
X210804208Y-73653230D01*
X210806868Y-73651129D01*
X210891232Y-73586396D01*
X210908009Y-73569617D01*
X210917405Y-73561138D01*
X210940474Y-73542371D01*
X211012799Y-73464928D01*
X211015713Y-73461914D01*
X211015742Y-73461885D01*
X211086396Y-73391232D01*
X211104704Y-73367372D01*
X211112437Y-73358243D01*
X211137077Y-73331861D01*
X211194522Y-73250477D01*
X211197441Y-73246512D01*
X211254416Y-73172263D01*
X211272632Y-73140709D01*
X211278710Y-73131210D01*
X211303184Y-73096540D01*
X211346103Y-73013707D01*
X211348766Y-73008842D01*
X211392418Y-72933237D01*
X211408790Y-72893708D01*
X211413253Y-72884114D01*
X211435701Y-72840794D01*
X211464812Y-72758881D01*
X211467070Y-72753009D01*
X211498040Y-72678243D01*
X211510758Y-72630774D01*
X211513689Y-72621353D01*
X211532160Y-72569385D01*
X211548550Y-72490507D01*
X211550178Y-72483660D01*
X211569475Y-72411644D01*
X211576722Y-72356586D01*
X211578245Y-72347601D01*
X211590763Y-72287369D01*
X211595827Y-72213314D01*
X211596592Y-72205651D01*
X211605500Y-72138002D01*
X211605500Y-72076163D01*
X211605789Y-72067701D01*
X211605887Y-72066264D01*
X211610420Y-72000000D01*
X211605788Y-71932297D01*
X211605500Y-71923836D01*
X211605500Y-71862003D01*
X211605499Y-71861995D01*
X211596597Y-71794381D01*
X211595826Y-71786661D01*
X211592220Y-71733940D01*
X211590763Y-71712631D01*
X211578244Y-71652388D01*
X211576723Y-71643417D01*
X211569475Y-71588356D01*
X211550180Y-71516347D01*
X211548548Y-71509482D01*
X211532160Y-71430615D01*
X211513689Y-71378645D01*
X211510759Y-71369229D01*
X211498040Y-71321757D01*
X211467067Y-71246982D01*
X211464812Y-71241117D01*
X211441817Y-71176416D01*
X211435702Y-71159208D01*
X211435701Y-71159206D01*
X211413248Y-71115876D01*
X211408788Y-71106286D01*
X211392418Y-71066763D01*
X211376281Y-71038813D01*
X211348793Y-70991202D01*
X211346082Y-70986250D01*
X211322338Y-70940426D01*
X211303184Y-70903460D01*
X211278710Y-70868789D01*
X211272627Y-70859280D01*
X211254417Y-70827739D01*
X211254416Y-70827737D01*
X211197431Y-70753474D01*
X211194515Y-70749512D01*
X211137077Y-70668139D01*
X211112450Y-70641769D01*
X211104698Y-70632620D01*
X211086397Y-70608769D01*
X211086388Y-70608760D01*
X211015709Y-70538081D01*
X211012798Y-70535068D01*
X210940469Y-70457624D01*
X210917420Y-70438872D01*
X210907995Y-70430366D01*
X210891237Y-70413608D01*
X210891230Y-70413602D01*
X210806911Y-70348902D01*
X210804143Y-70346715D01*
X210744437Y-70298141D01*
X210717038Y-70275850D01*
X210697069Y-70263706D01*
X210686024Y-70256143D01*
X210672263Y-70245584D01*
X210672257Y-70245580D01*
X210672254Y-70245578D01*
X210574720Y-70189267D01*
X210572292Y-70187828D01*
X210470930Y-70126189D01*
X210455345Y-70119419D01*
X210442757Y-70113078D01*
X210433247Y-70107588D01*
X210433237Y-70107582D01*
X210433235Y-70107581D01*
X210433227Y-70107577D01*
X210323289Y-70062040D01*
X210321340Y-70061213D01*
X210206737Y-70011434D01*
X210206731Y-70011432D01*
X210196497Y-70008564D01*
X210182514Y-70003729D01*
X210178243Y-70001960D01*
X210171448Y-70000139D01*
X210057167Y-69969516D01*
X210055808Y-69969144D01*
X209929372Y-69933719D01*
X209925142Y-69933138D01*
X209915645Y-69931220D01*
X209915626Y-69931317D01*
X209911649Y-69930526D01*
X209911646Y-69930525D01*
X209911644Y-69930525D01*
X209781065Y-69913333D01*
X209780377Y-69913241D01*
X209644022Y-69894500D01*
X209644020Y-69894500D01*
X209355980Y-69894500D01*
X209355975Y-69894500D01*
X209219620Y-69913240D01*
X209218923Y-69913334D01*
X209088367Y-69930523D01*
X209088358Y-69930524D01*
X209088356Y-69930525D01*
X209088353Y-69930525D01*
X209084387Y-69931315D01*
X209084368Y-69931220D01*
X209074860Y-69933137D01*
X209070638Y-69933717D01*
X209070624Y-69933720D01*
X208944213Y-69969138D01*
X208942854Y-69969510D01*
X208821758Y-70001958D01*
X208817476Y-70003732D01*
X208803506Y-70008563D01*
X208793268Y-70011432D01*
X208793250Y-70011438D01*
X208678679Y-70061204D01*
X208676731Y-70062031D01*
X208566759Y-70107583D01*
X208566749Y-70107588D01*
X208557237Y-70113079D01*
X208544664Y-70119414D01*
X208529070Y-70126189D01*
X208529066Y-70126190D01*
X208427723Y-70187818D01*
X208425298Y-70189255D01*
X208327741Y-70245581D01*
X208313973Y-70256144D01*
X208302933Y-70263703D01*
X208282968Y-70275846D01*
X208282961Y-70275850D01*
X208195845Y-70346723D01*
X208193079Y-70348908D01*
X208108776Y-70413596D01*
X208108772Y-70413600D01*
X208092003Y-70430368D01*
X208082586Y-70438866D01*
X208059533Y-70457622D01*
X208059524Y-70457630D01*
X207987228Y-70535039D01*
X207984288Y-70538081D01*
X207913610Y-70608760D01*
X207913604Y-70608767D01*
X207895300Y-70632621D01*
X207887553Y-70641765D01*
X207862928Y-70668133D01*
X207862913Y-70668151D01*
X207805489Y-70749504D01*
X207802561Y-70753482D01*
X207745590Y-70827727D01*
X207745577Y-70827748D01*
X207727371Y-70859280D01*
X207721292Y-70868783D01*
X207696816Y-70903459D01*
X207653915Y-70986252D01*
X207651206Y-70991201D01*
X207607584Y-71066757D01*
X207607577Y-71066772D01*
X207591208Y-71106290D01*
X207586748Y-71115879D01*
X207564299Y-71159206D01*
X207564297Y-71159210D01*
X207535196Y-71241087D01*
X207532919Y-71247009D01*
X207501961Y-71321753D01*
X207489239Y-71369229D01*
X207486306Y-71378657D01*
X207467840Y-71430614D01*
X207467840Y-71430615D01*
X207451451Y-71509479D01*
X207449820Y-71516341D01*
X207430528Y-71588341D01*
X207430525Y-71588356D01*
X207423281Y-71643375D01*
X207421749Y-71652413D01*
X207409237Y-71712630D01*
X207409236Y-71712635D01*
X207404172Y-71786666D01*
X207403400Y-71794387D01*
X207394500Y-71861995D01*
X207394500Y-71923836D01*
X207394211Y-71932298D01*
X207389580Y-71999999D01*
X204100500Y-71999999D01*
X204100500Y-70420943D01*
X204061622Y-70275848D01*
X204059577Y-70268215D01*
X204059577Y-70268214D01*
X204030639Y-70218095D01*
X204030637Y-70218092D01*
X204021843Y-70202860D01*
X203980520Y-70131284D01*
X203868716Y-70019480D01*
X203868715Y-70019479D01*
X203864385Y-70015149D01*
X203864374Y-70015139D01*
X203561416Y-69712181D01*
X203527931Y-69650858D01*
X203532915Y-69581166D01*
X203574787Y-69525233D01*
X203640251Y-69500816D01*
X203649097Y-69500500D01*
X211775500Y-69500500D01*
X211842539Y-69520185D01*
X211888294Y-69572989D01*
X211899500Y-69624500D01*
X211899500Y-130355500D01*
X211879815Y-130422539D01*
X211827011Y-130468294D01*
X211775500Y-130479500D01*
X103124500Y-130479500D01*
X103057461Y-130459815D01*
X103011706Y-130407011D01*
X103000500Y-130355500D01*
X103000500Y-127999999D01*
X113389580Y-127999999D01*
X113394211Y-128067701D01*
X113394500Y-128076163D01*
X113394500Y-128138004D01*
X113403400Y-128205611D01*
X113404172Y-128213332D01*
X113409236Y-128287368D01*
X113421749Y-128347588D01*
X113423281Y-128356625D01*
X113430525Y-128411645D01*
X113430527Y-128411654D01*
X113449821Y-128483660D01*
X113451452Y-128490523D01*
X113467840Y-128569384D01*
X113467842Y-128569393D01*
X113486307Y-128621346D01*
X113489241Y-128630775D01*
X113501958Y-128678236D01*
X113501961Y-128678245D01*
X113501965Y-128678258D01*
X113532915Y-128752978D01*
X113535194Y-128758903D01*
X113564299Y-128840794D01*
X113564301Y-128840799D01*
X113564302Y-128840800D01*
X113586746Y-128884114D01*
X113591211Y-128893712D01*
X113607580Y-128933233D01*
X113607583Y-128933239D01*
X113651201Y-129008787D01*
X113653912Y-129013739D01*
X113696816Y-129096540D01*
X113721287Y-129131207D01*
X113727366Y-129140709D01*
X113745584Y-129172263D01*
X113745589Y-129172269D01*
X113745590Y-129172271D01*
X113802557Y-129246512D01*
X113805485Y-129250490D01*
X113862918Y-129331854D01*
X113862923Y-129331861D01*
X113887551Y-129358231D01*
X113895290Y-129367364D01*
X113913604Y-129391232D01*
X113984286Y-129461914D01*
X113987200Y-129464929D01*
X114059526Y-129542371D01*
X114082575Y-129561123D01*
X114082577Y-129561124D01*
X114092006Y-129569634D01*
X114108769Y-129586397D01*
X114193087Y-129651096D01*
X114195856Y-129653284D01*
X114282962Y-129724150D01*
X114302924Y-129736289D01*
X114313973Y-129743855D01*
X114327737Y-129754416D01*
X114327742Y-129754419D01*
X114327750Y-129754425D01*
X114425277Y-129810731D01*
X114427655Y-129812139D01*
X114529070Y-129873811D01*
X114544660Y-129880582D01*
X114557248Y-129886924D01*
X114566763Y-129892418D01*
X114676815Y-129938002D01*
X114678528Y-129938729D01*
X114781273Y-129983358D01*
X114793265Y-129988567D01*
X114803497Y-129991434D01*
X114817490Y-129996272D01*
X114821757Y-129998040D01*
X114942867Y-130030491D01*
X114944155Y-130030844D01*
X115070622Y-130066279D01*
X115074842Y-130066858D01*
X115084353Y-130068779D01*
X115084373Y-130068682D01*
X115088341Y-130069471D01*
X115088356Y-130069475D01*
X115219111Y-130086688D01*
X115219364Y-130086722D01*
X115333805Y-130102452D01*
X115355979Y-130105500D01*
X115355980Y-130105500D01*
X115644020Y-130105500D01*
X115780698Y-130086713D01*
X115780807Y-130086699D01*
X115911644Y-130069475D01*
X115911658Y-130069471D01*
X115915622Y-130068683D01*
X115915641Y-130068782D01*
X115925158Y-130066858D01*
X115929378Y-130066279D01*
X116055927Y-130030820D01*
X116057126Y-130030492D01*
X116178243Y-129998040D01*
X116182508Y-129996272D01*
X116196506Y-129991432D01*
X116206737Y-129988566D01*
X116321381Y-129938767D01*
X116323220Y-129937987D01*
X116433237Y-129892418D01*
X116442760Y-129886919D01*
X116455337Y-129880583D01*
X116470930Y-129873811D01*
X116572387Y-129812112D01*
X116574647Y-129810773D01*
X116672263Y-129754416D01*
X116686024Y-129743856D01*
X116697071Y-129736291D01*
X116717038Y-129724150D01*
X116804208Y-129653230D01*
X116806868Y-129651129D01*
X116891232Y-129586396D01*
X116908009Y-129569617D01*
X116917405Y-129561138D01*
X116940474Y-129542371D01*
X117012799Y-129464928D01*
X117015713Y-129461914D01*
X117015742Y-129461885D01*
X117086396Y-129391232D01*
X117104704Y-129367372D01*
X117112437Y-129358243D01*
X117137077Y-129331861D01*
X117194522Y-129250477D01*
X117197441Y-129246512D01*
X117254416Y-129172263D01*
X117272632Y-129140709D01*
X117278710Y-129131210D01*
X117303184Y-129096540D01*
X117346103Y-129013707D01*
X117348766Y-129008842D01*
X117392418Y-128933237D01*
X117408790Y-128893708D01*
X117413253Y-128884114D01*
X117435701Y-128840794D01*
X117464812Y-128758881D01*
X117467070Y-128753009D01*
X117498040Y-128678243D01*
X117510758Y-128630774D01*
X117513689Y-128621353D01*
X117532160Y-128569385D01*
X117548550Y-128490507D01*
X117550178Y-128483660D01*
X117569475Y-128411644D01*
X117576722Y-128356586D01*
X117578245Y-128347601D01*
X117590763Y-128287369D01*
X117595827Y-128213314D01*
X117596592Y-128205651D01*
X117605500Y-128138002D01*
X117605500Y-128076163D01*
X117605789Y-128067701D01*
X117607765Y-128038812D01*
X117610420Y-128000000D01*
X117605788Y-127932297D01*
X117605500Y-127923836D01*
X117605500Y-127862003D01*
X117605499Y-127861995D01*
X117596597Y-127794381D01*
X117595826Y-127786661D01*
X117593471Y-127752229D01*
X117590763Y-127712631D01*
X117578244Y-127652388D01*
X117576723Y-127643417D01*
X117569475Y-127588356D01*
X117550180Y-127516347D01*
X117548548Y-127509482D01*
X117532160Y-127430615D01*
X117513689Y-127378645D01*
X117510759Y-127369229D01*
X117498040Y-127321757D01*
X117467067Y-127246982D01*
X117464812Y-127241117D01*
X117441817Y-127176416D01*
X117435702Y-127159208D01*
X117426373Y-127141204D01*
X117413248Y-127115876D01*
X117408788Y-127106286D01*
X117402419Y-127090909D01*
X117392418Y-127066763D01*
X117360807Y-127012011D01*
X117348793Y-126991202D01*
X117346082Y-126986250D01*
X117303183Y-126903459D01*
X117278711Y-126868790D01*
X117272627Y-126859280D01*
X117254417Y-126827739D01*
X117254416Y-126827737D01*
X117197431Y-126753474D01*
X117194515Y-126749512D01*
X117137077Y-126668139D01*
X117112450Y-126641769D01*
X117104698Y-126632620D01*
X117086397Y-126608769D01*
X117086388Y-126608760D01*
X117015709Y-126538081D01*
X117012798Y-126535068D01*
X116940469Y-126457624D01*
X116917420Y-126438872D01*
X116907995Y-126430366D01*
X116891237Y-126413608D01*
X116891230Y-126413602D01*
X116806911Y-126348902D01*
X116804143Y-126346715D01*
X116799886Y-126343252D01*
X116717038Y-126275850D01*
X116697069Y-126263706D01*
X116686024Y-126256143D01*
X116672263Y-126245584D01*
X116672257Y-126245580D01*
X116672254Y-126245578D01*
X116574720Y-126189267D01*
X116572292Y-126187828D01*
X116470930Y-126126189D01*
X116455345Y-126119419D01*
X116442757Y-126113078D01*
X116433247Y-126107588D01*
X116433237Y-126107582D01*
X116433235Y-126107581D01*
X116433227Y-126107577D01*
X116323289Y-126062040D01*
X116321340Y-126061213D01*
X116206737Y-126011434D01*
X116206731Y-126011432D01*
X116196497Y-126008564D01*
X116182514Y-126003729D01*
X116178243Y-126001960D01*
X116171448Y-126000139D01*
X116057167Y-125969516D01*
X116055808Y-125969144D01*
X115929372Y-125933719D01*
X115925142Y-125933138D01*
X115915645Y-125931220D01*
X115915626Y-125931317D01*
X115911649Y-125930526D01*
X115911646Y-125930525D01*
X115911644Y-125930525D01*
X115781065Y-125913333D01*
X115780377Y-125913241D01*
X115644022Y-125894500D01*
X115644020Y-125894500D01*
X115355980Y-125894500D01*
X115355975Y-125894500D01*
X115219620Y-125913240D01*
X115218923Y-125913334D01*
X115088367Y-125930523D01*
X115088358Y-125930524D01*
X115088356Y-125930525D01*
X115088353Y-125930525D01*
X115084387Y-125931315D01*
X115084368Y-125931220D01*
X115074860Y-125933137D01*
X115070638Y-125933717D01*
X115070624Y-125933720D01*
X114944213Y-125969138D01*
X114942854Y-125969510D01*
X114821758Y-126001958D01*
X114817476Y-126003732D01*
X114803506Y-126008563D01*
X114793268Y-126011432D01*
X114793250Y-126011438D01*
X114678679Y-126061204D01*
X114676731Y-126062031D01*
X114566759Y-126107583D01*
X114566749Y-126107588D01*
X114557237Y-126113079D01*
X114544664Y-126119414D01*
X114529070Y-126126189D01*
X114529066Y-126126190D01*
X114427723Y-126187818D01*
X114425298Y-126189255D01*
X114327741Y-126245581D01*
X114313973Y-126256144D01*
X114302933Y-126263703D01*
X114282968Y-126275846D01*
X114282961Y-126275850D01*
X114195845Y-126346723D01*
X114193079Y-126348908D01*
X114108776Y-126413596D01*
X114108772Y-126413600D01*
X114092003Y-126430368D01*
X114082586Y-126438866D01*
X114059533Y-126457622D01*
X114059524Y-126457630D01*
X113987228Y-126535039D01*
X113984288Y-126538081D01*
X113913610Y-126608760D01*
X113913604Y-126608767D01*
X113895300Y-126632621D01*
X113887553Y-126641765D01*
X113862928Y-126668133D01*
X113862913Y-126668151D01*
X113805489Y-126749504D01*
X113802561Y-126753482D01*
X113745590Y-126827727D01*
X113745577Y-126827748D01*
X113727371Y-126859280D01*
X113721292Y-126868783D01*
X113696816Y-126903459D01*
X113653915Y-126986252D01*
X113651206Y-126991201D01*
X113607584Y-127066757D01*
X113607577Y-127066772D01*
X113591208Y-127106290D01*
X113586748Y-127115879D01*
X113564299Y-127159206D01*
X113564297Y-127159210D01*
X113535196Y-127241087D01*
X113532919Y-127247009D01*
X113501961Y-127321753D01*
X113489239Y-127369229D01*
X113486306Y-127378657D01*
X113467840Y-127430614D01*
X113467840Y-127430615D01*
X113451451Y-127509479D01*
X113449820Y-127516341D01*
X113430528Y-127588341D01*
X113430525Y-127588356D01*
X113423281Y-127643375D01*
X113421749Y-127652413D01*
X113409237Y-127712630D01*
X113409236Y-127712635D01*
X113404172Y-127786666D01*
X113403400Y-127794387D01*
X113394500Y-127861995D01*
X113394500Y-127923836D01*
X113394211Y-127932298D01*
X113389580Y-127999999D01*
X103000500Y-127999999D01*
X103000500Y-123499994D01*
X106540150Y-123499994D01*
X106540150Y-123500005D01*
X106559514Y-123733696D01*
X106617081Y-123961025D01*
X106711279Y-124175775D01*
X106797975Y-124308471D01*
X107579000Y-123527446D01*
X107579000Y-123550160D01*
X107604964Y-123647061D01*
X107655124Y-123733940D01*
X107726060Y-123804876D01*
X107812939Y-123855036D01*
X107909840Y-123881000D01*
X107932553Y-123881000D01*
X107150511Y-124663039D01*
X107150512Y-124663040D01*
X107183413Y-124688648D01*
X107183414Y-124688649D01*
X107389651Y-124800260D01*
X107389660Y-124800263D01*
X107611444Y-124876402D01*
X107842750Y-124915000D01*
X108077250Y-124915000D01*
X108308555Y-124876402D01*
X108530339Y-124800263D01*
X108530347Y-124800260D01*
X108736586Y-124688649D01*
X108736589Y-124688647D01*
X108769486Y-124663040D01*
X108769486Y-124663039D01*
X107987447Y-123881000D01*
X108010160Y-123881000D01*
X108107061Y-123855036D01*
X108193940Y-123804876D01*
X108264876Y-123733940D01*
X108315036Y-123647061D01*
X108341000Y-123550160D01*
X108341000Y-123527447D01*
X109122022Y-124308470D01*
X109125891Y-124302550D01*
X109179037Y-124257193D01*
X109248268Y-124247769D01*
X109311604Y-124277270D01*
X109333509Y-124302550D01*
X109379140Y-124372395D01*
X109379143Y-124372398D01*
X109538022Y-124544986D01*
X109690357Y-124663553D01*
X109722599Y-124688648D01*
X109723142Y-124689070D01*
X109929452Y-124800720D01*
X110042828Y-124839642D01*
X110151320Y-124876888D01*
X110151322Y-124876888D01*
X110151324Y-124876889D01*
X110382708Y-124915500D01*
X110382709Y-124915500D01*
X110617291Y-124915500D01*
X110617292Y-124915500D01*
X110848676Y-124876889D01*
X111070548Y-124800720D01*
X111276858Y-124689070D01*
X111461978Y-124544986D01*
X111620857Y-124372398D01*
X111749161Y-124176012D01*
X111826368Y-123999997D01*
X143232677Y-123999997D01*
X143232677Y-124000002D01*
X143251929Y-124220062D01*
X143251930Y-124220070D01*
X143309104Y-124433445D01*
X143309105Y-124433447D01*
X143309106Y-124433450D01*
X143331412Y-124481285D01*
X143402466Y-124633662D01*
X143402468Y-124633666D01*
X143529170Y-124814615D01*
X143529175Y-124814621D01*
X143685378Y-124970824D01*
X143685384Y-124970829D01*
X143866333Y-125097531D01*
X143866335Y-125097532D01*
X143866338Y-125097534D01*
X144066550Y-125190894D01*
X144279932Y-125248070D01*
X144437123Y-125261822D01*
X144499998Y-125267323D01*
X144500000Y-125267323D01*
X144500002Y-125267323D01*
X144555017Y-125262509D01*
X144720068Y-125248070D01*
X144933450Y-125190894D01*
X145133662Y-125097534D01*
X145314620Y-124970826D01*
X145412319Y-124873127D01*
X145473642Y-124839642D01*
X145543334Y-124844626D01*
X145587681Y-124873127D01*
X145685378Y-124970824D01*
X145685384Y-124970829D01*
X145866333Y-125097531D01*
X145866335Y-125097532D01*
X145866338Y-125097534D01*
X146066550Y-125190894D01*
X146279932Y-125248070D01*
X146437123Y-125261822D01*
X146499998Y-125267323D01*
X146500000Y-125267323D01*
X146500002Y-125267323D01*
X146555017Y-125262509D01*
X146720068Y-125248070D01*
X146933450Y-125190894D01*
X147133662Y-125097534D01*
X147314620Y-124970826D01*
X147412319Y-124873127D01*
X147473642Y-124839642D01*
X147543334Y-124844626D01*
X147587681Y-124873127D01*
X147685378Y-124970824D01*
X147685384Y-124970829D01*
X147866333Y-125097531D01*
X147866335Y-125097532D01*
X147866338Y-125097534D01*
X148066550Y-125190894D01*
X148279932Y-125248070D01*
X148437123Y-125261822D01*
X148499998Y-125267323D01*
X148500000Y-125267323D01*
X148500002Y-125267323D01*
X148555017Y-125262509D01*
X148720068Y-125248070D01*
X148933450Y-125190894D01*
X149133662Y-125097534D01*
X149314620Y-124970826D01*
X149412319Y-124873127D01*
X149473642Y-124839642D01*
X149543334Y-124844626D01*
X149587681Y-124873127D01*
X149685378Y-124970824D01*
X149685384Y-124970829D01*
X149866333Y-125097531D01*
X149866335Y-125097532D01*
X149866338Y-125097534D01*
X150066550Y-125190894D01*
X150279932Y-125248070D01*
X150437123Y-125261822D01*
X150499998Y-125267323D01*
X150500000Y-125267323D01*
X150500002Y-125267323D01*
X150555017Y-125262509D01*
X150720068Y-125248070D01*
X150933450Y-125190894D01*
X151133662Y-125097534D01*
X151314620Y-124970826D01*
X151412319Y-124873127D01*
X151473642Y-124839642D01*
X151543334Y-124844626D01*
X151587681Y-124873127D01*
X151685378Y-124970824D01*
X151685384Y-124970829D01*
X151866333Y-125097531D01*
X151866335Y-125097532D01*
X151866338Y-125097534D01*
X152066550Y-125190894D01*
X152279932Y-125248070D01*
X152437123Y-125261822D01*
X152499998Y-125267323D01*
X152500000Y-125267323D01*
X152500002Y-125267323D01*
X152555017Y-125262509D01*
X152720068Y-125248070D01*
X152933450Y-125190894D01*
X153133662Y-125097534D01*
X153314620Y-124970826D01*
X153412319Y-124873127D01*
X153473642Y-124839642D01*
X153543334Y-124844626D01*
X153587681Y-124873127D01*
X153685378Y-124970824D01*
X153685384Y-124970829D01*
X153866333Y-125097531D01*
X153866335Y-125097532D01*
X153866338Y-125097534D01*
X154066550Y-125190894D01*
X154279932Y-125248070D01*
X154437123Y-125261822D01*
X154499998Y-125267323D01*
X154500000Y-125267323D01*
X154500002Y-125267323D01*
X154555017Y-125262509D01*
X154720068Y-125248070D01*
X154933450Y-125190894D01*
X155133662Y-125097534D01*
X155314620Y-124970826D01*
X155412319Y-124873127D01*
X155473642Y-124839642D01*
X155543334Y-124844626D01*
X155587681Y-124873127D01*
X155685378Y-124970824D01*
X155685384Y-124970829D01*
X155866333Y-125097531D01*
X155866335Y-125097532D01*
X155866338Y-125097534D01*
X156066550Y-125190894D01*
X156279932Y-125248070D01*
X156437123Y-125261822D01*
X156499998Y-125267323D01*
X156500000Y-125267323D01*
X156500002Y-125267323D01*
X156555017Y-125262509D01*
X156720068Y-125248070D01*
X156933450Y-125190894D01*
X157133662Y-125097534D01*
X157314620Y-124970826D01*
X157412319Y-124873127D01*
X157473642Y-124839642D01*
X157543334Y-124844626D01*
X157587681Y-124873127D01*
X157685378Y-124970824D01*
X157685384Y-124970829D01*
X157866333Y-125097531D01*
X157866335Y-125097532D01*
X157866338Y-125097534D01*
X158066550Y-125190894D01*
X158279932Y-125248070D01*
X158437123Y-125261822D01*
X158499998Y-125267323D01*
X158500000Y-125267323D01*
X158500002Y-125267323D01*
X158555017Y-125262509D01*
X158720068Y-125248070D01*
X158933450Y-125190894D01*
X159133662Y-125097534D01*
X159314620Y-124970826D01*
X159470826Y-124814620D01*
X159597534Y-124633662D01*
X159690894Y-124433450D01*
X159748070Y-124220068D01*
X159767323Y-124000000D01*
X159763927Y-123961187D01*
X159756912Y-123881000D01*
X159748070Y-123779932D01*
X159690894Y-123566550D01*
X159597534Y-123366339D01*
X159470826Y-123185380D01*
X159314620Y-123029174D01*
X159314616Y-123029171D01*
X159314615Y-123029170D01*
X159133666Y-122902468D01*
X159133662Y-122902466D01*
X159133660Y-122902465D01*
X158933450Y-122809106D01*
X158933447Y-122809105D01*
X158933445Y-122809104D01*
X158720070Y-122751930D01*
X158720062Y-122751929D01*
X158500002Y-122732677D01*
X158499998Y-122732677D01*
X158279937Y-122751929D01*
X158279929Y-122751930D01*
X158066554Y-122809104D01*
X158066548Y-122809107D01*
X157866340Y-122902465D01*
X157866338Y-122902466D01*
X157685381Y-123029172D01*
X157587680Y-123126873D01*
X157526356Y-123160357D01*
X157456665Y-123155373D01*
X157412318Y-123126872D01*
X157314621Y-123029175D01*
X157314615Y-123029170D01*
X157133666Y-122902468D01*
X157133662Y-122902466D01*
X157133660Y-122902465D01*
X156933450Y-122809106D01*
X156933447Y-122809105D01*
X156933445Y-122809104D01*
X156720070Y-122751930D01*
X156720062Y-122751929D01*
X156500002Y-122732677D01*
X156499998Y-122732677D01*
X156279937Y-122751929D01*
X156279929Y-122751930D01*
X156066554Y-122809104D01*
X156066548Y-122809107D01*
X155866340Y-122902465D01*
X155866338Y-122902466D01*
X155685381Y-123029172D01*
X155587680Y-123126873D01*
X155526356Y-123160357D01*
X155456665Y-123155373D01*
X155412318Y-123126872D01*
X155314621Y-123029175D01*
X155314615Y-123029170D01*
X155133666Y-122902468D01*
X155133662Y-122902466D01*
X155133660Y-122902465D01*
X154933450Y-122809106D01*
X154933447Y-122809105D01*
X154933445Y-122809104D01*
X154720070Y-122751930D01*
X154720062Y-122751929D01*
X154500002Y-122732677D01*
X154499998Y-122732677D01*
X154279937Y-122751929D01*
X154279929Y-122751930D01*
X154066554Y-122809104D01*
X154066548Y-122809107D01*
X153866340Y-122902465D01*
X153866338Y-122902466D01*
X153685381Y-123029172D01*
X153587680Y-123126873D01*
X153526356Y-123160357D01*
X153456665Y-123155373D01*
X153412318Y-123126872D01*
X153314621Y-123029175D01*
X153314615Y-123029170D01*
X153133666Y-122902468D01*
X153133662Y-122902466D01*
X153133660Y-122902465D01*
X152933450Y-122809106D01*
X152933447Y-122809105D01*
X152933445Y-122809104D01*
X152720070Y-122751930D01*
X152720062Y-122751929D01*
X152500002Y-122732677D01*
X152499998Y-122732677D01*
X152279937Y-122751929D01*
X152279929Y-122751930D01*
X152066554Y-122809104D01*
X152066548Y-122809107D01*
X151866340Y-122902465D01*
X151866338Y-122902466D01*
X151685381Y-123029172D01*
X151587680Y-123126873D01*
X151526356Y-123160357D01*
X151456665Y-123155373D01*
X151412318Y-123126872D01*
X151314621Y-123029175D01*
X151314615Y-123029170D01*
X151133666Y-122902468D01*
X151133662Y-122902466D01*
X151133660Y-122902465D01*
X150933450Y-122809106D01*
X150933447Y-122809105D01*
X150933445Y-122809104D01*
X150720070Y-122751930D01*
X150720062Y-122751929D01*
X150500002Y-122732677D01*
X150499998Y-122732677D01*
X150279937Y-122751929D01*
X150279929Y-122751930D01*
X150066554Y-122809104D01*
X150066548Y-122809107D01*
X149866340Y-122902465D01*
X149866338Y-122902466D01*
X149685381Y-123029172D01*
X149587680Y-123126873D01*
X149526356Y-123160357D01*
X149456665Y-123155373D01*
X149412318Y-123126872D01*
X149314621Y-123029175D01*
X149314615Y-123029170D01*
X149133666Y-122902468D01*
X149133662Y-122902466D01*
X149133660Y-122902465D01*
X148933450Y-122809106D01*
X148933447Y-122809105D01*
X148933445Y-122809104D01*
X148720070Y-122751930D01*
X148720062Y-122751929D01*
X148500002Y-122732677D01*
X148499998Y-122732677D01*
X148279937Y-122751929D01*
X148279929Y-122751930D01*
X148066554Y-122809104D01*
X148066548Y-122809107D01*
X147866340Y-122902465D01*
X147866338Y-122902466D01*
X147685381Y-123029172D01*
X147587680Y-123126873D01*
X147526356Y-123160357D01*
X147456665Y-123155373D01*
X147412318Y-123126872D01*
X147314621Y-123029175D01*
X147314615Y-123029170D01*
X147133666Y-122902468D01*
X147133662Y-122902466D01*
X147133660Y-122902465D01*
X146933450Y-122809106D01*
X146933447Y-122809105D01*
X146933445Y-122809104D01*
X146720070Y-122751930D01*
X146720062Y-122751929D01*
X146500002Y-122732677D01*
X146499998Y-122732677D01*
X146279937Y-122751929D01*
X146279929Y-122751930D01*
X146066554Y-122809104D01*
X146066548Y-122809107D01*
X145866340Y-122902465D01*
X145866338Y-122902466D01*
X145685381Y-123029172D01*
X145587680Y-123126873D01*
X145526356Y-123160357D01*
X145456665Y-123155373D01*
X145412318Y-123126872D01*
X145314621Y-123029175D01*
X145314615Y-123029170D01*
X145133666Y-122902468D01*
X145133662Y-122902466D01*
X145133660Y-122902465D01*
X144933450Y-122809106D01*
X144933447Y-122809105D01*
X144933445Y-122809104D01*
X144720070Y-122751930D01*
X144720062Y-122751929D01*
X144500002Y-122732677D01*
X144499998Y-122732677D01*
X144279937Y-122751929D01*
X144279929Y-122751930D01*
X144066554Y-122809104D01*
X144066548Y-122809107D01*
X143866340Y-122902465D01*
X143866338Y-122902466D01*
X143685377Y-123029175D01*
X143529175Y-123185377D01*
X143402466Y-123366338D01*
X143402465Y-123366340D01*
X143309107Y-123566548D01*
X143309104Y-123566554D01*
X143251930Y-123779929D01*
X143251929Y-123779937D01*
X143232677Y-123999997D01*
X111826368Y-123999997D01*
X111843392Y-123961187D01*
X111900979Y-123733782D01*
X111900986Y-123733696D01*
X111920351Y-123500005D01*
X111920351Y-123499994D01*
X111900980Y-123266226D01*
X111900978Y-123266214D01*
X111843392Y-123038812D01*
X111749161Y-122823988D01*
X111620859Y-122627604D01*
X111501307Y-122497737D01*
X111461978Y-122455014D01*
X111277398Y-122311350D01*
X111276860Y-122310931D01*
X111276855Y-122310928D01*
X111165481Y-122250654D01*
X111115891Y-122201434D01*
X111100500Y-122141600D01*
X111100500Y-120589060D01*
X111100501Y-120589047D01*
X111100501Y-120420944D01*
X111100501Y-120420943D01*
X111059577Y-120268216D01*
X111054612Y-120259616D01*
X111037999Y-120197616D01*
X111037999Y-119713330D01*
X111037998Y-119713313D01*
X111027674Y-119612247D01*
X111003340Y-119538813D01*
X110973408Y-119448484D01*
X110882840Y-119301650D01*
X110760850Y-119179660D01*
X110760846Y-119179657D01*
X110659403Y-119117086D01*
X110612678Y-119065138D01*
X110600500Y-119011548D01*
X110600500Y-118400908D01*
X110620185Y-118333869D01*
X110672989Y-118288114D01*
X110683536Y-118283869D01*
X110849522Y-118225789D01*
X111002262Y-118129816D01*
X111129816Y-118002262D01*
X111225789Y-117849522D01*
X111285368Y-117679255D01*
X111285369Y-117679249D01*
X111305565Y-117500003D01*
X111305565Y-117499996D01*
X111285369Y-117320750D01*
X111285368Y-117320745D01*
X111257035Y-117239775D01*
X111225789Y-117150478D01*
X111129816Y-116997738D01*
X111002262Y-116870184D01*
X110983225Y-116858222D01*
X110849523Y-116774211D01*
X110679254Y-116714631D01*
X110679249Y-116714630D01*
X110500004Y-116694435D01*
X110499996Y-116694435D01*
X110320750Y-116714630D01*
X110320745Y-116714631D01*
X110150476Y-116774211D01*
X109997737Y-116870184D01*
X109870184Y-116997737D01*
X109774210Y-117150478D01*
X109714630Y-117320750D01*
X109704837Y-117407666D01*
X109677770Y-117472080D01*
X109669299Y-117481462D01*
X109624237Y-117526524D01*
X109624212Y-117526552D01*
X109519478Y-117631286D01*
X109469361Y-117718094D01*
X109469359Y-117718096D01*
X109440425Y-117768209D01*
X109440424Y-117768210D01*
X109440423Y-117768215D01*
X109399499Y-117920943D01*
X109399499Y-117920945D01*
X109399499Y-118089046D01*
X109399500Y-118089059D01*
X109399500Y-119011548D01*
X109379815Y-119078587D01*
X109340597Y-119117086D01*
X109239153Y-119179657D01*
X109239148Y-119179661D01*
X109224825Y-119193984D01*
X109163501Y-119227468D01*
X109093809Y-119222482D01*
X109049465Y-119193982D01*
X109035538Y-119180055D01*
X109035534Y-119180052D01*
X108888811Y-119089551D01*
X108888800Y-119089546D01*
X108725152Y-119035319D01*
X108624154Y-119025000D01*
X108525000Y-119025000D01*
X108525000Y-120974999D01*
X108624140Y-120974999D01*
X108624154Y-120974998D01*
X108725152Y-120964680D01*
X108888800Y-120910453D01*
X108888811Y-120910448D01*
X109035535Y-120819947D01*
X109049460Y-120806021D01*
X109110782Y-120772533D01*
X109180473Y-120777514D01*
X109224827Y-120806017D01*
X109239150Y-120820340D01*
X109385984Y-120910908D01*
X109549747Y-120965174D01*
X109650823Y-120975500D01*
X109775500Y-120975499D01*
X109842539Y-120995183D01*
X109888294Y-121047987D01*
X109899500Y-121099499D01*
X109899500Y-122141600D01*
X109879815Y-122208639D01*
X109834519Y-122250654D01*
X109723144Y-122310928D01*
X109723139Y-122310931D01*
X109592498Y-122412613D01*
X109538022Y-122455014D01*
X109538019Y-122455016D01*
X109538019Y-122455017D01*
X109379140Y-122627604D01*
X109333510Y-122697448D01*
X109280363Y-122742805D01*
X109211132Y-122752229D01*
X109147796Y-122722727D01*
X109125893Y-122697450D01*
X109122023Y-122691527D01*
X108341000Y-123472551D01*
X108341000Y-123449840D01*
X108315036Y-123352939D01*
X108264876Y-123266060D01*
X108193940Y-123195124D01*
X108107061Y-123144964D01*
X108010160Y-123119000D01*
X107987448Y-123119000D01*
X108769487Y-122336959D01*
X108769487Y-122336958D01*
X108736585Y-122311350D01*
X108530348Y-122199739D01*
X108530339Y-122199736D01*
X108308555Y-122123597D01*
X108077250Y-122085000D01*
X107842750Y-122085000D01*
X107611444Y-122123597D01*
X107389660Y-122199736D01*
X107389651Y-122199739D01*
X107183413Y-122311350D01*
X107183407Y-122311354D01*
X107150512Y-122336957D01*
X107150512Y-122336959D01*
X107932553Y-123119000D01*
X107909840Y-123119000D01*
X107812939Y-123144964D01*
X107726060Y-123195124D01*
X107655124Y-123266060D01*
X107604964Y-123352939D01*
X107579000Y-123449840D01*
X107579000Y-123472552D01*
X106797975Y-122691527D01*
X106711277Y-122824229D01*
X106617081Y-123038974D01*
X106559514Y-123266303D01*
X106540150Y-123499994D01*
X103000500Y-123499994D01*
X103000500Y-120286654D01*
X107237501Y-120286654D01*
X107247819Y-120387652D01*
X107302046Y-120551300D01*
X107302051Y-120551311D01*
X107392552Y-120698034D01*
X107392555Y-120698038D01*
X107514461Y-120819944D01*
X107514465Y-120819947D01*
X107661188Y-120910448D01*
X107661199Y-120910453D01*
X107824847Y-120964680D01*
X107925851Y-120974999D01*
X108025000Y-120974998D01*
X108025000Y-120250000D01*
X107237501Y-120250000D01*
X107237501Y-120286654D01*
X103000500Y-120286654D01*
X103000500Y-119713345D01*
X107237500Y-119713345D01*
X107237500Y-119750000D01*
X108025000Y-119750000D01*
X108025000Y-119024999D01*
X107925860Y-119025000D01*
X107925844Y-119025001D01*
X107824847Y-119035319D01*
X107661199Y-119089546D01*
X107661188Y-119089551D01*
X107514465Y-119180052D01*
X107514461Y-119180055D01*
X107392555Y-119301961D01*
X107392552Y-119301965D01*
X107302051Y-119448688D01*
X107302046Y-119448699D01*
X107247819Y-119612347D01*
X107237500Y-119713345D01*
X103000500Y-119713345D01*
X103000500Y-106179573D01*
X103020185Y-106112534D01*
X103072989Y-106066779D01*
X103142147Y-106056835D01*
X103195620Y-106077996D01*
X103366338Y-106197534D01*
X103566550Y-106290894D01*
X103779932Y-106348070D01*
X103937123Y-106361822D01*
X103999998Y-106367323D01*
X104000000Y-106367323D01*
X104000002Y-106367323D01*
X104055017Y-106362509D01*
X104220068Y-106348070D01*
X104433450Y-106290894D01*
X104633662Y-106197534D01*
X104814620Y-106070826D01*
X104970826Y-105914620D01*
X105097534Y-105733662D01*
X105190894Y-105533450D01*
X105248070Y-105320068D01*
X105267323Y-105100000D01*
X105265350Y-105077452D01*
X105254123Y-104949125D01*
X105248070Y-104879932D01*
X105190894Y-104666550D01*
X105097534Y-104466339D01*
X104970826Y-104285380D01*
X104814620Y-104129174D01*
X104814616Y-104129171D01*
X104814615Y-104129170D01*
X104633666Y-104002468D01*
X104633662Y-104002466D01*
X104633660Y-104002465D01*
X104433450Y-103909106D01*
X104433447Y-103909105D01*
X104433445Y-103909104D01*
X104220070Y-103851930D01*
X104220062Y-103851929D01*
X104000002Y-103832677D01*
X103999998Y-103832677D01*
X103779937Y-103851929D01*
X103779929Y-103851930D01*
X103566554Y-103909104D01*
X103566548Y-103909107D01*
X103366340Y-104002465D01*
X103366338Y-104002466D01*
X103195623Y-104122001D01*
X103129416Y-104144328D01*
X103061649Y-104127317D01*
X103013837Y-104076369D01*
X103000500Y-104020426D01*
X103000500Y-101999998D01*
X112074722Y-101999998D01*
X112074722Y-102000001D01*
X112093810Y-102266881D01*
X112093811Y-102266888D01*
X112150682Y-102528322D01*
X112244187Y-102779020D01*
X112244189Y-102779024D01*
X112372412Y-103013846D01*
X112372417Y-103013854D01*
X112532752Y-103228038D01*
X112532768Y-103228056D01*
X112721943Y-103417231D01*
X112721961Y-103417247D01*
X112936145Y-103577582D01*
X112936153Y-103577587D01*
X113170975Y-103705810D01*
X113170978Y-103705812D01*
X113170981Y-103705813D01*
X113268833Y-103742309D01*
X113324767Y-103784180D01*
X113349184Y-103849644D01*
X113349500Y-103858491D01*
X113349500Y-106994931D01*
X113330494Y-107060903D01*
X113274211Y-107150477D01*
X113274209Y-107150481D01*
X113214633Y-107320737D01*
X113214630Y-107320750D01*
X113194435Y-107499996D01*
X113194435Y-107500003D01*
X113214630Y-107679249D01*
X113214631Y-107679254D01*
X113274211Y-107849523D01*
X113370184Y-108002262D01*
X113497738Y-108129816D01*
X113650478Y-108225789D01*
X113820745Y-108285368D01*
X113820750Y-108285369D01*
X113999996Y-108305565D01*
X114000000Y-108305565D01*
X114000004Y-108305565D01*
X114179249Y-108285369D01*
X114179252Y-108285368D01*
X114179255Y-108285368D01*
X114349522Y-108225789D01*
X114502262Y-108129816D01*
X114629816Y-108002262D01*
X114725789Y-107849522D01*
X114785368Y-107679255D01*
X114794011Y-107602546D01*
X114805565Y-107500003D01*
X114805565Y-107499996D01*
X114785369Y-107320750D01*
X114785368Y-107320745D01*
X114725788Y-107150476D01*
X114629815Y-106997737D01*
X114586819Y-106954741D01*
X114553334Y-106893418D01*
X114550500Y-106867060D01*
X114550500Y-103858491D01*
X114570185Y-103791452D01*
X114622989Y-103745697D01*
X114631160Y-103742311D01*
X114729019Y-103705813D01*
X114963852Y-103577584D01*
X115178046Y-103417241D01*
X115367241Y-103228046D01*
X115527584Y-103013852D01*
X115655813Y-102779019D01*
X115749316Y-102528327D01*
X115806190Y-102266880D01*
X115825278Y-102000000D01*
X115806190Y-101733120D01*
X115749316Y-101471673D01*
X115655813Y-101220981D01*
X115610029Y-101137135D01*
X115527587Y-100986153D01*
X115527582Y-100986145D01*
X115367247Y-100771961D01*
X115367231Y-100771943D01*
X115178056Y-100582768D01*
X115178038Y-100582752D01*
X114963854Y-100422417D01*
X114963846Y-100422412D01*
X114729024Y-100294189D01*
X114729020Y-100294187D01*
X114478322Y-100200682D01*
X114216888Y-100143811D01*
X114216881Y-100143810D01*
X113950001Y-100124722D01*
X113949999Y-100124722D01*
X113683118Y-100143810D01*
X113683111Y-100143811D01*
X113421677Y-100200682D01*
X113170979Y-100294187D01*
X113170975Y-100294189D01*
X112936153Y-100422412D01*
X112936145Y-100422417D01*
X112721961Y-100582752D01*
X112721943Y-100582768D01*
X112532768Y-100771943D01*
X112532752Y-100771961D01*
X112372417Y-100986145D01*
X112372412Y-100986153D01*
X112244189Y-101220975D01*
X112244187Y-101220979D01*
X112150682Y-101471677D01*
X112093811Y-101733111D01*
X112093810Y-101733118D01*
X112074722Y-101999998D01*
X103000500Y-101999998D01*
X103000500Y-95582135D01*
X112079500Y-95582135D01*
X112079500Y-98417870D01*
X112079501Y-98417876D01*
X112085908Y-98477483D01*
X112136202Y-98612328D01*
X112136206Y-98612335D01*
X112222452Y-98727544D01*
X112222455Y-98727547D01*
X112337664Y-98813793D01*
X112337671Y-98813797D01*
X112472517Y-98864091D01*
X112472516Y-98864091D01*
X112479444Y-98864835D01*
X112532127Y-98870500D01*
X115367872Y-98870499D01*
X115427483Y-98864091D01*
X115562331Y-98813796D01*
X115677546Y-98727546D01*
X115763796Y-98612331D01*
X115814091Y-98477483D01*
X115820500Y-98417873D01*
X115820499Y-95582128D01*
X115814091Y-95522517D01*
X115808960Y-95508761D01*
X115763797Y-95387671D01*
X115763793Y-95387664D01*
X115677547Y-95272455D01*
X115677544Y-95272452D01*
X115562335Y-95186206D01*
X115562328Y-95186202D01*
X115427482Y-95135908D01*
X115427483Y-95135908D01*
X115367883Y-95129501D01*
X115367881Y-95129500D01*
X115367873Y-95129500D01*
X115367865Y-95129500D01*
X114674500Y-95129500D01*
X114607461Y-95109815D01*
X114561706Y-95057011D01*
X114550500Y-95005500D01*
X114550500Y-93278363D01*
X114558167Y-93239820D01*
X114557473Y-93239635D01*
X114559577Y-93231784D01*
X114600501Y-93079057D01*
X114600501Y-92920942D01*
X114559577Y-92768215D01*
X114480520Y-92631284D01*
X114368716Y-92519480D01*
X114231785Y-92440423D01*
X114079058Y-92399499D01*
X113920943Y-92399499D01*
X113844579Y-92419961D01*
X113768214Y-92440423D01*
X113768209Y-92440426D01*
X113631285Y-92519477D01*
X113563846Y-92586916D01*
X113563842Y-92586922D01*
X113469477Y-92681287D01*
X113424900Y-92758499D01*
X113424900Y-92758500D01*
X113390423Y-92818214D01*
X113376781Y-92869124D01*
X113349499Y-92970943D01*
X113349499Y-92970945D01*
X113349499Y-93139046D01*
X113349500Y-93139059D01*
X113349500Y-95005500D01*
X113329815Y-95072539D01*
X113277011Y-95118294D01*
X113225500Y-95129500D01*
X112532129Y-95129500D01*
X112532123Y-95129501D01*
X112472516Y-95135908D01*
X112337671Y-95186202D01*
X112337664Y-95186206D01*
X112222455Y-95272452D01*
X112222452Y-95272455D01*
X112136206Y-95387664D01*
X112136202Y-95387671D01*
X112085908Y-95522517D01*
X112079501Y-95582116D01*
X112079501Y-95582123D01*
X112079500Y-95582135D01*
X103000500Y-95582135D01*
X103000500Y-94979573D01*
X103020185Y-94912534D01*
X103072989Y-94866779D01*
X103142147Y-94856835D01*
X103195620Y-94877996D01*
X103366338Y-94997534D01*
X103566550Y-95090894D01*
X103779932Y-95148070D01*
X103937123Y-95161822D01*
X103999998Y-95167323D01*
X104000000Y-95167323D01*
X104000002Y-95167323D01*
X104055017Y-95162509D01*
X104220068Y-95148070D01*
X104433450Y-95090894D01*
X104633662Y-94997534D01*
X104814620Y-94870826D01*
X104970826Y-94714620D01*
X105097534Y-94533662D01*
X105190894Y-94333450D01*
X105248070Y-94120068D01*
X105267323Y-93900000D01*
X105248070Y-93679932D01*
X105190894Y-93466550D01*
X105097534Y-93266339D01*
X104970826Y-93085380D01*
X104814620Y-92929174D01*
X104814616Y-92929171D01*
X104814615Y-92929170D01*
X104633666Y-92802468D01*
X104633662Y-92802466D01*
X104633660Y-92802465D01*
X104433450Y-92709106D01*
X104433447Y-92709105D01*
X104433445Y-92709104D01*
X104220070Y-92651930D01*
X104220062Y-92651929D01*
X104000002Y-92632677D01*
X103999998Y-92632677D01*
X103779937Y-92651929D01*
X103779929Y-92651930D01*
X103566554Y-92709104D01*
X103566548Y-92709107D01*
X103366340Y-92802465D01*
X103366338Y-92802466D01*
X103195623Y-92922001D01*
X103129416Y-92944328D01*
X103061649Y-92927317D01*
X103013837Y-92876369D01*
X103000500Y-92820426D01*
X103000500Y-71999999D01*
X113389580Y-71999999D01*
X113394211Y-72067701D01*
X113394500Y-72076163D01*
X113394500Y-72138004D01*
X113403400Y-72205611D01*
X113404172Y-72213332D01*
X113409236Y-72287368D01*
X113421749Y-72347588D01*
X113423281Y-72356625D01*
X113430525Y-72411645D01*
X113430527Y-72411654D01*
X113449821Y-72483660D01*
X113451451Y-72490517D01*
X113458093Y-72522483D01*
X113467840Y-72569384D01*
X113467842Y-72569393D01*
X113486307Y-72621346D01*
X113489241Y-72630775D01*
X113501958Y-72678236D01*
X113501961Y-72678245D01*
X113501965Y-72678258D01*
X113532915Y-72752978D01*
X113535194Y-72758903D01*
X113564299Y-72840794D01*
X113564301Y-72840799D01*
X113564302Y-72840800D01*
X113586746Y-72884114D01*
X113591211Y-72893712D01*
X113607580Y-72933233D01*
X113607583Y-72933239D01*
X113651201Y-73008787D01*
X113653910Y-73013736D01*
X113696816Y-73096540D01*
X113718974Y-73127931D01*
X113721287Y-73131207D01*
X113727366Y-73140709D01*
X113745584Y-73172263D01*
X113745589Y-73172269D01*
X113745590Y-73172271D01*
X113802557Y-73246512D01*
X113805485Y-73250490D01*
X113862918Y-73331854D01*
X113862923Y-73331861D01*
X113887551Y-73358231D01*
X113895290Y-73367364D01*
X113913604Y-73391232D01*
X113984286Y-73461914D01*
X113987200Y-73464929D01*
X114059526Y-73542371D01*
X114082575Y-73561123D01*
X114082577Y-73561124D01*
X114092006Y-73569634D01*
X114108769Y-73586397D01*
X114193087Y-73651096D01*
X114195856Y-73653284D01*
X114282962Y-73724150D01*
X114302924Y-73736289D01*
X114313973Y-73743855D01*
X114327737Y-73754416D01*
X114327742Y-73754419D01*
X114327750Y-73754425D01*
X114425277Y-73810731D01*
X114427655Y-73812139D01*
X114529070Y-73873811D01*
X114544660Y-73880582D01*
X114557248Y-73886924D01*
X114566763Y-73892418D01*
X114676815Y-73938002D01*
X114678528Y-73938729D01*
X114781273Y-73983358D01*
X114793265Y-73988567D01*
X114803497Y-73991434D01*
X114817490Y-73996272D01*
X114821757Y-73998040D01*
X114942867Y-74030491D01*
X114944155Y-74030844D01*
X115070622Y-74066279D01*
X115074842Y-74066858D01*
X115084353Y-74068779D01*
X115084373Y-74068682D01*
X115088341Y-74069471D01*
X115088356Y-74069475D01*
X115219111Y-74086688D01*
X115219364Y-74086722D01*
X115333805Y-74102452D01*
X115355979Y-74105500D01*
X115355980Y-74105500D01*
X115644020Y-74105500D01*
X115780698Y-74086713D01*
X115780807Y-74086699D01*
X115911644Y-74069475D01*
X115911658Y-74069471D01*
X115915622Y-74068683D01*
X115915641Y-74068782D01*
X115925158Y-74066858D01*
X115929378Y-74066279D01*
X116055927Y-74030820D01*
X116057126Y-74030492D01*
X116178243Y-73998040D01*
X116182508Y-73996272D01*
X116196506Y-73991432D01*
X116206737Y-73988566D01*
X116321381Y-73938767D01*
X116323220Y-73937987D01*
X116433237Y-73892418D01*
X116442760Y-73886919D01*
X116455337Y-73880583D01*
X116470930Y-73873811D01*
X116572387Y-73812112D01*
X116574647Y-73810773D01*
X116672263Y-73754416D01*
X116686024Y-73743856D01*
X116697071Y-73736291D01*
X116717038Y-73724150D01*
X116804208Y-73653230D01*
X116806868Y-73651129D01*
X116891232Y-73586396D01*
X116908009Y-73569617D01*
X116917405Y-73561138D01*
X116940474Y-73542371D01*
X117012799Y-73464928D01*
X117015713Y-73461914D01*
X117015742Y-73461885D01*
X117086396Y-73391232D01*
X117104704Y-73367372D01*
X117112437Y-73358243D01*
X117137077Y-73331861D01*
X117194522Y-73250477D01*
X117197441Y-73246512D01*
X117254416Y-73172263D01*
X117272632Y-73140709D01*
X117278710Y-73131210D01*
X117303184Y-73096540D01*
X117346103Y-73013707D01*
X117348766Y-73008842D01*
X117392418Y-72933237D01*
X117408790Y-72893708D01*
X117413253Y-72884114D01*
X117435701Y-72840794D01*
X117464812Y-72758881D01*
X117467070Y-72753009D01*
X117498040Y-72678243D01*
X117510758Y-72630774D01*
X117513689Y-72621353D01*
X117532160Y-72569385D01*
X117548550Y-72490507D01*
X117550178Y-72483660D01*
X117569475Y-72411644D01*
X117576722Y-72356586D01*
X117578245Y-72347601D01*
X117590763Y-72287369D01*
X117595827Y-72213314D01*
X117596592Y-72205651D01*
X117605500Y-72138002D01*
X117605500Y-72076163D01*
X117605789Y-72067701D01*
X117605887Y-72066264D01*
X117610420Y-72000000D01*
X117605788Y-71932297D01*
X117605500Y-71923836D01*
X117605500Y-71862003D01*
X117605499Y-71861995D01*
X117596597Y-71794381D01*
X117595826Y-71786661D01*
X117592220Y-71733940D01*
X117590763Y-71712631D01*
X117578244Y-71652388D01*
X117576723Y-71643417D01*
X117569475Y-71588356D01*
X117550180Y-71516347D01*
X117548548Y-71509482D01*
X117532160Y-71430615D01*
X117513689Y-71378645D01*
X117510759Y-71369229D01*
X117498040Y-71321757D01*
X117467067Y-71246982D01*
X117464812Y-71241117D01*
X117441817Y-71176416D01*
X117435702Y-71159208D01*
X117435701Y-71159206D01*
X117413248Y-71115876D01*
X117408788Y-71106286D01*
X117392418Y-71066763D01*
X117376281Y-71038813D01*
X117348793Y-70991202D01*
X117346082Y-70986250D01*
X117322338Y-70940426D01*
X117303184Y-70903460D01*
X117278710Y-70868789D01*
X117272627Y-70859280D01*
X117254417Y-70827739D01*
X117254416Y-70827737D01*
X117197431Y-70753474D01*
X117194515Y-70749512D01*
X117137077Y-70668139D01*
X117112450Y-70641769D01*
X117104698Y-70632620D01*
X117086397Y-70608769D01*
X117086388Y-70608760D01*
X117015709Y-70538081D01*
X117012798Y-70535068D01*
X116940469Y-70457624D01*
X116917420Y-70438872D01*
X116907995Y-70430366D01*
X116891237Y-70413608D01*
X116891230Y-70413602D01*
X116806911Y-70348902D01*
X116804143Y-70346715D01*
X116744437Y-70298141D01*
X116717038Y-70275850D01*
X116697069Y-70263706D01*
X116686024Y-70256143D01*
X116672263Y-70245584D01*
X116672257Y-70245580D01*
X116672254Y-70245578D01*
X116574720Y-70189267D01*
X116572292Y-70187828D01*
X116470930Y-70126189D01*
X116455345Y-70119419D01*
X116442757Y-70113078D01*
X116433247Y-70107588D01*
X116433237Y-70107582D01*
X116433235Y-70107581D01*
X116433227Y-70107577D01*
X116323289Y-70062040D01*
X116321340Y-70061213D01*
X116206737Y-70011434D01*
X116206731Y-70011432D01*
X116196497Y-70008564D01*
X116182514Y-70003729D01*
X116178243Y-70001960D01*
X116171448Y-70000139D01*
X116057167Y-69969516D01*
X116055808Y-69969144D01*
X115929372Y-69933719D01*
X115925142Y-69933138D01*
X115915645Y-69931220D01*
X115915626Y-69931317D01*
X115911649Y-69930526D01*
X115911646Y-69930525D01*
X115911644Y-69930525D01*
X115781065Y-69913333D01*
X115780377Y-69913241D01*
X115644022Y-69894500D01*
X115644020Y-69894500D01*
X115355980Y-69894500D01*
X115355975Y-69894500D01*
X115219620Y-69913240D01*
X115218923Y-69913334D01*
X115088367Y-69930523D01*
X115088358Y-69930524D01*
X115088356Y-69930525D01*
X115088353Y-69930525D01*
X115084387Y-69931315D01*
X115084368Y-69931220D01*
X115074860Y-69933137D01*
X115070638Y-69933717D01*
X115070624Y-69933720D01*
X114944213Y-69969138D01*
X114942854Y-69969510D01*
X114821758Y-70001958D01*
X114817476Y-70003732D01*
X114803506Y-70008563D01*
X114793268Y-70011432D01*
X114793250Y-70011438D01*
X114678679Y-70061204D01*
X114676731Y-70062031D01*
X114566759Y-70107583D01*
X114566749Y-70107588D01*
X114557237Y-70113079D01*
X114544664Y-70119414D01*
X114529070Y-70126189D01*
X114529066Y-70126190D01*
X114427723Y-70187818D01*
X114425298Y-70189255D01*
X114327741Y-70245581D01*
X114313973Y-70256144D01*
X114302933Y-70263703D01*
X114282968Y-70275846D01*
X114282961Y-70275850D01*
X114195845Y-70346723D01*
X114193079Y-70348908D01*
X114108776Y-70413596D01*
X114108772Y-70413600D01*
X114092003Y-70430368D01*
X114082586Y-70438866D01*
X114059533Y-70457622D01*
X114059524Y-70457630D01*
X113987228Y-70535039D01*
X113984288Y-70538081D01*
X113913610Y-70608760D01*
X113913604Y-70608767D01*
X113895300Y-70632621D01*
X113887553Y-70641765D01*
X113862928Y-70668133D01*
X113862913Y-70668151D01*
X113805489Y-70749504D01*
X113802561Y-70753482D01*
X113745590Y-70827727D01*
X113745577Y-70827748D01*
X113727371Y-70859280D01*
X113721292Y-70868783D01*
X113696816Y-70903459D01*
X113653915Y-70986252D01*
X113651206Y-70991201D01*
X113607584Y-71066757D01*
X113607577Y-71066772D01*
X113591208Y-71106290D01*
X113586748Y-71115879D01*
X113564299Y-71159206D01*
X113564297Y-71159210D01*
X113535196Y-71241087D01*
X113532919Y-71247009D01*
X113501961Y-71321753D01*
X113489239Y-71369229D01*
X113486306Y-71378657D01*
X113467840Y-71430614D01*
X113467840Y-71430615D01*
X113451451Y-71509479D01*
X113449820Y-71516341D01*
X113430528Y-71588341D01*
X113430525Y-71588356D01*
X113423281Y-71643375D01*
X113421749Y-71652413D01*
X113409237Y-71712630D01*
X113409236Y-71712635D01*
X113404172Y-71786666D01*
X113403400Y-71794387D01*
X113394500Y-71861995D01*
X113394500Y-71923836D01*
X113394211Y-71932298D01*
X113389580Y-71999999D01*
X103000500Y-71999999D01*
X103000500Y-69624500D01*
X103020185Y-69557461D01*
X103072989Y-69511706D01*
X103124500Y-69500500D01*
X157270902Y-69500500D01*
X157337941Y-69520185D01*
G37*
%TD.AperFunction*%
%TA.AperFunction,Conductor*%
G36*
X202366942Y-70220185D02*
G01*
X202387584Y-70236819D01*
X202863181Y-70712416D01*
X202896666Y-70773739D01*
X202899500Y-70800097D01*
X202899500Y-80699902D01*
X202879815Y-80766941D01*
X202863181Y-80787583D01*
X191719481Y-91931282D01*
X191719479Y-91931285D01*
X191669361Y-92018094D01*
X191669359Y-92018096D01*
X191640425Y-92068209D01*
X191640424Y-92068210D01*
X191640423Y-92068215D01*
X191599499Y-92220943D01*
X191599499Y-92220945D01*
X191599499Y-92389046D01*
X191599500Y-92389059D01*
X191599500Y-96460500D01*
X191579815Y-96527539D01*
X191527011Y-96573294D01*
X191475501Y-96584500D01*
X191237130Y-96584500D01*
X191237123Y-96584501D01*
X191177516Y-96590908D01*
X191042671Y-96641202D01*
X191042669Y-96641203D01*
X191004310Y-96669919D01*
X190938845Y-96694335D01*
X190870572Y-96679483D01*
X190855690Y-96669919D01*
X190817330Y-96641203D01*
X190817328Y-96641202D01*
X190682482Y-96590908D01*
X190682483Y-96590908D01*
X190622883Y-96584501D01*
X190622881Y-96584500D01*
X190622873Y-96584500D01*
X190622864Y-96584500D01*
X188697129Y-96584500D01*
X188697123Y-96584501D01*
X188637516Y-96590908D01*
X188502671Y-96641202D01*
X188502669Y-96641203D01*
X188464310Y-96669919D01*
X188398845Y-96694335D01*
X188330572Y-96679483D01*
X188315690Y-96669919D01*
X188277330Y-96641203D01*
X188277328Y-96641202D01*
X188142482Y-96590908D01*
X188142483Y-96590908D01*
X188082883Y-96584501D01*
X188082881Y-96584500D01*
X188082873Y-96584500D01*
X188082865Y-96584500D01*
X187844500Y-96584500D01*
X187777461Y-96564815D01*
X187731706Y-96512011D01*
X187720500Y-96460500D01*
X187720500Y-78100097D01*
X187740185Y-78033058D01*
X187756819Y-78012416D01*
X192607819Y-73161416D01*
X192669142Y-73127931D01*
X192738834Y-73132915D01*
X192794767Y-73174787D01*
X192819184Y-73240251D01*
X192819500Y-73249097D01*
X192819500Y-75333330D01*
X192819499Y-75333348D01*
X192819499Y-75499054D01*
X192819498Y-75499054D01*
X192819499Y-75499057D01*
X192860423Y-75651785D01*
X192885047Y-75694435D01*
X192939477Y-75788712D01*
X192939481Y-75788717D01*
X193058349Y-75907585D01*
X193058355Y-75907590D01*
X195523584Y-78372819D01*
X195557069Y-78434142D01*
X195552085Y-78503834D01*
X195510213Y-78559767D01*
X195444749Y-78584184D01*
X195435903Y-78584500D01*
X195342708Y-78584500D01*
X195296431Y-78592222D01*
X195111320Y-78623111D01*
X194889459Y-78699277D01*
X194889451Y-78699280D01*
X194683139Y-78810931D01*
X194552498Y-78912613D01*
X194498022Y-78955014D01*
X194498019Y-78955016D01*
X194498019Y-78955017D01*
X194339140Y-79127604D01*
X194210838Y-79323988D01*
X194116607Y-79538812D01*
X194059021Y-79766214D01*
X194059019Y-79766226D01*
X194039649Y-79999994D01*
X194039649Y-80000005D01*
X194059019Y-80233773D01*
X194059021Y-80233785D01*
X194116607Y-80461187D01*
X194210838Y-80676011D01*
X194339140Y-80872395D01*
X194339143Y-80872398D01*
X194498022Y-81044986D01*
X194683142Y-81189070D01*
X194889452Y-81300720D01*
X195004662Y-81340272D01*
X195111320Y-81376888D01*
X195111322Y-81376888D01*
X195111324Y-81376889D01*
X195342708Y-81415500D01*
X195342709Y-81415500D01*
X195577291Y-81415500D01*
X195577292Y-81415500D01*
X195808676Y-81376889D01*
X196030548Y-81300720D01*
X196236858Y-81189070D01*
X196421978Y-81044986D01*
X196580857Y-80872398D01*
X196580858Y-80872395D01*
X196580861Y-80872393D01*
X196626191Y-80803009D01*
X196679336Y-80757651D01*
X196748568Y-80748227D01*
X196811904Y-80777728D01*
X196833809Y-80803009D01*
X196879138Y-80872393D01*
X196879143Y-80872398D01*
X197038022Y-81044986D01*
X197223142Y-81189070D01*
X197429452Y-81300720D01*
X197544662Y-81340272D01*
X197651320Y-81376888D01*
X197651322Y-81376888D01*
X197651324Y-81376889D01*
X197882708Y-81415500D01*
X197882709Y-81415500D01*
X198117291Y-81415500D01*
X198117292Y-81415500D01*
X198348676Y-81376889D01*
X198570548Y-81300720D01*
X198776858Y-81189070D01*
X198961978Y-81044986D01*
X199120857Y-80872398D01*
X199249161Y-80676012D01*
X199343392Y-80461187D01*
X199400979Y-80233782D01*
X199400980Y-80233773D01*
X199420351Y-80000005D01*
X199420351Y-79999994D01*
X199400980Y-79766226D01*
X199400978Y-79766214D01*
X199343392Y-79538812D01*
X199249161Y-79323988D01*
X199120859Y-79127604D01*
X199001308Y-78997738D01*
X198961978Y-78955014D01*
X198831334Y-78853330D01*
X198776860Y-78810931D01*
X198570548Y-78699280D01*
X198570540Y-78699277D01*
X198348679Y-78623111D01*
X198175138Y-78594152D01*
X198117292Y-78584500D01*
X197882708Y-78584500D01*
X197824862Y-78594152D01*
X197651321Y-78623111D01*
X197591294Y-78643718D01*
X197521495Y-78646867D01*
X197463352Y-78614117D01*
X194135889Y-75286654D01*
X195600001Y-75286654D01*
X195610319Y-75387652D01*
X195664546Y-75551300D01*
X195664551Y-75551311D01*
X195755052Y-75698034D01*
X195755055Y-75698038D01*
X195876961Y-75819944D01*
X195876965Y-75819947D01*
X196023688Y-75910448D01*
X196023699Y-75910453D01*
X196187347Y-75964680D01*
X196288351Y-75974999D01*
X196387500Y-75974998D01*
X196387500Y-75250000D01*
X195600001Y-75250000D01*
X195600001Y-75286654D01*
X194135889Y-75286654D01*
X194056819Y-75207584D01*
X194023334Y-75146261D01*
X194020500Y-75119903D01*
X194020500Y-74713345D01*
X195600000Y-74713345D01*
X195600000Y-74750000D01*
X196387500Y-74750000D01*
X196387500Y-74024999D01*
X196288360Y-74025000D01*
X196288344Y-74025001D01*
X196187347Y-74035319D01*
X196023699Y-74089546D01*
X196023688Y-74089551D01*
X195876965Y-74180052D01*
X195876961Y-74180055D01*
X195755055Y-74301961D01*
X195755052Y-74301965D01*
X195664551Y-74448688D01*
X195664546Y-74448699D01*
X195610319Y-74612347D01*
X195600000Y-74713345D01*
X194020500Y-74713345D01*
X194020500Y-73039499D01*
X194040185Y-72972460D01*
X194092989Y-72926705D01*
X194144500Y-72915499D01*
X194382871Y-72915499D01*
X194382872Y-72915499D01*
X194442483Y-72909091D01*
X194577331Y-72858796D01*
X194692546Y-72772546D01*
X194778796Y-72657331D01*
X194829091Y-72522483D01*
X194835500Y-72462873D01*
X194835499Y-72322305D01*
X194855183Y-72255269D01*
X194871818Y-72234627D01*
X195579000Y-71527446D01*
X195579000Y-71550160D01*
X195604964Y-71647061D01*
X195655124Y-71733940D01*
X195726060Y-71804876D01*
X195812939Y-71855036D01*
X195909840Y-71881000D01*
X195932553Y-71881000D01*
X195150511Y-72663039D01*
X195150512Y-72663040D01*
X195183413Y-72688648D01*
X195183414Y-72688649D01*
X195389651Y-72800260D01*
X195389660Y-72800263D01*
X195611444Y-72876402D01*
X195842750Y-72915000D01*
X196077250Y-72915000D01*
X196308555Y-72876402D01*
X196530339Y-72800263D01*
X196530347Y-72800260D01*
X196736586Y-72688649D01*
X196736589Y-72688647D01*
X196769486Y-72663040D01*
X196769486Y-72663039D01*
X195987447Y-71881000D01*
X196010160Y-71881000D01*
X196107061Y-71855036D01*
X196193940Y-71804876D01*
X196264876Y-71733940D01*
X196315036Y-71647061D01*
X196341000Y-71550160D01*
X196341000Y-71527447D01*
X197122022Y-72308470D01*
X197125891Y-72302550D01*
X197179037Y-72257193D01*
X197248268Y-72247769D01*
X197311604Y-72277270D01*
X197333509Y-72302550D01*
X197379140Y-72372395D01*
X197379143Y-72372398D01*
X197538022Y-72544986D01*
X197690357Y-72663553D01*
X197723139Y-72689068D01*
X197723144Y-72689071D01*
X197834517Y-72749343D01*
X197884108Y-72798562D01*
X197899500Y-72858398D01*
X197899500Y-73949508D01*
X197879815Y-74016547D01*
X197827011Y-74062302D01*
X197814506Y-74067213D01*
X197748486Y-74089090D01*
X197601648Y-74179661D01*
X197587325Y-74193984D01*
X197526001Y-74227468D01*
X197456309Y-74222482D01*
X197411965Y-74193982D01*
X197398038Y-74180055D01*
X197398034Y-74180052D01*
X197251311Y-74089551D01*
X197251300Y-74089546D01*
X197087652Y-74035319D01*
X196986654Y-74025000D01*
X196887500Y-74025000D01*
X196887500Y-75974999D01*
X196986640Y-75974999D01*
X196986654Y-75974998D01*
X197087652Y-75964680D01*
X197251300Y-75910453D01*
X197251311Y-75910448D01*
X197398035Y-75819947D01*
X197411960Y-75806021D01*
X197473282Y-75772533D01*
X197542973Y-75777514D01*
X197587327Y-75806017D01*
X197601650Y-75820340D01*
X197703096Y-75882912D01*
X197749821Y-75934860D01*
X197762000Y-75988451D01*
X197762000Y-76164304D01*
X197755042Y-76205258D01*
X197714632Y-76320742D01*
X197714630Y-76320750D01*
X197694435Y-76499996D01*
X197694435Y-76500003D01*
X197714630Y-76679249D01*
X197714631Y-76679254D01*
X197774211Y-76849523D01*
X197819089Y-76920945D01*
X197870184Y-77002262D01*
X197997738Y-77129816D01*
X198150478Y-77225789D01*
X198171252Y-77233058D01*
X198320745Y-77285368D01*
X198320750Y-77285369D01*
X198499996Y-77305565D01*
X198500000Y-77305565D01*
X198500004Y-77305565D01*
X198679249Y-77285369D01*
X198679252Y-77285368D01*
X198679255Y-77285368D01*
X198849522Y-77225789D01*
X199002262Y-77129816D01*
X199129816Y-77002262D01*
X199225789Y-76849522D01*
X199285368Y-76679255D01*
X199285369Y-76679249D01*
X199305565Y-76500003D01*
X199305565Y-76499996D01*
X199285369Y-76320750D01*
X199285368Y-76320745D01*
X199261461Y-76252424D01*
X199225789Y-76150478D01*
X199129816Y-75997738D01*
X199125565Y-75993487D01*
X199092080Y-75932164D01*
X199097064Y-75862472D01*
X199125565Y-75818125D01*
X199171157Y-75772533D01*
X199245340Y-75698350D01*
X199335908Y-75551516D01*
X199390174Y-75387753D01*
X199400500Y-75286677D01*
X199400499Y-74713324D01*
X199390174Y-74612247D01*
X199335908Y-74448484D01*
X199245340Y-74301650D01*
X199136819Y-74193129D01*
X199103334Y-74131806D01*
X199100500Y-74105448D01*
X199100500Y-72858398D01*
X199120185Y-72791359D01*
X199165483Y-72749343D01*
X199276858Y-72689070D01*
X199461978Y-72544986D01*
X199620857Y-72372398D01*
X199749161Y-72176012D01*
X199843392Y-71961187D01*
X199900979Y-71733782D01*
X199902731Y-71712641D01*
X199920351Y-71500005D01*
X199920351Y-71499994D01*
X199900980Y-71266226D01*
X199900978Y-71266214D01*
X199843392Y-71038812D01*
X199749161Y-70823988D01*
X199620859Y-70627604D01*
X199537570Y-70537129D01*
X199461978Y-70455014D01*
X199420015Y-70422353D01*
X199379202Y-70365643D01*
X199375527Y-70295870D01*
X199410159Y-70235187D01*
X199472100Y-70202860D01*
X199496177Y-70200500D01*
X202299903Y-70200500D01*
X202366942Y-70220185D01*
G37*
%TD.AperFunction*%
%TA.AperFunction,Conductor*%
G36*
X195094086Y-70220185D02*
G01*
X195139841Y-70272989D01*
X195150809Y-70332184D01*
X195150512Y-70336959D01*
X195932553Y-71119000D01*
X195909840Y-71119000D01*
X195812939Y-71144964D01*
X195726060Y-71195124D01*
X195655124Y-71266060D01*
X195604964Y-71352939D01*
X195579000Y-71449840D01*
X195579000Y-71472553D01*
X194871818Y-70765371D01*
X194838333Y-70704048D01*
X194835499Y-70677690D01*
X194835499Y-70537129D01*
X194835498Y-70537123D01*
X194835497Y-70537116D01*
X194829091Y-70477517D01*
X194821674Y-70457630D01*
X194788182Y-70367833D01*
X194783198Y-70298141D01*
X194816683Y-70236818D01*
X194878007Y-70203334D01*
X194904364Y-70200500D01*
X195027047Y-70200500D01*
X195094086Y-70220185D01*
G37*
%TD.AperFunction*%
%TA.AperFunction,Conductor*%
G36*
X160570862Y-70220185D02*
G01*
X160616617Y-70272989D01*
X160626561Y-70342147D01*
X160597536Y-70405703D01*
X160579985Y-70422353D01*
X160538029Y-70455008D01*
X160538019Y-70455017D01*
X160379140Y-70627604D01*
X160333510Y-70697448D01*
X160280363Y-70742805D01*
X160211132Y-70752229D01*
X160147796Y-70722727D01*
X160125893Y-70697450D01*
X160122023Y-70691527D01*
X159341000Y-71472551D01*
X159341000Y-71449840D01*
X159315036Y-71352939D01*
X159264876Y-71266060D01*
X159193940Y-71195124D01*
X159107061Y-71144964D01*
X159010160Y-71119000D01*
X158987447Y-71119000D01*
X159769487Y-70336958D01*
X159769191Y-70332182D01*
X159784685Y-70264052D01*
X159834553Y-70215113D01*
X159892953Y-70200500D01*
X160503823Y-70200500D01*
X160570862Y-70220185D01*
G37*
%TD.AperFunction*%
%TA.AperFunction,Conductor*%
G36*
X197570862Y-70220185D02*
G01*
X197616617Y-70272989D01*
X197626561Y-70342147D01*
X197597536Y-70405703D01*
X197579985Y-70422353D01*
X197538029Y-70455008D01*
X197538019Y-70455017D01*
X197379140Y-70627604D01*
X197333510Y-70697448D01*
X197280363Y-70742805D01*
X197211132Y-70752229D01*
X197147796Y-70722727D01*
X197125893Y-70697450D01*
X197122023Y-70691527D01*
X196341000Y-71472551D01*
X196341000Y-71449840D01*
X196315036Y-71352939D01*
X196264876Y-71266060D01*
X196193940Y-71195124D01*
X196107061Y-71144964D01*
X196010160Y-71119000D01*
X195987448Y-71119000D01*
X196769487Y-70336958D01*
X196769191Y-70332182D01*
X196784685Y-70264052D01*
X196834553Y-70215113D01*
X196892953Y-70200500D01*
X197503823Y-70200500D01*
X197570862Y-70220185D01*
G37*
%TD.AperFunction*%
%TD*%
M02*
